{
.appVersion = "1346";
DisplayStrings = (
Hn
);
copyright = "Copyright 2020 The Slackside One Project Authors (https://github.com/ManiackersDesign/slackside), all rights reserved.";
customParameters = (
{
name = license;
value = "This Font Software is licensed under the SIL Open Font License, Version 1.1. This license is available with a FAQ at: https://scripts.sil.org/OFL";
},
{
name = licenseURL;
value = "https://scripts.sil.org/OFL";
},
{
name = fsType;
value = (
);
},
{
name = vendorID;
value = MKSD;
}
);
date = "2020-10-30 04:41:19 +0000";
designer = "Maniackers Design";
designerURL = "https://mksd.jp/";
disablesAutomaticAlignment = 1;
familyName = "Slackside One";
featurePrefixes = (
{
automatic = 1;
code = "languagesystem DFLT dflt;\012";
name = Languagesystems;
}
);
features = (
{
automatic = 1;
code = "feature sups;\012feature frac;\012feature ordn;\012feature vert;\012feature vrt2;\012";
name = aalt;
},
{
automatic = 1;
code = "lookup ccmp_Other_1 {\012	@CombiningTopAccents = [acutecomb brevecomb caroncomb circumflexcomb dieresiscomb dotaccentcomb gravecomb hungarumlautcomb ringcomb tildecomb];\012	@CombiningNonTopAccents = [cedillacomb lowlinecomb ogonekcomb strokelongcomb];\012	sub [i]' @CombiningTopAccents by [idotless];\012	sub [i]' @CombiningNonTopAccents @CombiningTopAccents by [idotless];\012} ccmp_Other_1;\012";
name = ccmp;
},
{
automatic = 1;
code = "sub zero by zerosuperior;\012sub one by onesuperior;\012sub two by twosuperior;\012sub three by threesuperior;\012sub four by foursuperior;\012";
name = sups;
},
{
automatic = 1;
code = "sub one slash four by onequarter;\012sub one slash two by onehalf;\012sub three slash four by threequarters;\012";
name = frac;
},
{
automatic = 1;
code = "sub [zero one two three four five six seven eight nine] [A a]' by ordfeminine;\012sub [zero one two three four five six seven eight nine] [O o]' by ordmasculine;\012";
name = ordn;
},
{
automatic = 1;

glyphs = (
{
glyphname = A;
lastChange = "2020-11-04 22:34:44 +0000";
layers = (
{
layerId = master01;
paths = (
{
closed = 1;
nodes = (
"579 315 OFFCURVE",
"580 305 OFFCURVE",
"576 298 CURVE SMOOTH",
"573 290 OFFCURVE",
"571 281 OFFCURVE",
"571 273 CURVE",
"576 201 OFFCURVE",
"553 145 OFFCURVE",
"540 79 CURVE SMOOTH",
"539 75 OFFCURVE",
"538 68 OFFCURVE",
"535 63 CURVE SMOOTH",
"531 56 OFFCURVE",
"529 49 OFFCURVE",
"529 41 CURVE SMOOTH",
"529 33 OFFCURVE",
"525 25 OFFCURVE",
"523 18 CURVE SMOOTH",
"518 8 OFFCURVE",
"510 0 OFFCURVE",
"501 -5 CURVE SMOOTH",
"493 -9 OFFCURVE",
"483 -10 OFFCURVE",
"473 -8 CURVE",
"468 -8 OFFCURVE",
"464 -6 OFFCURVE",
"459 -5 CURVE SMOOTH",
"445 -1 OFFCURVE",
"436 11 OFFCURVE",
"436 25 CURVE",
"438 69 OFFCURVE",
"448 88 OFFCURVE",
"451 130 CURVE SMOOTH",
"453 138 OFFCURVE",
"455 144 OFFCURVE",
"458 150 CURVE SMOOTH",
"463 159 OFFCURVE",
"459 171 OFFCURVE",
"463 181 CURVE SMOOTH",
"465 188 OFFCURVE",
"466 195 OFFCURVE",
"466 203 CURVE",
"464 264 OFFCURVE",
"476 349 OFFCURVE",
"469 408 CURVE SMOOTH",
"468 419 OFFCURVE",
"455 426 OFFCURVE",
"444 421 CURVE SMOOTH",
"406 405 OFFCURVE",
"373 374 OFFCURVE",
"349 345 CURVE SMOOTH",
"346 343 OFFCURVE",
"344 340 OFFCURVE",
"340 340 CURVE SMOOTH",
"336 340 OFFCURVE",
"333 338 OFFCURVE",
"331 334 CURVE SMOOTH",
"328 324 OFFCURVE",
"324 315 OFFCURVE",
"316 309 CURVE SMOOTH",
"309 304 OFFCURVE",
"303 296 OFFCURVE",
"299 288 CURVE SMOOTH",
"295 280 OFFCURVE",
"293 274 OFFCURVE",
"288 269 CURVE SMOOTH",
"281 264 OFFCURVE",
"278 258 OFFCURVE",
"275 250 CURVE SMOOTH",
"273 245 OFFCURVE",
"268 239 OFFCURVE",
"264 235 CURVE SMOOTH",
"258 230 OFFCURVE",
"254 224 OFFCURVE",
"250 218 CURVE SMOOTH",
"221 158 OFFCURVE",
"174 113 OFFCURVE",
"141 53 CURVE SMOOTH",
"138 45 OFFCURVE",
"131 39 OFFCURVE",
"125 34 CURVE SMOOTH",
"118 28 OFFCURVE",
"111 19 OFFCURVE",
"105 18 CURVE",
"100 18 OFFCURVE",
"96 15 OFFCURVE",
"94 13 CURVE SMOOTH",
"91 10 OFFCURVE",
"89 8 OFFCURVE",
"85 6 CURVE SMOOTH",
"83 5 OFFCURVE",
"80 4 OFFCURVE",
"78 1 CURVE SMOOTH",
"69 -4 OFFCURVE",
"59 4 OFFCURVE",
"61 13 CURVE SMOOTH",
"98 156 OFFCURVE",
"163 268 OFFCURVE",
"240 375 CURVE SMOOTH",
"243 378 OFFCURVE",
"245 381 OFFCURVE",
"248 384 CURVE SMOOTH",
"309 439 OFFCURVE",
"384 520 OFFCURVE",
"490 493 CURVE",
"556 465 OFFCURVE",
"586 399 OFFCURVE",
"580 321 CURVE"
);
},
{
closed = 1;
nodes = (
"420 190 OFFCURVE",
"419 181 OFFCURVE",
"414 176 CURVE SMOOTH",
"391 153 OFFCURVE",
"358 149 OFFCURVE",
"324 158 CURVE SMOOTH",
"313 160 OFFCURVE",
"304 165 OFFCURVE",
"296 174 CURVE",
"293 176 OFFCURVE",
"289 180 OFFCURVE",
"284 183 CURVE SMOOTH",
"279 184 OFFCURVE",
"276 189 OFFCURVE",
"276 193 CURVE SMOOTH",
"276 198 OFFCURVE",
"280 201 OFFCURVE",
"284 203 CURVE SMOOTH",
"311 209 OFFCURVE",
"348 230 OFFCURVE",
"378 228 CURVE SMOOTH",
"389 226 OFFCURVE",
"395 218 OFFCURVE",
"404 213 CURVE SMOOTH",
"410 209 OFFCURVE",
"414 204 OFFCURVE",
"418 198 CURVE"
);
}
);
width = 641;
}
);
unicode = 0041;
},
{
glyphname = Aacute;
lastChange = "2020-11-04 22:34:44 +0000";
layers = (
{
layerId = master01;
paths = (
{
closed = 1;
nodes = (
"433 543 OFFCURVE",
"425 536 OFFCURVE",
"425 530 CURVE",
"424 521 OFFCURVE",
"429 513 OFFCURVE",
"426 508 CURVE",
"424 498 OFFCURVE",
"416 493 OFFCURVE",
"410 485 CURVE SMOOTH",
"405 480 OFFCURVE",
"399 476 OFFCURVE",
"393 473 CURVE SMOOTH",
"386 470 OFFCURVE",
"381 466 OFFCURVE",
"378 461 CURVE SMOOTH",
"374 458 OFFCURVE",
"370 455 OFFCURVE",
"365 454 CURVE SMOOTH",
"359 453 OFFCURVE",
"354 454 OFFCURVE",
"350 458 CURVE SMOOTH",
"344 464 OFFCURVE",
"340 470 OFFCURVE",
"339 478 CURVE SMOOTH",
"336 490 OFFCURVE",
"338 504 OFFCURVE",
"343 515 CURVE SMOOTH",
"353 535 OFFCURVE",
"368 558 OFFCURVE",
"379 578 CURVE SMOOTH",
"383 584 OFFCURVE",
"389 588 OFFCURVE",
"395 588 CURVE SMOOTH",
"403 588 OFFCURVE",
"409 589 OFFCURVE",
"413 594 CURVE",
"419 599 OFFCURVE",
"429 596 OFFCURVE",
"431 589 CURVE SMOOTH",
"435 578 OFFCURVE",
"435 563 OFFCURVE",
"433 549 CURVE"
);
},
{
closed = 1;
nodes = (
"358 146 OFFCURVE",
"358 144 OFFCURVE",
"356 143 CURVE",
"335 113 OFFCURVE",
"286 131 OFFCURVE",
"264 158 CURVE SMOOTH",
"255 168 OFFCURVE",
"259 184 OFFCURVE",
"271 189 CURVE SMOOTH",
"295 198 OFFCURVE",
"321 194 OFFCURVE",
"340 180 CURVE SMOOTH",
"350 173 OFFCURVE",
"356 161 OFFCURVE",
"358 149 CURVE"
);
},
{
closed = 1;
nodes = (
"458 193 OFFCURVE",
"461 106 OFFCURVE",
"451 30 CURVE SMOOTH",
"449 15 OFFCURVE",
"436 4 OFFCURVE",
"421 3 CURVE",
"418 3 OFFCURVE",
"413 4 OFFCURVE",
"409 4 CURVE",
"401 5 OFFCURVE",
"395 9 OFFCURVE",
"390 15 CURVE SMOOTH",
"386 20 OFFCURVE",
"384 28 OFFCURVE",
"384 34 CURVE SMOOTH",
"384 139 OFFCURVE",
"394 241 OFFCURVE",
"379 344 CURVE SMOOTH",
"378 355 OFFCURVE",
"365 359 OFFCURVE",
"358 353 CURVE SMOOTH",
"323 324 OFFCURVE",
"300 284 OFFCURVE",
"270 251 CURVE SMOOTH",
"268 248 OFFCURVE",
"265 244 OFFCURVE",
"263 240 CURVE SMOOTH",
"243 200 OFFCURVE",
"216 168 OFFCURVE",
"198 126 CURVE SMOOTH",
"183 93 OFFCURVE",
"173 65 OFFCURVE",
"156 34 CURVE SMOOTH",
"144 9 OFFCURVE",
"135 -11 OFFCURVE",
"113 -15 CURVE SMOOTH",
"98 -18 OFFCURVE",
"84 -13 OFFCURVE",
"75 0 CURVE SMOOTH",
"69 8 OFFCURVE",
"63 14 OFFCURVE",
"61 25 CURVE SMOOTH",
"59 55 OFFCURVE",
"86 83 OFFCURVE",
"94 110 CURVE",
"94 115 OFFCURVE",
"96 119 OFFCURVE",
"98 123 CURVE SMOOTH",
"154 233 OFFCURVE",
"213 338 OFFCURVE",
"310 409 CURVE SMOOTH",
"321 418 OFFCURVE",
"336 420 OFFCURVE",
"350 416 CURVE SMOOTH",
"355 415 OFFCURVE",
"360 414 OFFCURVE",
"365 414 CURVE",
"374 413 OFFCURVE",
"383 410 OFFCURVE",
"389 406 CURVE SMOOTH",
"439 376 OFFCURVE",
"450 324 OFFCURVE",
"454 265 CURVE SMOOTH"
);
}
);
width = 519;
}
);
unicode = 00C1;
},
{
glyphname = Acircumflex;
lastChange = "2020-11-04 22:34:44 +0000";
layers = (
{
layerId = master01;
paths = (
{
closed = 1;
nodes = (
"530 415 OFFCURVE",
"520 400 OFFCURVE",
"505 401 CURVE SMOOTH",
"478 403 OFFCURVE",
"460 433 OFFCURVE",
"445 459 CURVE SMOOTH",
"438 471 OFFCURVE",
"425 479 OFFCURVE",
"413 479 CURVE SMOOTH",
"408 479 OFFCURVE",
"404 479 OFFCURVE",
"400 478 CURVE SMOOTH",
"393 476 OFFCURVE",
"385 475 OFFCURVE",
"376 478 CURVE",
"343 484 OFFCURVE",
"324 420 OFFCURVE",
"288 420 CURVE SMOOTH",
"276 420 OFFCURVE",
"266 426 OFFCURVE",
"258 435 CURVE SMOOTH",
"248 445 OFFCURVE",
"246 460 OFFCURVE",
"254 471 CURVE SMOOTH",
"266 488 OFFCURVE",
"279 501 OFFCURVE",
"293 516 CURVE SMOOTH",
"303 528 OFFCURVE",
"316 533 OFFCURVE",
"331 533 CURVE",
"339 531 OFFCURVE",
"346 531 OFFCURVE",
"354 531 CURVE",
"384 534 OFFCURVE",
"416 541 OFFCURVE",
"450 529 CURVE SMOOTH",
"459 525 OFFCURVE",
"468 518 OFFCURVE",
"474 510 CURVE SMOOTH",
"478 504 OFFCURVE",
"483 498 OFFCURVE",
"488 493 CURVE SMOOTH",
"493 488 OFFCURVE",
"498 483 OFFCURVE",
"500 476 CURVE SMOOTH",
"503 473 OFFCURVE",
"504 469 OFFCURVE",
"506 466 CURVE SMOOTH",
"511 460 OFFCURVE",
"514 453 OFFCURVE",
"516 445 CURVE SMOOTH",
"518 439 OFFCURVE",
"521 434 OFFCURVE",
"524 428 CURVE SMOOTH"
);
},
{
closed = 1;
nodes = (
"370 128 OFFCURVE",
"363 111 OFFCURVE",
"346 109 CURVE SMOOTH",
"326 105 OFFCURVE",
"304 116 OFFCURVE",
"291 135 CURVE SMOOTH",
"285 144 OFFCURVE",
"289 158 OFFCURVE",
"300 161 CURVE SMOOTH",
"316 166 OFFCURVE",
"333 178 OFFCURVE",
"341 160 CURVE SMOOTH",
"343 158 OFFCURVE",
"344 156 OFFCURVE",
"346 158 CURVE SMOOTH",
"349 159 OFFCURVE",
"351 159 OFFCURVE",
"353 156 CURVE SMOOTH",
"356 150 OFFCURVE",
"360 145 OFFCURVE",
"363 141 CURVE SMOOTH"
);
},
{
closed = 1;
nodes = (
"489 264 OFFCURVE",
"488 210 OFFCURVE",
"481 181 CURVE SMOOTH",
"480 176 OFFCURVE",
"479 170 OFFCURVE",
"480 165 CURVE",
"480 158 OFFCURVE",
"480 151 OFFCURVE",
"478 145 CURVE",
"469 113 OFFCURVE",
"473 79 OFFCURVE",
"460 48 CURVE SMOOTH",
"458 41 OFFCURVE",
"456 34 OFFCURVE",
"456 28 CURVE SMOOTH",
"456 21 OFFCURVE",
"455 18 OFFCURVE",
"453 13 CURVE SMOOTH",
"450 8 OFFCURVE",
"446 3 OFFCURVE",
"441 0 CURVE SMOOTH",
"435 -5 OFFCURVE",
"426 -8 OFFCURVE",
"419 -5 CURVE",
"415 -5 OFFCURVE",
"411 -4 OFFCURVE",
"409 -3 CURVE SMOOTH",
"395 3 OFFCURVE",
"389 16 OFFCURVE",
"391 30 CURVE SMOOTH",
"404 90 OFFCURVE",
"408 173 OFFCURVE",
"413 251 CURVE SMOOTH",
"414 283 OFFCURVE",
"419 316 OFFCURVE",
"413 339 CURVE SMOOTH",
"409 353 OFFCURVE",
"395 363 OFFCURVE",
"381 361 CURVE SMOOTH",
"336 359 OFFCURVE",
"320 313 OFFCURVE",
"291 286 CURVE SMOOTH",
"285 281 OFFCURVE",
"281 275 OFFCURVE",
"278 269 CURVE",
"275 261 OFFCURVE",
"269 258 OFFCURVE",
"265 251 CURVE SMOOTH",
"263 245 OFFCURVE",
"258 239 OFFCURVE",
"253 235 CURVE SMOOTH",
"246 229 OFFCURVE",
"241 221 OFFCURVE",
"239 213 CURVE SMOOTH",
"236 208 OFFCURVE",
"234 203 OFFCURVE",
"230 198 CURVE SMOOTH",
"213 175 OFFCURVE",
"200 146 OFFCURVE",
"188 120 CURVE SMOOTH",
"185 115 OFFCURVE",
"183 111 OFFCURVE",
"180 109 CURVE SMOOTH",
"169 95 OFFCURVE",
"134 21 OFFCURVE",
"113 -21 CURVE SMOOTH",
"106 -34 OFFCURVE",
"91 -39 OFFCURVE",
"78 -31 CURVE",
"76 -31 OFFCURVE",
"75 -30 OFFCURVE",
"75 -30 CURVE",
"63 -21 OFFCURVE",
"58 -6 OFFCURVE",
"63 6 CURVE SMOOTH",
"86 71 OFFCURVE",
"120 130 OFFCURVE",
"139 183 CURVE SMOOTH",
"140 186 OFFCURVE",
"143 191 OFFCURVE",
"145 195 CURVE SMOOTH",
"198 271 OFFCURVE",
"236 361 OFFCURVE",
"320 406 CURVE SMOOTH",
"328 410 OFFCURVE",
"335 413 OFFCURVE",
"344 413 CURVE SMOOTH",
"394 414 OFFCURVE",
"439 400 OFFCURVE",
"468 370 CURVE SMOOTH",
"480 358 OFFCURVE",
"493 324 OFFCURVE",
"490 296 CURVE"
);
}
);
width = 586;
}
);
unicode = 00C2;
},
{
glyphname = Adieresis;
lastChange = "2020-11-04 22:34:44 +0000";
layers = (
{
layerId = master01;
paths = (
{
closed = 1;
nodes = (
"468 489 OFFCURVE",
"461 473 OFFCURVE",
"449 466 CURVE SMOOTH",
"426 456 OFFCURVE",
"400 463 OFFCURVE",
"393 498 CURVE SMOOTH",
"390 513 OFFCURVE",
"401 526 OFFCURVE",
"416 526 CURVE SMOOTH",
"433 526 OFFCURVE",
"451 516 OFFCURVE",
"459 503 CURVE SMOOTH"
);
},
{
closed = 1;
nodes = (
"354 488 OFFCURVE",
"350 483 OFFCURVE",
"346 479 CURVE SMOOTH",
"336 468 OFFCURVE",
"320 466 OFFCURVE",
"309 475 CURVE SMOOTH",
"295 486 OFFCURVE",
"286 506 OFFCURVE",
"290 523 CURVE SMOOTH",
"291 529 OFFCURVE",
"296 535 OFFCURVE",
"304 535 CURVE",
"310 536 OFFCURVE",
"316 535 OFFCURVE",
"321 531 CURVE SMOOTH",
"336 523 OFFCURVE",
"358 514 OFFCURVE",
"354 494 CURVE"
);
},
{
closed = 1;
nodes = (
"444 205 OFFCURVE",
"434 181 OFFCURVE",
"434 159 CURVE SMOOTH",
"434 150 OFFCURVE",
"433 143 OFFCURVE",
"429 135 CURVE SMOOTH",
"410 95 OFFCURVE",
"415 45 OFFCURVE",
"399 4 CURVE SMOOTH",
"394 -10 OFFCURVE",
"379 -15 OFFCURVE",
"366 -9 CURVE SMOOTH",
"354 -1 OFFCURVE",
"341 10 OFFCURVE",
"340 16 CURVE SMOOTH",
"336 30 OFFCURVE",
"348 46 OFFCURVE",
"350 60 CURVE SMOOTH",
"355 84 OFFCURVE",
"353 110 OFFCURVE",
"355 134 CURVE",
"355 144 OFFCURVE",
"346 153 OFFCURVE",
"335 150 CURVE",
"333 150 OFFCURVE",
"329 145 OFFCURVE",
"328 145 CURVE",
"305 144 OFFCURVE",
"291 159 OFFCURVE",
"278 165 CURVE",
"278 165 OFFCURVE",
"263 160 OFFCURVE",
"261 174 CURVE SMOOTH",
"260 186 OFFCURVE",
"286 196 OFFCURVE",
"299 198 CURVE SMOOTH",
"311 200 OFFCURVE",
"325 198 OFFCURVE",
"338 193 CURVE SMOOTH",
"348 189 OFFCURVE",
"359 195 OFFCURVE",
"360 206 CURVE SMOOTH",
"368 251 OFFCURVE",
"368 304 OFFCURVE",
"360 344 CURVE SMOOTH",
"358 356 OFFCURVE",
"341 361 OFFCURVE",
"333 351 CURVE SMOOTH",
"330 349 OFFCURVE",
"326 345 OFFCURVE",
"324 343 CURVE SMOOTH",
"316 338 OFFCURVE",
"310 339 OFFCURVE",
"305 333 CURVE SMOOTH",
"296 323 OFFCURVE",
"293 316 OFFCURVE",
"284 310 CURVE",
"283 309 OFFCURVE",
"279 308 OFFCURVE",
"278 305 CURVE SMOOTH",
"275 303 OFFCURVE",
"280 303 OFFCURVE",
"278 299 CURVE SMOOTH",
"273 293 OFFCURVE",
"261 286 OFFCURVE",
"255 279 CURVE SMOOTH",
"251 274 OFFCURVE",
"249 268 OFFCURVE",
"246 263 CURVE SMOOTH",
"243 256 OFFCURVE",
"239 250 OFFCURVE",
"233 245 CURVE",
"233 245 OFFCURVE",
"233 244 OFFCURVE",
"231 244 CURVE",
"230 240 OFFCURVE",
"228 236 OFFCURVE",
"224 233 CURVE SMOOTH",
"186 189 OFFCURVE",
"159 136 OFFCURVE",
"115 96 CURVE SMOOTH",
"109 90 OFFCURVE",
"104 83 OFFCURVE",
"100 74 CURVE",
"94 54 OFFCURVE",
"85 40 OFFCURVE",
"76 23 CURVE SMOOTH",
"71 13 OFFCURVE",
"58 19 OFFCURVE",
"60 29 CURVE SMOOTH",
"61 33 OFFCURVE",
"63 36 OFFCURVE",
"63 39 CURVE",
"66 55 OFFCURVE",
"69 74 OFFCURVE",
"71 85 CURVE SMOOTH",
"80 115 OFFCURVE",
"95 148 OFFCURVE",
"109 180 CURVE SMOOTH",
"128 228 OFFCURVE",
"158 273 OFFCURVE",
"183 314 CURVE SMOOTH",
"190 326 OFFCURVE",
"199 345 OFFCURVE",
"210 355 CURVE",
"211 358 OFFCURVE",
"218 356 OFFCURVE",
"220 359 CURVE SMOOTH",
"234 375 OFFCURVE",
"245 391 OFFCURVE",
"260 404 CURVE SMOOTH",
"266 410 OFFCURVE",
"275 414 OFFCURVE",
"284 416 CURVE SMOOTH",
"291 418 OFFCURVE",
"298 423 OFFCURVE",
"306 424 CURVE SMOOTH",
"329 426 OFFCURVE",
"354 418 OFFCURVE",
"375 411 CURVE SMOOTH",
"385 409 OFFCURVE",
"394 404 OFFCURVE",
"401 395 CURVE SMOOTH",
"436 358 OFFCURVE",
"454 294 OFFCURVE",
"448 231 CURVE"
);
}
);
width = 523;
}
);
unicode = 00C4;
},
{
glyphname = Agrave;
lastChange = "2020-11-04 22:34:44 +0000";
layers = (
{
layerId = master01;
paths = (
{
closed = 1;
nodes = (
"414 448 OFFCURVE",
"405 434 OFFCURVE",
"391 434 CURVE SMOOTH",
"361 434 OFFCURVE",
"329 455 OFFCURVE",
"314 476 CURVE SMOOTH",
"311 479 OFFCURVE",
"309 483 OFFCURVE",
"308 486 CURVE SMOOTH",
"301 498 OFFCURVE",
"311 511 OFFCURVE",
"324 509 CURVE SMOOTH",
"358 504 OFFCURVE",
"398 493 OFFCURVE",
"409 461 CURVE SMOOTH"
);
},
{
closed = 1;
nodes = (
"451 189 OFFCURVE",
"446 151 OFFCURVE",
"444 93 CURVE",
"444 91 OFFCURVE",
"444 91 OFFCURVE",
"443 90 CURVE",
"441 84 OFFCURVE",
"440 78 OFFCURVE",
"440 71 CURVE",
"441 55 OFFCURVE",
"433 36 OFFCURVE",
"429 20 CURVE SMOOTH",
"425 6 OFFCURVE",
"414 -4 OFFCURVE",
"400 -4 CURVE",
"391 -5 OFFCURVE",
"381 -4 OFFCURVE",
"373 -1 CURVE SMOOTH",
"360 1 OFFCURVE",
"351 14 OFFCURVE",
"351 26 CURVE",
"359 130 OFFCURVE",
"376 220 OFFCURVE",
"364 318 CURVE",
"364 321 OFFCURVE",
"360 325 OFFCURVE",
"355 325 CURVE SMOOTH",
"351 325 OFFCURVE",
"348 325 OFFCURVE",
"344 323 CURVE SMOOTH",
"320 309 OFFCURVE",
"294 299 OFFCURVE",
"280 273 CURVE SMOOTH",
"278 268 OFFCURVE",
"273 261 OFFCURVE",
"268 258 CURVE SMOOTH",
"248 240 OFFCURVE",
"236 213 OFFCURVE",
"213 195 CURVE",
"208 193 OFFCURVE",
"203 188 OFFCURVE",
"200 183 CURVE SMOOTH",
"198 178 OFFCURVE",
"195 173 OFFCURVE",
"191 169 CURVE SMOOTH",
"184 160 OFFCURVE",
"176 151 OFFCURVE",
"169 140 CURVE SMOOTH",
"164 133 OFFCURVE",
"161 125 OFFCURVE",
"160 115 CURVE SMOOTH",
"158 100 OFFCURVE",
"119 59 OFFCURVE",
"114 49 CURVE SMOOTH",
"109 40 OFFCURVE",
"106 30 OFFCURVE",
"104 23 CURVE SMOOTH",
"100 10 OFFCURVE",
"88 3 OFFCURVE",
"75 4 CURVE SMOOTH",
"64 5 OFFCURVE",
"56 18 OFFCURVE",
"63 29 CURVE SMOOTH",
"64 33 OFFCURVE",
"66 35 OFFCURVE",
"69 39 CURVE SMOOTH",
"71 43 OFFCURVE",
"74 48 OFFCURVE",
"75 54 CURVE SMOOTH",
"101 139 OFFCURVE",
"139 198 OFFCURVE",
"183 271 CURVE SMOOTH",
"186 276 OFFCURVE",
"190 281 OFFCURVE",
"195 286 CURVE",
"200 289 OFFCURVE",
"203 294 OFFCURVE",
"205 298 CURVE SMOOTH",
"225 333 OFFCURVE",
"264 363 OFFCURVE",
"291 379 CURVE SMOOTH",
"298 383 OFFCURVE",
"306 385 OFFCURVE",
"314 385 CURVE",
"324 386 OFFCURVE",
"331 390 OFFCURVE",
"344 390 CURVE",
"375 389 OFFCURVE",
"400 371 OFFCURVE",
"424 353 CURVE SMOOTH",
"433 346 OFFCURVE",
"440 336 OFFCURVE",
"443 325 CURVE SMOOTH",
"449 304 OFFCURVE",
"453 281 OFFCURVE",
"456 254 CURVE",
"458 250 OFFCURVE",
"458 245 OFFCURVE",
"458 240 CURVE"
);
},
{
closed = 1;
nodes = (
"331 133 OFFCURVE",
"326 116 OFFCURVE",
"313 110 CURVE",
"284 100 OFFCURVE",
"249 109 OFFCURVE",
"233 130 CURVE SMOOTH",
"225 140 OFFCURVE",
"230 154 OFFCURVE",
"243 155 CURVE SMOOTH",
"273 160 OFFCURVE",
"308 164 OFFCURVE",
"323 145 CURVE SMOOTH"
);
}
);
width = 518;
}
);
unicode = 00C0;
},
{
glyphname = Aring;
lastChange = "2020-11-04 22:34:44 +0000";
layers = (
{
layerId = master01;
paths = (
{
closed = 1;
nodes = (
"485 496 OFFCURVE",
"484 483 OFFCURVE",
"479 471 CURVE SMOOTH",
"478 469 OFFCURVE",
"478 466 OFFCURVE",
"475 464 CURVE SMOOTH",
"471 460 OFFCURVE",
"466 459 OFFCURVE",
"464 454 CURVE SMOOTH",
"459 446 OFFCURVE",
"455 443 OFFCURVE",
"446 438 CURVE SMOOTH",
"430 428 OFFCURVE",
"416 425 OFFCURVE",
"403 428 CURVE SMOOTH",
"391 429 OFFCURVE",
"381 434 OFFCURVE",
"371 441 CURVE SMOOTH",
"361 448 OFFCURVE",
"353 456 OFFCURVE",
"346 465 CURVE",
"343 473 OFFCURVE",
"331 491 OFFCURVE",
"334 500 CURVE SMOOTH",
"349 564 OFFCURVE",
"461 566 OFFCURVE",
"480 508 CURVE"
);
},
{
closed = 1;
nodes = (
"484 216 OFFCURVE",
"480 183 OFFCURVE",
"475 150 CURVE",
"475 146 OFFCURVE",
"474 141 OFFCURVE",
"471 138 CURVE",
"471 136 OFFCURVE",
"471 135 OFFCURVE",
"470 134 CURVE",
"468 129 OFFCURVE",
"466 123 OFFCURVE",
"465 118 CURVE SMOOTH",
"461 98 OFFCURVE",
"453 83 OFFCURVE",
"449 60 CURVE SMOOTH",
"448 53 OFFCURVE",
"444 45 OFFCURVE",
"439 38 CURVE SMOOTH",
"431 26 OFFCURVE",
"430 10 OFFCURVE",
"428 -5 CURVE SMOOTH",
"426 -15 OFFCURVE",
"416 -23 OFFCURVE",
"405 -20 CURVE SMOOTH",
"395 -18 OFFCURVE",
"386 -10 OFFCURVE",
"384 1 CURVE SMOOTH",
"379 30 OFFCURVE",
"391 61 OFFCURVE",
"394 103 CURVE SMOOTH",
"398 174 OFFCURVE",
"410 250 OFFCURVE",
"406 298 CURVE SMOOTH",
"405 313 OFFCURVE",
"403 328 OFFCURVE",
"391 333 CURVE SMOOTH",
"360 344 OFFCURVE",
"330 328 OFFCURVE",
"311 310 CURVE SMOOTH",
"306 306 OFFCURVE",
"304 301 OFFCURVE",
"300 298 CURVE SMOOTH",
"290 288 OFFCURVE",
"279 281 OFFCURVE",
"268 273 CURVE SMOOTH",
"251 260 OFFCURVE",
"233 236 OFFCURVE",
"218 213 CURVE SMOOTH",
"199 184 OFFCURVE",
"180 156 OFFCURVE",
"164 126 CURVE",
"156 110 OFFCURVE",
"150 103 OFFCURVE",
"141 91 CURVE SMOOTH",
"136 84 OFFCURVE",
"133 76 OFFCURVE",
"130 69 CURVE SMOOTH",
"129 64 OFFCURVE",
"126 60 OFFCURVE",
"124 56 CURVE SMOOTH",
"116 45 OFFCURVE",
"99 15 OFFCURVE",
"76 -3 CURVE SMOOTH",
"69 -9 OFFCURVE",
"59 -3 OFFCURVE",
"60 6 CURVE SMOOTH",
"73 71 OFFCURVE",
"104 125 OFFCURVE",
"131 180 CURVE SMOOTH",
"150 218 OFFCURVE",
"173 249 OFFCURVE",
"195 283 CURVE SMOOTH",
"203 294 OFFCURVE",
"206 309 OFFCURVE",
"214 320 CURVE SMOOTH",
"230 343 OFFCURVE",
"264 378 OFFCURVE",
"295 393 CURVE SMOOTH",
"303 396 OFFCURVE",
"311 399 OFFCURVE",
"319 399 CURVE",
"351 400 OFFCURVE",
"383 395 OFFCURVE",
"409 389 CURVE SMOOTH",
"418 386 OFFCURVE",
"425 383 OFFCURVE",
"431 378 CURVE SMOOTH",
"454 359 OFFCURVE",
"470 334 OFFCURVE",
"480 308 CURVE SMOOTH",
"484 300 OFFCURVE",
"485 293 OFFCURVE",
"485 285 CURVE SMOOTH",
"485 280 OFFCURVE",
"486 276 OFFCURVE",
"486 274 CURVE",
"489 266 OFFCURVE",
"490 258 OFFCURVE",
"489 250 CURVE SMOOTH"
);
},
{
closed = 1;
nodes = (
"339 120 OFFCURVE",
"335 116 OFFCURVE",
"330 115 CURVE SMOOTH",
"294 108 OFFCURVE",
"275 131 OFFCURVE",
"253 151 CURVE SMOOTH",
"249 154 OFFCURVE",
"249 159 OFFCURVE",
"250 163 CURVE SMOOTH",
"251 166 OFFCURVE",
"254 168 OFFCURVE",
"258 169 CURVE",
"289 173 OFFCURVE",
"326 166 OFFCURVE",
"340 136 CURVE SMOOTH",
"343 133 OFFCURVE",
"343 128 OFFCURVE",
"340 124 CURVE SMOOTH"
);
},
{
closed = 1;
nodes = (
"436 501 OFFCURVE",
"425 515 OFFCURVE",
"413 510 CURVE SMOOTH",
"401 506 OFFCURVE",
"393 499 OFFCURVE",
"389 490 CURVE SMOOTH",
"384 478 OFFCURVE",
"398 465 OFFCURVE",
"410 471 CURVE SMOOTH",
"418 476 OFFCURVE",
"425 483 OFFCURVE",
"430 490 CURVE SMOOTH"
);
}
);
width = 549;
}
);
unicode = 00C5;
},
{
glyphname = Atilde;
lastChange = "2020-11-04 22:34:44 +0000";
layers = (
{
layerId = master01;
paths = (
{
closed = 1;
nodes = (
"534 484 OFFCURVE",
"525 476 OFFCURVE",
"515 468 CURVE SMOOTH",
"506 460 OFFCURVE",
"495 456 OFFCURVE",
"483 455 CURVE",
"463 455 OFFCURVE",
"439 454 OFFCURVE",
"423 459 CURVE SMOOTH",
"405 464 OFFCURVE",
"396 479 OFFCURVE",
"381 490 CURVE SMOOTH",
"358 506 OFFCURVE",
"296 479 OFFCURVE",
"283 466 CURVE SMOOTH",
"275 460 OFFCURVE",
"266 454 OFFCURVE",
"260 445 CURVE SMOOTH",
"255 440 OFFCURVE",
"250 435 OFFCURVE",
"244 433 CURVE SMOOTH",
"240 430 OFFCURVE",
"236 429 OFFCURVE",
"234 426 CURVE SMOOTH",
"224 419 OFFCURVE",
"211 415 OFFCURVE",
"199 415 CURVE",
"191 416 OFFCURVE",
"185 415 OFFCURVE",
"179 414 CURVE SMOOTH",
"169 413 OFFCURVE",
"160 425 OFFCURVE",
"165 434 CURVE SMOOTH",
"191 481 OFFCURVE",
"226 525 OFFCURVE",
"284 539 CURVE SMOOTH",
"301 544 OFFCURVE",
"323 549 OFFCURVE",
"340 550 CURVE SMOOTH",
"375 551 OFFCURVE",
"403 541 OFFCURVE",
"429 519 CURVE SMOOTH",
"439 509 OFFCURVE",
"454 506 OFFCURVE",
"468 510 CURVE SMOOTH",
"484 515 OFFCURVE",
"499 523 OFFCURVE",
"513 524 CURVE SMOOTH",
"528 525 OFFCURVE",
"539 513 OFFCURVE",
"536 499 CURVE SMOOTH"
);
},
{
closed = 1;
nodes = (
"464 186 OFFCURVE",
"454 125 OFFCURVE",
"440 44 CURVE",
"438 35 OFFCURVE",
"433 28 OFFCURVE",
"425 25 CURVE",
"418 20 OFFCURVE",
"409 20 OFFCURVE",
"400 23 CURVE SMOOTH",
"395 25 OFFCURVE",
"390 26 OFFCURVE",
"385 29 CURVE SMOOTH",
"373 35 OFFCURVE",
"365 48 OFFCURVE",
"365 61 CURVE",
"370 141 OFFCURVE",
"393 251 OFFCURVE",
"378 343 CURVE SMOOTH",
"375 354 OFFCURVE",
"363 361 OFFCURVE",
"351 355 CURVE SMOOTH",
"335 348 OFFCURVE",
"319 335 OFFCURVE",
"306 324 CURVE SMOOTH",
"298 316 OFFCURVE",
"284 291 OFFCURVE",
"270 279 CURVE SMOOTH",
"265 274 OFFCURVE",
"256 274 OFFCURVE",
"251 269 CURVE SMOOTH",
"236 255 OFFCURVE",
"226 234 OFFCURVE",
"216 215 CURVE",
"215 210 OFFCURVE",
"211 205 OFFCURVE",
"208 201 CURVE SMOOTH",
"203 195 OFFCURVE",
"195 183 OFFCURVE",
"193 174 CURVE SMOOTH",
"191 166 OFFCURVE",
"189 159 OFFCURVE",
"184 153 CURVE SMOOTH",
"159 118 OFFCURVE",
"136 80 OFFCURVE",
"121 36 CURVE SMOOTH",
"120 34 OFFCURVE",
"119 30 OFFCURVE",
"116 28 CURVE SMOOTH",
"111 19 OFFCURVE",
"99 -4 OFFCURVE",
"83 -14 CURVE SMOOTH",
"71 -20 OFFCURVE",
"58 -10 OFFCURVE",
"61 3 CURVE SMOOTH",
"78 65 OFFCURVE",
"100 126 OFFCURVE",
"124 190 CURVE SMOOTH",
"125 193 OFFCURVE",
"126 195 OFFCURVE",
"128 199 CURVE",
"180 288 OFFCURVE",
"221 400 OFFCURVE",
"331 420 CURVE SMOOTH",
"336 421 OFFCURVE",
"340 423 OFFCURVE",
"344 424 CURVE SMOOTH",
"349 426 OFFCURVE",
"358 426 OFFCURVE",
"366 425 CURVE",
"376 425 OFFCURVE",
"385 423 OFFCURVE",
"393 418 CURVE",
"404 413 OFFCURVE",
"414 405 OFFCURVE",
"425 399 CURVE SMOOTH",
"434 394 OFFCURVE",
"443 385 OFFCURVE",
"448 376 CURVE SMOOTH",
"454 363 OFFCURVE",
"463 350 OFFCURVE",
"466 335 CURVE SMOOTH",
"470 315 OFFCURVE",
"464 294 OFFCURVE",
"468 275 CURVE SMOOTH",
"469 270 OFFCURVE",
"470 264 OFFCURVE",
"469 259 CURVE"
);
},
{
closed = 1;
nodes = (
"319 128 OFFCURVE",
"313 111 OFFCURVE",
"299 109 CURVE SMOOTH",
"280 105 OFFCURVE",
"258 115 OFFCURVE",
"240 125 CURVE SMOOTH",
"238 126 OFFCURVE",
"234 130 OFFCURVE",
"233 134 CURVE",
"233 136 OFFCURVE",
"231 138 OFFCURVE",
"229 139 CURVE",
"225 139 OFFCURVE",
"224 143 OFFCURVE",
"224 146 CURVE",
"226 150 OFFCURVE",
"229 154 OFFCURVE",
"234 154 CURVE",
"260 158 OFFCURVE",
"294 163 OFFCURVE",
"311 139 CURVE SMOOTH"
);
}
);
width = 598;
}
);
unicode = 00C3;
},
{
glyphname = AE;
lastChange = "2020-11-04 22:34:44 +0000";
layers = (
{
layerId = master01;
paths = (
{
closed = 1;
nodes = (
"746 471 OFFCURVE",
"744 451 OFFCURVE",
"730 445 CURVE SMOOTH",
"718 439 OFFCURVE",
"700 439 OFFCURVE",
"688 434 CURVE SMOOTH",
"680 430 OFFCURVE",
"671 429 OFFCURVE",
"664 430 CURVE",
"645 430 OFFCURVE",
"635 418 OFFCURVE",
"616 415 CURVE SMOOTH",
"606 414 OFFCURVE",
"598 410 OFFCURVE",
"590 405 CURVE SMOOTH",
"556 379 OFFCURVE",
"533 341 OFFCURVE",
"516 298 CURVE SMOOTH",
"513 288 OFFCURVE",
"521 278 OFFCURVE",
"531 279 CURVE SMOOTH",
"574 286 OFFCURVE",
"624 309 OFFCURVE",
"660 303 CURVE SMOOTH",
"674 300 OFFCURVE",
"684 288 OFFCURVE",
"683 274 CURVE",
"683 269 OFFCURVE",
"681 265 OFFCURVE",
"681 260 CURVE",
"680 246 OFFCURVE",
"671 234 OFFCURVE",
"659 228 CURVE SMOOTH",
"610 201 OFFCURVE",
"553 185 OFFCURVE",
"515 216 CURVE SMOOTH",
"508 223 OFFCURVE",
"496 219 OFFCURVE",
"494 210 CURVE",
"486 171 OFFCURVE",
"489 126 OFFCURVE",
"490 91 CURVE",
"490 88 OFFCURVE",
"493 86 OFFCURVE",
"495 85 CURVE SMOOTH",
"500 83 OFFCURVE",
"506 80 OFFCURVE",
"513 80 CURVE SMOOTH",
"565 81 OFFCURVE",
"610 81 OFFCURVE",
"658 85 CURVE",
"678 88 OFFCURVE",
"694 91 OFFCURVE",
"710 86 CURVE SMOOTH",
"721 83 OFFCURVE",
"729 74 OFFCURVE",
"731 61 CURVE SMOOTH",
"734 51 OFFCURVE",
"729 41 OFFCURVE",
"720 35 CURVE",
"720 34 OFFCURVE",
"719 34 OFFCURVE",
"719 34 CURVE",
"711 28 OFFCURVE",
"703 24 OFFCURVE",
"694 23 CURVE SMOOTH",
"616 9 OFFCURVE",
"513 -9 OFFCURVE",
"449 35 CURVE SMOOTH",
"445 38 OFFCURVE",
"441 40 OFFCURVE",
"439 44 CURVE SMOOTH",
"433 51 OFFCURVE",
"409 74 OFFCURVE",
"401 126 CURVE SMOOTH",
"399 139 OFFCURVE",
"389 148 OFFCURVE",
"376 146 CURVE",
"336 145 OFFCURVE",
"294 150 OFFCURVE",
"279 188 CURVE SMOOTH",
"275 195 OFFCURVE",
"265 196 OFFCURVE",
"260 190 CURVE",
"226 135 OFFCURVE",
"195 78 OFFCURVE",
"161 23 CURVE SMOOTH",
"154 10 OFFCURVE",
"141 3 OFFCURVE",
"128 1 CURVE SMOOTH",
"108 0 OFFCURVE",
"90 1 OFFCURVE",
"74 6 CURVE",
"63 11 OFFCURVE",
"56 25 OFFCURVE",
"61 36 CURVE SMOOTH",
"76 66 OFFCURVE",
"93 94 OFFCURVE",
"106 124 CURVE",
"108 129 OFFCURVE",
"110 131 OFFCURVE",
"113 135 CURVE SMOOTH",
"190 244 OFFCURVE",
"244 380 OFFCURVE",
"335 481 CURVE SMOOTH",
"345 491 OFFCURVE",
"359 496 OFFCURVE",
"374 494 CURVE SMOOTH",
"394 490 OFFCURVE",
"406 483 OFFCURVE",
"418 469 CURVE SMOOTH",
"426 459 OFFCURVE",
"428 444 OFFCURVE",
"420 431 CURVE SMOOTH",
"378 361 OFFCURVE",
"323 305 OFFCURVE",
"285 234 CURVE SMOOTH",
"281 225 OFFCURVE",
"288 215 OFFCURVE",
"298 215 CURVE",
"325 218 OFFCURVE",
"344 219 OFFCURVE",
"374 224 CURVE SMOOTH",
"386 225 OFFCURVE",
"396 236 OFFCURVE",
"398 249 CURVE SMOOTH",
"399 265 OFFCURVE",
"401 280 OFFCURVE",
"409 294 CURVE SMOOTH",
"411 299 OFFCURVE",
"413 304 OFFCURVE",
"414 308 CURVE SMOOTH",
"428 379 OFFCURVE",
"466 476 OFFCURVE",
"546 489 CURVE SMOOTH",
"559 491 OFFCURVE",
"574 490 OFFCURVE",
"583 495 CURVE SMOOTH",
"589 498 OFFCURVE",
"596 500 OFFCURVE",
"604 500 CURVE",
"638 503 OFFCURVE",
"661 506 OFFCURVE",
"698 499 CURVE",
"705 496 OFFCURVE",
"713 494 OFFCURVE",
"719 489 CURVE SMOOTH",
"724 485 OFFCURVE",
"729 484 OFFCURVE",
"734 480 CURVE SMOOTH"
);
}
);
width = 801;
}
);
unicode = 00C6;
},
{
glyphname = B;
lastChange = "2020-11-04 22:34:44 +0000";
layers = (
{
layerId = master01;
paths = (
{
closed = 1;
nodes = (
"445 338 OFFCURVE",
"445 324 OFFCURVE",
"440 316 CURVE SMOOTH",
"439 314 OFFCURVE",
"434 315 OFFCURVE",
"431 313 CURVE SMOOTH",
"423 301 OFFCURVE",
"418 283 OFFCURVE",
"413 275 CURVE SMOOTH",
"410 271 OFFCURVE",
"406 269 OFFCURVE",
"401 265 CURVE SMOOTH",
"391 258 OFFCURVE",
"389 243 OFFCURVE",
"396 233 CURVE SMOOTH",
"433 183 OFFCURVE",
"383 113 OFFCURVE",
"361 74 CURVE",
"360 73 OFFCURVE",
"360 73 OFFCURVE",
"359 71 CURVE",
"359 71 OFFCURVE",
"359 71 OFFCURVE",
"358 71 CURVE",
"355 71 OFFCURVE",
"353 69 OFFCURVE",
"351 66 CURVE SMOOTH",
"343 43 OFFCURVE",
"320 30 OFFCURVE",
"306 10 CURVE SMOOTH",
"301 4 OFFCURVE",
"295 -1 OFFCURVE",
"288 -5 CURVE SMOOTH",
"281 -9 OFFCURVE",
"278 -18 OFFCURVE",
"274 -19 CURVE SMOOTH",
"269 -20 OFFCURVE",
"268 -20 OFFCURVE",
"268 -20 CURVE",
"268 -20 OFFCURVE",
"268 -20 OFFCURVE",
"266 -21 CURVE",
"256 -31 OFFCURVE",
"244 -30 OFFCURVE",
"230 -29 CURVE",
"223 -29 OFFCURVE",
"214 -26 OFFCURVE",
"208 -23 CURVE",
"206 -21 OFFCURVE",
"204 -23 OFFCURVE",
"201 -23 CURVE",
"200 -24 OFFCURVE",
"199 -21 OFFCURVE",
"199 -20 CURVE",
"200 -19 OFFCURVE",
"199 -18 OFFCURVE",
"198 -18 CURVE",
"195 -19 OFFCURVE",
"194 -19 OFFCURVE",
"193 -18 CURVE",
"186 -14 OFFCURVE",
"184 -6 OFFCURVE",
"189 0 CURVE SMOOTH",
"240 65 OFFCURVE",
"311 111 OFFCURVE",
"334 205 CURVE SMOOTH",
"336 214 OFFCURVE",
"335 223 OFFCURVE",
"331 231 CURVE SMOOTH",
"330 234 OFFCURVE",
"330 235 OFFCURVE",
"328 236 CURVE",
"323 243 OFFCURVE",
"318 249 OFFCURVE",
"315 256 CURVE",
"314 258 OFFCURVE",
"314 260 OFFCURVE",
"313 261 CURVE",
"306 273 OFFCURVE",
"306 288 OFFCURVE",
"313 300 CURVE SMOOTH",
"328 328 OFFCURVE",
"349 351 OFFCURVE",
"360 380 CURVE SMOOTH",
"363 385 OFFCURVE",
"366 398 OFFCURVE",
"368 404 CURVE SMOOTH",
"379 474 OFFCURVE",
"283 474 OFFCURVE",
"249 513 CURVE SMOOTH",
"246 516 OFFCURVE",
"245 523 OFFCURVE",
"249 526 CURVE SMOOTH",
"253 531 OFFCURVE",
"259 534 OFFCURVE",
"264 534 CURVE SMOOTH",
"270 534 OFFCURVE",
"275 534 OFFCURVE",
"280 534 CURVE",
"290 536 OFFCURVE",
"300 535 OFFCURVE",
"309 530 CURVE",
"344 516 OFFCURVE",
"396 496 OFFCURVE",
"419 473 CURVE",
"421 471 OFFCURVE",
"423 469 OFFCURVE",
"424 466 CURVE",
"425 466 OFFCURVE",
"425 466 OFFCURVE",
"425 466 CURVE",
"434 461 OFFCURVE",
"443 454 OFFCURVE",
"448 445 CURVE SMOOTH",
"468 411 OFFCURVE",
"469 376 OFFCURVE",
"450 345 CURVE SMOOTH"
);
},
{
closed = 1;
nodes = (
"240 426 OFFCURVE",
"231 386 OFFCURVE",
"220 351 CURVE",
"200 283 OFFCURVE",
"185 155 OFFCURVE",
"160 98 CURVE SMOOTH",
"158 91 OFFCURVE",
"156 85 OFFCURVE",
"156 79 CURVE",
"155 56 OFFCURVE",
"148 41 OFFCURVE",
"146 19 CURVE",
"146 8 OFFCURVE",
"141 -3 OFFCURVE",
"135 -11 CURVE",
"130 -15 OFFCURVE",
"126 -19 OFFCURVE",
"119 -20 CURVE SMOOTH",
"109 -21 OFFCURVE",
"101 -15 OFFCURVE",
"94 -13 CURVE SMOOTH",
"86 -9 OFFCURVE",
"80 -5 OFFCURVE",
"75 0 CURVE SMOOTH",
"73 1 OFFCURVE",
"71 3 OFFCURVE",
"70 4 CURVE",
"63 9 OFFCURVE",
"59 16 OFFCURVE",
"61 25 CURVE SMOOTH",
"63 29 OFFCURVE",
"63 34 OFFCURVE",
"63 38 CURVE",
"63 38 OFFCURVE",
"63 39 OFFCURVE",
"63 39 CURVE",
"93 166 OFFCURVE",
"124 384 OFFCURVE",
"175 500 CURVE SMOOTH",
"180 513 OFFCURVE",
"196 518 OFFCURVE",
"209 510 CURVE SMOOTH",
"213 508 OFFCURVE",
"215 505 OFFCURVE",
"219 503 CURVE SMOOTH",
"225 499 OFFCURVE",
"230 494 OFFCURVE",
"234 488 CURVE SMOOTH",
"240 480 OFFCURVE",
"243 470 OFFCURVE",
"243 459 CURVE"
);
}
);
width = 524;
}
);
unicode = 0042;
},
{
glyphname = C;
lastChange = "2020-11-04 22:34:44 +0000";
layers = (
{
layerId = master01;
paths = (
{
closed = 1;
nodes = (
"499 436 OFFCURVE",
"488 420 OFFCURVE",
"474 421 CURVE",
"461 424 OFFCURVE",
"446 431 OFFCURVE",
"434 434 CURVE SMOOTH",
"415 438 OFFCURVE",
"389 439 OFFCURVE",
"370 436 CURVE SMOOTH",
"355 434 OFFCURVE",
"340 421 OFFCURVE",
"324 415 CURVE SMOOTH",
"320 414 OFFCURVE",
"315 416 OFFCURVE",
"311 415 CURVE",
"306 411 OFFCURVE",
"303 404 OFFCURVE",
"298 401 CURVE SMOOTH",
"290 398 OFFCURVE",
"280 398 OFFCURVE",
"274 394 CURVE SMOOTH",
"264 388 OFFCURVE",
"258 375 OFFCURVE",
"244 369 CURVE SMOOTH",
"238 365 OFFCURVE",
"233 361 OFFCURVE",
"228 356 CURVE SMOOTH",
"185 308 OFFCURVE",
"156 251 OFFCURVE",
"143 183 CURVE SMOOTH",
"141 176 OFFCURVE",
"141 169 OFFCURVE",
"143 161 CURVE SMOOTH",
"145 151 OFFCURVE",
"141 141 OFFCURVE",
"143 131 CURVE SMOOTH",
"148 101 OFFCURVE",
"183 75 OFFCURVE",
"204 69 CURVE",
"254 51 OFFCURVE",
"309 83 OFFCURVE",
"353 88 CURVE SMOOTH",
"365 89 OFFCURVE",
"378 79 OFFCURVE",
"380 66 CURVE",
"380 65 OFFCURVE",
"380 64 OFFCURVE",
"381 63 CURVE",
"385 50 OFFCURVE",
"383 38 OFFCURVE",
"375 28 CURVE SMOOTH",
"369 20 OFFCURVE",
"360 15 OFFCURVE",
"351 11 CURVE SMOOTH",
"306 -8 OFFCURVE",
"253 -14 OFFCURVE",
"204 -5 CURVE SMOOTH",
"149 6 OFFCURVE",
"113 28 OFFCURVE",
"89 76 CURVE SMOOTH",
"85 84 OFFCURVE",
"80 93 OFFCURVE",
"78 101 CURVE SMOOTH",
"74 110 OFFCURVE",
"68 130 OFFCURVE",
"66 139 CURVE",
"51 199 OFFCURVE",
"64 261 OFFCURVE",
"83 313 CURVE SMOOTH",
"100 361 OFFCURVE",
"128 409 OFFCURVE",
"166 444 CURVE SMOOTH",
"170 448 OFFCURVE",
"175 451 OFFCURVE",
"180 454 CURVE SMOOTH",
"221 474 OFFCURVE",
"265 514 OFFCURVE",
"314 521 CURVE SMOOTH",
"380 530 OFFCURVE",
"428 503 OFFCURVE",
"471 473 CURVE SMOOTH",
"480 468 OFFCURVE",
"486 460 OFFCURVE",
"490 451 CURVE",
"491 450 OFFCURVE",
"491 450 OFFCURVE",
"491 449 CURVE"
);
}
);
width = 554;
}
);
unicode = 0043;
},
{
glyphname = Ccedilla;
lastChange = "2020-11-04 22:34:44 +0000";
layers = (
{
layerId = master01;
paths = (
{
closed = 1;
nodes = (
"418 369 OFFCURVE",
"413 368 OFFCURVE",
"406 369 CURVE",
"374 370 OFFCURVE",
"359 410 OFFCURVE",
"340 429 CURVE SMOOTH",
"318 451 OFFCURVE",
"286 449 OFFCURVE",
"256 448 CURVE SMOOTH",
"226 445 OFFCURVE",
"225 441 OFFCURVE",
"204 420 CURVE SMOOTH",
"188 403 OFFCURVE",
"185 376 OFFCURVE",
"171 360 CURVE SMOOTH",
"154 338 OFFCURVE",
"158 293 OFFCURVE",
"151 268 CURVE SMOOTH",
"149 256 OFFCURVE",
"148 246 OFFCURVE",
"146 239 CURVE",
"144 169 OFFCURVE",
"179 119 OFFCURVE",
"250 131 CURVE SMOOTH",
"265 134 OFFCURVE",
"286 148 OFFCURVE",
"304 159 CURVE SMOOTH",
"326 174 OFFCURVE",
"344 186 OFFCURVE",
"364 199 CURVE SMOOTH",
"374 205 OFFCURVE",
"385 200 OFFCURVE",
"389 190 CURVE SMOOTH",
"390 188 OFFCURVE",
"391 186 OFFCURVE",
"391 185 CURVE",
"399 174 OFFCURVE",
"401 160 OFFCURVE",
"399 148 CURVE SMOOTH",
"398 140 OFFCURVE",
"395 133 OFFCURVE",
"390 126 CURVE SMOOTH",
"381 113 OFFCURVE",
"374 99 OFFCURVE",
"356 90 CURVE SMOOTH",
"351 88 OFFCURVE",
"348 84 OFFCURVE",
"344 80 CURVE SMOOTH",
"334 70 OFFCURVE",
"320 65 OFFCURVE",
"304 61 CURVE SMOOTH",
"291 59 OFFCURVE",
"284 49 OFFCURVE",
"284 38 CURVE",
"284 35 OFFCURVE",
"284 33 OFFCURVE",
"283 31 CURVE",
"283 20 OFFCURVE",
"289 9 OFFCURVE",
"299 4 CURVE SMOOTH",
"334 -11 OFFCURVE",
"373 -35 OFFCURVE",
"368 -79 CURVE SMOOTH",
"360 -140 OFFCURVE",
"283 -191 OFFCURVE",
"225 -151 CURVE SMOOTH",
"221 -149 OFFCURVE",
"218 -146 OFFCURVE",
"213 -145 CURVE",
"211 -145 OFFCURVE",
"210 -144 OFFCURVE",
"210 -144 CURVE",
"206 -141 OFFCURVE",
"203 -140 OFFCURVE",
"198 -139 CURVE SMOOTH",
"193 -138 OFFCURVE",
"189 -134 OFFCURVE",
"185 -129 CURVE SMOOTH",
"178 -121 OFFCURVE",
"180 -108 OFFCURVE",
"191 -104 CURVE SMOOTH",
"221 -93 OFFCURVE",
"260 -96 OFFCURVE",
"278 -70 CURVE SMOOTH",
"285 -59 OFFCURVE",
"276 -44 OFFCURVE",
"264 -44 CURVE SMOOTH",
"258 -44 OFFCURVE",
"251 -45 OFFCURVE",
"246 -48 CURVE SMOOTH",
"238 -53 OFFCURVE",
"226 -53 OFFCURVE",
"216 -50 CURVE",
"208 -46 OFFCURVE",
"199 -40 OFFCURVE",
"194 -31 CURVE SMOOTH",
"185 -18 OFFCURVE",
"169 -9 OFFCURVE",
"164 3 CURVE SMOOTH",
"163 6 OFFCURVE",
"166 10 OFFCURVE",
"170 8 CURVE SMOOTH",
"173 6 OFFCURVE",
"175 8 OFFCURVE",
"176 10 CURVE",
"179 25 OFFCURVE",
"183 35 OFFCURVE",
"186 48 CURVE SMOOTH",
"189 60 OFFCURVE",
"184 73 OFFCURVE",
"173 79 CURVE SMOOTH",
"91 124 OFFCURVE",
"41 216 OFFCURVE",
"66 328 CURVE SMOOTH",
"81 390 OFFCURVE",
"118 460 OFFCURVE",
"164 493 CURVE",
"184 505 OFFCURVE",
"203 523 OFFCURVE",
"236 524 CURVE SMOOTH",
"290 526 OFFCURVE",
"328 518 OFFCURVE",
"373 498 CURVE SMOOTH",
"401 484 OFFCURVE",
"450 394 OFFCURVE",
"421 373 CURVE SMOOTH"
);
}
);
width = 490;
}
);
unicode = 00C7;
},
{
glyphname = D;
lastChange = "2020-11-04 22:34:44 +0000";
layers = (
{
layerId = master01;
paths = (
{
closed = 1;
nodes = (
"489 219 OFFCURVE",
"476 185 OFFCURVE",
"448 155 CURVE SMOOTH",
"438 144 OFFCURVE",
"424 116 OFFCURVE",
"409 99 CURVE SMOOTH",
"405 94 OFFCURVE",
"396 91 OFFCURVE",
"391 86 CURVE SMOOTH",
"381 73 OFFCURVE",
"365 60 OFFCURVE",
"349 45 CURVE SMOOTH",
"346 43 OFFCURVE",
"341 44 OFFCURVE",
"339 43 CURVE SMOOTH",
"319 29 OFFCURVE",
"296 6 OFFCURVE",
"283 -1 CURVE SMOOTH",
"275 -6 OFFCURVE",
"266 -5 OFFCURVE",
"258 -9 CURVE SMOOTH",
"244 -14 OFFCURVE",
"229 -11 OFFCURVE",
"220 -1 CURVE SMOOTH",
"216 3 OFFCURVE",
"213 6 OFFCURVE",
"210 10 CURVE SMOOTH",
"201 21 OFFCURVE",
"203 36 OFFCURVE",
"211 46 CURVE",
"225 59 OFFCURVE",
"244 73 OFFCURVE",
"253 80 CURVE SMOOTH",
"269 93 OFFCURVE",
"279 96 OFFCURVE",
"296 114 CURVE SMOOTH",
"340 156 OFFCURVE",
"368 171 OFFCURVE",
"395 231 CURVE SMOOTH",
"413 268 OFFCURVE",
"431 334 OFFCURVE",
"386 390 CURVE",
"345 459 OFFCURVE",
"273 456 OFFCURVE",
"239 481 CURVE SMOOTH",
"228 489 OFFCURVE",
"231 506 OFFCURVE",
"244 509 CURVE",
"270 516 OFFCURVE",
"323 515 OFFCURVE",
"391 494 CURVE",
"419 484 OFFCURVE",
"421 479 OFFCURVE",
"443 460 CURVE SMOOTH",
"451 453 OFFCURVE",
"455 445 OFFCURVE",
"463 438 CURVE SMOOTH",
"466 434 OFFCURVE",
"475 420 OFFCURVE",
"479 418 CURVE",
"516 373 OFFCURVE",
"518 305 OFFCURVE",
"501 255 CURVE SMOOTH"
);
},
{
closed = 1;
nodes = (
"213 430 OFFCURVE",
"213 421 OFFCURVE",
"211 414 CURVE SMOOTH",
"179 274 OFFCURVE",
"158 135 OFFCURVE",
"131 6 CURVE",
"128 -8 OFFCURVE",
"114 -15 OFFCURVE",
"101 -10 CURVE",
"99 -10 OFFCURVE",
"96 -9 OFFCURVE",
"94 -8 CURVE SMOOTH",
"81 -3 OFFCURVE",
"71 8 OFFCURVE",
"65 20 CURVE",
"63 28 OFFCURVE",
"59 36 OFFCURVE",
"60 45 CURVE SMOOTH",
"66 88 OFFCURVE",
"76 134 OFFCURVE",
"86 176 CURVE SMOOTH",
"104 254 OFFCURVE",
"121 353 OFFCURVE",
"135 419 CURVE",
"138 435 OFFCURVE",
"138 455 OFFCURVE",
"141 470 CURVE SMOOTH",
"145 484 OFFCURVE",
"160 491 OFFCURVE",
"173 484 CURVE",
"174 484 OFFCURVE",
"176 483 OFFCURVE",
"178 481 CURVE",
"186 479 OFFCURVE",
"195 473 OFFCURVE",
"200 465 CURVE SMOOTH",
"206 458 OFFCURVE",
"210 448 OFFCURVE",
"211 438 CURVE SMOOTH"
);
}
);
width = 571;
}
);
unicode = 0044;
},
{
glyphname = Eth;
lastChange = "2020-11-04 22:34:44 +0000";
layers = (
{
layerId = master01;
paths = (
{
closed = 1;
nodes = (
"510 278 OFFCURVE",
"504 264 OFFCURVE",
"500 245 CURVE SMOOTH",
"491 204 OFFCURVE",
"490 151 OFFCURVE",
"468 126 CURVE SMOOTH",
"463 121 OFFCURVE",
"428 61 OFFCURVE",
"404 44 CURVE SMOOTH",
"390 33 OFFCURVE",
"333 13 OFFCURVE",
"303 14 CURVE",
"296 15 OFFCURVE",
"291 14 OFFCURVE",
"285 13 CURVE SMOOTH",
"259 6 OFFCURVE",
"180 15 OFFCURVE",
"141 26 CURVE SMOOTH",
"128 30 OFFCURVE",
"116 41 OFFCURVE",
"114 55 CURVE SMOOTH",
"104 100 OFFCURVE",
"123 149 OFFCURVE",
"126 198 CURVE",
"129 210 OFFCURVE",
"121 224 OFFCURVE",
"109 230 CURVE SMOOTH",
"94 238 OFFCURVE",
"80 246 OFFCURVE",
"68 258 CURVE SMOOTH",
"58 266 OFFCURVE",
"59 283 OFFCURVE",
"70 289 CURVE SMOOTH",
"85 298 OFFCURVE",
"105 299 OFFCURVE",
"125 304 CURVE SMOOTH",
"139 306 OFFCURVE",
"149 318 OFFCURVE",
"150 331 CURVE",
"158 378 OFFCURVE",
"166 423 OFFCURVE",
"168 474 CURVE SMOOTH",
"168 486 OFFCURVE",
"179 496 OFFCURVE",
"191 496 CURVE",
"213 495 OFFCURVE",
"233 486 OFFCURVE",
"246 471 CURVE SMOOTH",
"255 461 OFFCURVE",
"260 446 OFFCURVE",
"260 433 CURVE",
"258 400 OFFCURVE",
"259 375 OFFCURVE",
"255 344 CURVE SMOOTH",
"254 330 OFFCURVE",
"258 318 OFFCURVE",
"265 306 CURVE SMOOTH",
"268 304 OFFCURVE",
"270 300 OFFCURVE",
"274 299 CURVE SMOOTH",
"286 293 OFFCURVE",
"290 276 OFFCURVE",
"281 265 CURVE SMOOTH",
"274 255 OFFCURVE",
"260 248 OFFCURVE",
"246 241 CURVE SMOOTH",
"234 236 OFFCURVE",
"225 225 OFFCURVE",
"224 211 CURVE SMOOTH",
"216 159 OFFCURVE",
"209 116 OFFCURVE",
"198 54 CURVE",
"198 50 OFFCURVE",
"200 46 OFFCURVE",
"204 44 CURVE",
"204 44 OFFCURVE",
"205 44 OFFCURVE",
"206 44 CURVE",
"213 50 OFFCURVE",
"219 54 OFFCURVE",
"228 56 CURVE SMOOTH",
"294 76 OFFCURVE",
"360 118 OFFCURVE",
"394 184 CURVE SMOOTH",
"411 219 OFFCURVE",
"423 283 OFFCURVE",
"429 329 CURVE SMOOTH",
"431 353 OFFCURVE",
"421 376 OFFCURVE",
"413 399 CURVE SMOOTH",
"408 411 OFFCURVE",
"398 423 OFFCURVE",
"384 428 CURVE",
"346 445 OFFCURVE",
"303 453 OFFCURVE",
"294 493 CURVE SMOOTH",
"291 504 OFFCURVE",
"301 515 OFFCURVE",
"314 513 CURVE",
"365 506 OFFCURVE",
"419 503 OFFCURVE",
"455 476 CURVE SMOOTH",
"463 471 OFFCURVE",
"480 449 OFFCURVE",
"490 429 CURVE SMOOTH",
"510 389 OFFCURVE",
"516 339 OFFCURVE",
"513 294 CURVE"
);
}
);
width = 574;
}
);
unicode = 00D0;
},
{
glyphname = E;
lastChange = "2020-11-04 22:34:44 +0000";
layers = (
{
layerId = master01;
paths = (
{
closed = 1;
nodes = (
"458 420 OFFCURVE",
"391 425 OFFCURVE",
"351 420 CURVE SMOOTH",
"326 418 OFFCURVE",
"299 410 OFFCURVE",
"276 406 CURVE",
"261 403 OFFCURVE",
"253 408 OFFCURVE",
"241 409 CURVE SMOOTH",
"234 410 OFFCURVE",
"228 413 OFFCURVE",
"221 415 CURVE",
"216 419 OFFCURVE",
"208 419 OFFCURVE",
"204 423 CURVE SMOOTH",
"200 426 OFFCURVE",
"196 428 OFFCURVE",
"191 426 CURVE SMOOTH",
"186 425 OFFCURVE",
"181 426 OFFCURVE",
"179 431 CURVE SMOOTH",
"174 440 OFFCURVE",
"175 450 OFFCURVE",
"183 459 CURVE SMOOTH",
"214 493 OFFCURVE",
"266 503 OFFCURVE",
"328 509 CURVE",
"365 514 OFFCURVE",
"406 511 OFFCURVE",
"430 498 CURVE",
"439 494 OFFCURVE",
"441 485 OFFCURVE",
"448 480 CURVE SMOOTH",
"455 475 OFFCURVE",
"459 466 OFFCURVE",
"459 458 CURVE"
);
},
{
closed = 1;
nodes = (
"309 214 OFFCURVE",
"308 210 OFFCURVE",
"308 208 CURVE",
"305 191 OFFCURVE",
"289 179 OFFCURVE",
"273 181 CURVE",
"245 184 OFFCURVE",
"225 205 OFFCURVE",
"216 229 CURVE SMOOTH",
"211 244 OFFCURVE",
"219 260 OFFCURVE",
"234 266 CURVE SMOOTH",
"241 270 OFFCURVE",
"249 273 OFFCURVE",
"255 276 CURVE SMOOTH",
"270 284 OFFCURVE",
"288 280 OFFCURVE",
"295 266 CURVE",
"296 265 OFFCURVE",
"298 264 OFFCURVE",
"299 261 CURVE SMOOTH",
"308 249 OFFCURVE",
"311 234 OFFCURVE",
"309 218 CURVE"
);
},
{
closed = 1;
nodes = (
"290 26 OFFCURVE",
"285 16 OFFCURVE",
"276 13 CURVE SMOOTH",
"210 -19 OFFCURVE",
"93 -19 OFFCURVE",
"60 43 CURVE SMOOTH",
"28 101 OFFCURVE",
"65 205 OFFCURVE",
"86 270 CURVE SMOOTH",
"99 306 OFFCURVE",
"111 363 OFFCURVE",
"128 396 CURVE SMOOTH",
"133 409 OFFCURVE",
"148 413 OFFCURVE",
"156 405 CURVE SMOOTH",
"163 400 OFFCURVE",
"168 395 OFFCURVE",
"173 390 CURVE SMOOTH",
"181 379 OFFCURVE",
"185 366 OFFCURVE",
"184 353 CURVE SMOOTH",
"176 269 OFFCURVE",
"131 159 OFFCURVE",
"124 81 CURVE SMOOTH",
"123 69 OFFCURVE",
"133 58 OFFCURVE",
"145 59 CURVE SMOOTH",
"179 60 OFFCURVE",
"214 80 OFFCURVE",
"241 75 CURVE SMOOTH",
"255 73 OFFCURVE",
"260 60 OFFCURVE",
"271 54 CURVE SMOOTH",
"279 49 OFFCURVE",
"284 43 OFFCURVE",
"286 35 CURVE SMOOTH"
);
}
);
width = 500;
}
);
unicode = 0045;
},
{
glyphname = Eacute;
lastChange = "2020-11-04 22:34:44 +0000";
layers = (
{
layerId = master01;
paths = (
{
closed = 1;
nodes = (
"281 525 OFFCURVE",
"281 509 OFFCURVE",
"271 499 CURVE SMOOTH",
"269 496 OFFCURVE",
"266 494 OFFCURVE",
"264 493 CURVE SMOOTH",
"254 483 OFFCURVE",
"240 478 OFFCURVE",
"226 476 CURVE",
"221 476 OFFCURVE",
"215 476 OFFCURVE",
"209 476 CURVE",
"195 479 OFFCURVE",
"185 491 OFFCURVE",
"188 506 CURVE SMOOTH",
"193 528 OFFCURVE",
"208 543 OFFCURVE",
"220 558 CURVE SMOOTH",
"224 561 OFFCURVE",
"230 564 OFFCURVE",
"235 563 CURVE",
"240 563 OFFCURVE",
"245 560 OFFCURVE",
"248 556 CURVE",
"256 549 OFFCURVE",
"265 543 OFFCURVE",
"273 535 CURVE SMOOTH"
);
},
{
closed = 1;
nodes = (
"329 403 OFFCURVE",
"324 389 OFFCURVE",
"313 384 CURVE SMOOTH",
"289 373 OFFCURVE",
"261 370 OFFCURVE",
"238 360 CURVE SMOOTH",
"213 350 OFFCURVE",
"199 330 OFFCURVE",
"183 311 CURVE",
"179 305 OFFCURVE",
"175 299 OFFCURVE",
"173 291 CURVE SMOOTH",
"166 271 OFFCURVE",
"160 244 OFFCURVE",
"141 180 CURVE SMOOTH",
"140 175 OFFCURVE",
"140 169 OFFCURVE",
"140 164 CURVE",
"141 129 OFFCURVE",
"124 104 OFFCURVE",
"129 68 CURVE SMOOTH",
"130 54 OFFCURVE",
"141 44 OFFCURVE",
"155 44 CURVE",
"199 43 OFFCURVE",
"250 59 OFFCURVE",
"280 30 CURVE SMOOTH",
"285 25 OFFCURVE",
"285 15 OFFCURVE",
"280 10 CURVE SMOOTH",
"275 5 OFFCURVE",
"270 3 OFFCURVE",
"264 1 CURVE SMOOTH",
"248 -1 OFFCURVE",
"234 -11 OFFCURVE",
"214 -14 CURVE SMOOTH",
"170 -18 OFFCURVE",
"123 -4 OFFCURVE",
"93 16 CURVE SMOOTH",
"83 23 OFFCURVE",
"76 33 OFFCURVE",
"71 44 CURVE",
"50 103 OFFCURVE",
"68 165 OFFCURVE",
"83 233 CURVE SMOOTH",
"89 264 OFFCURVE",
"103 294 OFFCURVE",
"108 321 CURVE SMOOTH",
"110 334 OFFCURVE",
"115 341 OFFCURVE",
"118 351 CURVE SMOOTH",
"120 359 OFFCURVE",
"124 366 OFFCURVE",
"129 373 CURVE SMOOTH",
"165 415 OFFCURVE",
"225 439 OFFCURVE",
"289 434 CURVE SMOOTH",
"303 433 OFFCURVE",
"314 425 OFFCURVE",
"321 414 CURVE SMOOTH"
);
},
{
closed = 1;
nodes = (
"235 146 OFFCURVE",
"184 159 OFFCURVE",
"168 190 CURVE SMOOTH",
"163 200 OFFCURVE",
"169 213 OFFCURVE",
"181 214 CURVE",
"190 214 OFFCURVE",
"201 216 OFFCURVE",
"211 218 CURVE",
"225 221 OFFCURVE",
"240 218 OFFCURVE",
"251 210 CURVE",
"253 209 LINE",
"265 200 OFFCURVE",
"266 183 OFFCURVE",
"258 173 CURVE SMOOTH"
);
}
);
width = 386;
}
);
unicode = 00C9;
},
{
glyphname = Ecircumflex;
lastChange = "2020-11-04 22:34:44 +0000";
layers = (
{
layerId = master01;
paths = (
{
closed = 1;
nodes = (
"323 484 OFFCURVE",
"321 475 OFFCURVE",
"314 470 CURVE SMOOTH",
"306 466 OFFCURVE",
"298 466 OFFCURVE",
"290 471 CURVE SMOOTH",
"285 474 OFFCURVE",
"281 478 OFFCURVE",
"278 480 CURVE SMOOTH",
"266 490 OFFCURVE",
"251 490 OFFCURVE",
"240 481 CURVE SMOOTH",
"226 473 OFFCURVE",
"214 459 OFFCURVE",
"199 450 CURVE SMOOTH",
"186 443 OFFCURVE",
"171 443 OFFCURVE",
"158 450 CURVE SMOOTH",
"148 455 OFFCURVE",
"145 468 OFFCURVE",
"153 478 CURVE SMOOTH",
"165 493 OFFCURVE",
"183 505 OFFCURVE",
"198 520 CURVE SMOOTH",
"205 529 OFFCURVE",
"216 534 OFFCURVE",
"228 536 CURVE",
"230 536 OFFCURVE",
"233 536 OFFCURVE",
"236 536 CURVE",
"250 538 OFFCURVE",
"265 533 OFFCURVE",
"275 523 CURVE SMOOTH",
"288 510 OFFCURVE",
"308 504 OFFCURVE",
"318 490 CURVE SMOOTH"
);
},
{
closed = 1;
nodes = (
"289 176 OFFCURVE",
"281 164 OFFCURVE",
"270 158 CURVE SMOOTH",
"244 144 OFFCURVE",
"206 156 OFFCURVE",
"188 178 CURVE SMOOTH",
"183 183 OFFCURVE",
"183 191 OFFCURVE",
"188 196 CURVE SMOOTH",
"191 200 OFFCURVE",
"195 203 OFFCURVE",
"200 205 CURVE SMOOTH",
"226 214 OFFCURVE",
"261 234 OFFCURVE",
"276 203 CURVE",
"278 201 OFFCURVE",
"280 199 OFFCURVE",
"283 199 CURVE",
"284 199 OFFCURVE",
"286 198 OFFCURVE",
"286 195 CURVE",
"286 194 OFFCURVE",
"286 191 OFFCURVE",
"286 190 CURVE"
);
},
{
closed = 1;
nodes = (
"314 343 OFFCURVE",
"279 349 OFFCURVE",
"258 339 CURVE",
"255 336 OFFCURVE",
"251 335 OFFCURVE",
"248 335 CURVE SMOOTH",
"241 335 OFFCURVE",
"236 333 OFFCURVE",
"231 330 CURVE SMOOTH",
"226 329 OFFCURVE",
"221 326 OFFCURVE",
"216 325 CURVE SMOOTH",
"203 320 OFFCURVE",
"193 309 OFFCURVE",
"186 295 CURVE SMOOTH",
"173 260 OFFCURVE",
"163 223 OFFCURVE",
"155 185 CURVE",
"155 183 OFFCURVE",
"154 179 OFFCURVE",
"154 176 CURVE",
"154 176 OFFCURVE",
"154 175 OFFCURVE",
"154 175 CURVE",
"150 169 OFFCURVE",
"148 161 OFFCURVE",
"146 154 CURVE SMOOTH",
"144 129 OFFCURVE",
"138 98 OFFCURVE",
"144 71 CURVE SMOOTH",
"146 59 OFFCURVE",
"159 50 OFFCURVE",
"173 51 CURVE",
"210 58 OFFCURVE",
"244 59 OFFCURVE",
"276 63 CURVE SMOOTH",
"283 64 OFFCURVE",
"290 63 OFFCURVE",
"296 61 CURVE SMOOTH",
"306 58 OFFCURVE",
"314 53 OFFCURVE",
"319 45 CURVE SMOOTH",
"328 34 OFFCURVE",
"324 18 OFFCURVE",
"311 11 CURVE SMOOTH",
"289 0 OFFCURVE",
"254 0 OFFCURVE",
"226 -5 CURVE SMOOTH",
"180 -14 OFFCURVE",
"144 -11 OFFCURVE",
"109 9 CURVE SMOOTH",
"101 14 OFFCURVE",
"94 20 OFFCURVE",
"89 29 CURVE",
"89 29 OFFCURVE",
"88 30 OFFCURVE",
"86 31 CURVE",
"83 36 OFFCURVE",
"79 43 OFFCURVE",
"76 49 CURVE SMOOTH",
"75 51 OFFCURVE",
"74 53 OFFCURVE",
"73 54 CURVE",
"66 63 OFFCURVE",
"61 74 OFFCURVE",
"61 85 CURVE",
"54 181 OFFCURVE",
"85 285 OFFCURVE",
"128 366 CURVE SMOOTH",
"134 378 OFFCURVE",
"144 386 OFFCURVE",
"155 391 CURVE SMOOTH",
"173 399 OFFCURVE",
"188 404 OFFCURVE",
"208 408 CURVE",
"211 408 OFFCURVE",
"215 409 OFFCURVE",
"218 410 CURVE SMOOTH",
"250 423 OFFCURVE",
"294 415 OFFCURVE",
"324 406 CURVE SMOOTH",
"348 399 OFFCURVE",
"370 363 OFFCURVE",
"334 350 CURVE SMOOTH"
);
}
);
width = 413;
}
);
unicode = 00CA;
},
{
glyphname = Edieresis;
lastChange = "2020-11-04 22:34:44 +0000";
layers = (
{
layerId = master01;
paths = (
{
closed = 1;
nodes = (
"350 481 OFFCURVE",
"343 476 OFFCURVE",
"334 476 CURVE",
"318 475 OFFCURVE",
"309 479 OFFCURVE",
"298 484 CURVE SMOOTH",
"286 490 OFFCURVE",
"280 503 OFFCURVE",
"284 516 CURVE SMOOTH",
"285 520 OFFCURVE",
"286 524 OFFCURVE",
"288 529 CURVE SMOOTH",
"290 538 OFFCURVE",
"296 544 OFFCURVE",
"305 546 CURVE SMOOTH",
"314 550 OFFCURVE",
"323 548 OFFCURVE",
"329 541 CURVE SMOOTH",
"343 528 OFFCURVE",
"366 508 OFFCURVE",
"354 489 CURVE"
);
},
{
closed = 1;
nodes = (
"259 516 OFFCURVE",
"258 499 OFFCURVE",
"246 489 CURVE SMOOTH",
"233 476 OFFCURVE",
"211 474 OFFCURVE",
"194 481 CURVE SMOOTH",
"180 486 OFFCURVE",
"174 501 OFFCURVE",
"179 515 CURVE SMOOTH",
"181 521 OFFCURVE",
"184 528 OFFCURVE",
"188 534 CURVE SMOOTH",
"194 546 OFFCURVE",
"208 551 OFFCURVE",
"221 548 CURVE SMOOTH",
"233 544 OFFCURVE",
"243 536 OFFCURVE",
"249 528 CURVE SMOOTH"
);
},
{
closed = 1;
nodes = (
"254 169 OFFCURVE",
"244 164 OFFCURVE",
"233 165 CURVE SMOOTH",
"220 166 OFFCURVE",
"211 173 OFFCURVE",
"203 179 CURVE SMOOTH",
"196 183 OFFCURVE",
"191 189 OFFCURVE",
"189 195 CURVE SMOOTH",
"185 203 OFFCURVE",
"188 214 OFFCURVE",
"196 218 CURVE SMOOTH",
"211 224 OFFCURVE",
"223 231 OFFCURVE",
"239 224 CURVE SMOOTH",
"243 223 OFFCURVE",
"239 219 OFFCURVE",
"243 216 CURVE SMOOTH",
"246 214 OFFCURVE",
"249 218 OFFCURVE",
"251 216 CURVE",
"254 213 OFFCURVE",
"255 208 OFFCURVE",
"259 203 CURVE SMOOTH",
"263 195 OFFCURVE",
"263 186 OFFCURVE",
"259 179 CURVE SMOOTH"
);
},
{
closed = 1;
nodes = (
"359 381 OFFCURVE",
"358 375 OFFCURVE",
"354 370 CURVE SMOOTH",
"350 366 OFFCURVE",
"345 363 OFFCURVE",
"339 363 CURVE",
"309 360 OFFCURVE",
"285 359 OFFCURVE",
"261 351 CURVE SMOOTH",
"235 344 OFFCURVE",
"200 339 OFFCURVE",
"184 319 CURVE SMOOTH",
"175 306 OFFCURVE",
"166 284 OFFCURVE",
"160 264 CURVE SMOOTH",
"151 230 OFFCURVE",
"154 181 OFFCURVE",
"145 145 CURVE SMOOTH",
"141 131 OFFCURVE",
"140 113 OFFCURVE",
"141 95 CURVE SMOOTH",
"143 83 OFFCURVE",
"146 71 OFFCURVE",
"154 63 CURVE",
"156 61 OFFCURVE",
"156 59 OFFCURVE",
"155 59 CURVE",
"184 49 OFFCURVE",
"235 59 OFFCURVE",
"273 66 CURVE SMOOTH",
"295 71 OFFCURVE",
"301 70 OFFCURVE",
"314 59 CURVE SMOOTH",
"316 56 OFFCURVE",
"319 54 OFFCURVE",
"320 53 CURVE",
"326 45 OFFCURVE",
"326 34 OFFCURVE",
"320 28 CURVE",
"315 20 OFFCURVE",
"308 16 OFFCURVE",
"299 14 CURVE SMOOTH",
"261 6 OFFCURVE",
"216 -3 OFFCURVE",
"178 1 CURVE",
"133 8 OFFCURVE",
"71 -3 OFFCURVE",
"64 83 CURVE",
"54 145 OFFCURVE",
"65 213 OFFCURVE",
"78 273 CURVE SMOOTH",
"91 334 OFFCURVE",
"114 390 OFFCURVE",
"170 406 CURVE SMOOTH",
"176 408 OFFCURVE",
"181 409 OFFCURVE",
"188 408 CURVE",
"196 408 OFFCURVE",
"206 410 OFFCURVE",
"215 414 CURVE SMOOTH",
"223 416 OFFCURVE",
"230 418 OFFCURVE",
"239 418 CURVE",
"265 415 OFFCURVE",
"289 415 OFFCURVE",
"315 411 CURVE SMOOTH",
"325 410 OFFCURVE",
"335 406 OFFCURVE",
"343 399 CURVE SMOOTH",
"348 395 OFFCURVE",
"353 391 OFFCURVE",
"355 386 CURVE SMOOTH"
);
}
);
width = 418;
}
);
unicode = 00CB;
},
{
glyphname = Egrave;
lastChange = "2020-11-04 22:34:44 +0000";
layers = (
{
layerId = master01;
paths = (
{
closed = 1;
nodes = (
"300 488 OFFCURVE",
"289 474 OFFCURVE",
"275 476 CURVE",
"249 479 OFFCURVE",
"230 506 OFFCURVE",
"225 534 CURVE",
"221 548 OFFCURVE",
"236 558 OFFCURVE",
"249 550 CURVE SMOOTH",
"254 546 OFFCURVE",
"258 543 OFFCURVE",
"263 539 CURVE",
"264 536 OFFCURVE",
"268 535 OFFCURVE",
"270 535 CURVE",
"274 535 OFFCURVE",
"276 534 OFFCURVE",
"279 531 CURVE SMOOTH",
"285 523 OFFCURVE",
"293 513 OFFCURVE",
"295 501 CURVE"
);
},
{
closed = 1;
nodes = (
"304 171 OFFCURVE",
"299 166 OFFCURVE",
"293 164 CURVE SMOOTH",
"283 160 OFFCURVE",
"271 155 OFFCURVE",
"260 154 CURVE SMOOTH",
"253 153 OFFCURVE",
"246 153 OFFCURVE",
"240 153 CURVE SMOOTH",
"230 153 OFFCURVE",
"220 156 OFFCURVE",
"211 161 CURVE SMOOTH",
"205 165 OFFCURVE",
"199 169 OFFCURVE",
"194 174 CURVE SMOOTH",
"183 183 OFFCURVE",
"189 200 OFFCURVE",
"204 200 CURVE SMOOTH",
"211 200 OFFCURVE",
"220 199 OFFCURVE",
"230 201 CURVE SMOOTH",
"240 203 OFFCURVE",
"249 205 OFFCURVE",
"256 206 CURVE SMOOTH",
"270 210 OFFCURVE",
"284 208 OFFCURVE",
"296 199 CURVE",
"298 198 OFFCURVE",
"299 198 OFFCURVE",
"300 196 CURVE",
"306 194 OFFCURVE",
"310 185 OFFCURVE",
"308 178 CURVE"
);
},
{
closed = 1;
nodes = (
"386 375 OFFCURVE",
"380 360 OFFCURVE",
"368 358 CURVE SMOOTH",
"308 349 OFFCURVE",
"240 340 OFFCURVE",
"213 295 CURVE SMOOTH",
"205 283 OFFCURVE",
"205 266 OFFCURVE",
"195 253 CURVE SMOOTH",
"193 248 OFFCURVE",
"190 241 OFFCURVE",
"189 235 CURVE SMOOTH",
"186 226 OFFCURVE",
"179 218 OFFCURVE",
"180 210 CURVE SMOOTH",
"181 206 OFFCURVE",
"180 203 OFFCURVE",
"178 200 CURVE SMOOTH",
"175 198 OFFCURVE",
"173 195 OFFCURVE",
"173 191 CURVE",
"164 148 OFFCURVE",
"143 110 OFFCURVE",
"144 70 CURVE",
"144 56 OFFCURVE",
"154 44 OFFCURVE",
"169 43 CURVE SMOOTH",
"223 36 OFFCURVE",
"318 78 OFFCURVE",
"339 29 CURVE",
"340 28 OFFCURVE",
"340 26 OFFCURVE",
"341 25 CURVE",
"344 20 OFFCURVE",
"340 11 OFFCURVE",
"338 8 CURVE",
"336 6 OFFCURVE",
"336 6 OFFCURVE",
"335 5 CURVE",
"321 -13 OFFCURVE",
"245 -13 OFFCURVE",
"191 -14 CURVE SMOOTH",
"144 -14 OFFCURVE",
"99 13 OFFCURVE",
"78 45 CURVE SMOOTH",
"71 55 OFFCURVE",
"58 86 OFFCURVE",
"61 104 CURVE",
"61 109 OFFCURVE",
"61 113 OFFCURVE",
"61 116 CURVE",
"60 121 OFFCURVE",
"60 126 OFFCURVE",
"61 131 CURVE SMOOTH",
"70 173 OFFCURVE",
"86 214 OFFCURVE",
"96 258 CURVE SMOOTH",
"99 269 OFFCURVE",
"110 283 OFFCURVE",
"114 298 CURVE SMOOTH",
"125 334 OFFCURVE",
"150 385 OFFCURVE",
"183 398 CURVE SMOOTH",
"204 405 OFFCURVE",
"239 403 OFFCURVE",
"268 405 CURVE SMOOTH",
"299 409 OFFCURVE",
"321 406 OFFCURVE",
"351 401 CURVE SMOOTH",
"363 400 OFFCURVE",
"373 394 OFFCURVE",
"379 385 CURVE SMOOTH"
);
}
);
width = 443;
}
);
unicode = 00C8;
},
{
glyphname = F;
lastChange = "2020-11-04 22:34:44 +0000";
layers = (
{
layerId = master01;
paths = (
{
closed = 1;
nodes = (
"513 450 OFFCURVE",
"504 443 OFFCURVE",
"495 441 CURVE SMOOTH",
"423 434 OFFCURVE",
"318 424 OFFCURVE",
"248 413 CURVE SMOOTH",
"235 410 OFFCURVE",
"221 413 OFFCURVE",
"211 419 CURVE SMOOTH",
"201 425 OFFCURVE",
"193 433 OFFCURVE",
"183 438 CURVE SMOOTH",
"175 441 OFFCURVE",
"170 446 OFFCURVE",
"166 454 CURVE SMOOTH",
"161 461 OFFCURVE",
"164 471 OFFCURVE",
"173 476 CURVE",
"199 496 OFFCURVE",
"245 498 OFFCURVE",
"283 504 CURVE SMOOTH",
"339 513 OFFCURVE",
"411 531 OFFCURVE",
"460 510 CURVE SMOOTH",
"463 509 OFFCURVE",
"466 509 OFFCURVE",
"469 510 CURVE",
"470 511 OFFCURVE",
"471 511 OFFCURVE",
"473 511 CURVE",
"474 511 OFFCURVE",
"475 511 OFFCURVE",
"476 510 CURVE",
"486 504 OFFCURVE",
"499 499 OFFCURVE",
"506 490 CURVE",
"515 483 OFFCURVE",
"518 470 OFFCURVE",
"515 459 CURVE SMOOTH"
);
},
{
closed = 1;
nodes = (
"394 223 OFFCURVE",
"385 214 OFFCURVE",
"373 210 CURVE SMOOTH",
"349 203 OFFCURVE",
"323 199 OFFCURVE",
"304 194 CURVE SMOOTH",
"301 193 OFFCURVE",
"298 195 OFFCURVE",
"298 198 CURVE",
"298 199 OFFCURVE",
"296 201 OFFCURVE",
"294 201 CURVE",
"258 204 OFFCURVE",
"238 219 OFFCURVE",
"224 235 CURVE",
"216 246 OFFCURVE",
"223 260 OFFCURVE",
"238 264 CURVE SMOOTH",
"266 273 OFFCURVE",
"303 283 OFFCURVE",
"334 281 CURVE",
"353 281 OFFCURVE",
"370 274 OFFCURVE",
"380 263 CURVE",
"380 261 OFFCURVE",
"381 261 OFFCURVE",
"381 260 CURVE",
"390 253 OFFCURVE",
"395 244 OFFCURVE",
"394 234 CURVE"
);
},
{
closed = 1;
nodes = (
"200 356 OFFCURVE",
"200 353 OFFCURVE",
"199 349 CURVE SMOOTH",
"194 318 OFFCURVE",
"178 264 OFFCURVE",
"171 234 CURVE SMOOTH",
"156 171 OFFCURVE",
"151 144 OFFCURVE",
"140 93 CURVE SMOOTH",
"135 66 OFFCURVE",
"134 38 OFFCURVE",
"126 9 CURVE SMOOTH",
"123 -5 OFFCURVE",
"109 -15 OFFCURVE",
"95 -14 CURVE SMOOTH",
"89 -13 OFFCURVE",
"84 -11 OFFCURVE",
"78 -9 CURVE SMOOTH",
"65 -5 OFFCURVE",
"54 4 OFFCURVE",
"49 16 CURVE",
"48 18 OFFCURVE",
"48 19 OFFCURVE",
"46 19 CURVE",
"43 26 OFFCURVE",
"40 34 OFFCURVE",
"40 43 CURVE",
"39 44 OFFCURVE",
"39 46 OFFCURVE",
"39 48 CURVE",
"36 56 OFFCURVE",
"36 65 OFFCURVE",
"38 74 CURVE",
"61 178 OFFCURVE",
"73 281 OFFCURVE",
"116 375 CURVE SMOOTH",
"123 388 OFFCURVE",
"139 394 OFFCURVE",
"150 389 CURVE SMOOTH",
"156 386 OFFCURVE",
"161 384 OFFCURVE",
"170 384 CURVE",
"186 386 OFFCURVE",
"199 374 OFFCURVE",
"200 359 CURVE"
);
}
);
width = 553;
}
);
unicode = 0046;
},
{
glyphname = G;
lastChange = "2020-11-04 22:34:44 +0000";
layers = (
{
layerId = master01;
paths = (
{
closed = 1;
nodes = (
"463 199 OFFCURVE",
"458 193 OFFCURVE",
"450 190 CURVE SMOOTH",
"445 189 OFFCURVE",
"440 189 OFFCURVE",
"434 188 CURVE SMOOTH",
"421 186 OFFCURVE",
"411 176 OFFCURVE",
"408 164 CURVE SMOOTH",
"404 150 OFFCURVE",
"395 139 OFFCURVE",
"394 129 CURVE SMOOTH",
"393 120 OFFCURVE",
"389 111 OFFCURVE",
"384 104 CURVE SMOOTH",
"373 88 OFFCURVE",
"364 69 OFFCURVE",
"348 54 CURVE SMOOTH",
"336 45 OFFCURVE",
"323 31 OFFCURVE",
"311 25 CURVE SMOOTH",
"289 11 OFFCURVE",
"264 -6 OFFCURVE",
"240 -10 CURVE SMOOTH",
"181 -19 OFFCURVE",
"90 15 OFFCURVE",
"83 75 CURVE",
"83 78 OFFCURVE",
"81 80 OFFCURVE",
"78 81 CURVE SMOOTH",
"75 83 OFFCURVE",
"73 85 OFFCURVE",
"73 89 CURVE",
"58 173 OFFCURVE",
"54 228 OFFCURVE",
"83 316 CURVE SMOOTH",
"118 426 OFFCURVE",
"220 529 OFFCURVE",
"323 516 CURVE",
"350 514 OFFCURVE",
"396 488 OFFCURVE",
"421 468 CURVE SMOOTH",
"434 458 OFFCURVE",
"423 429 OFFCURVE",
"414 426 CURVE SMOOTH",
"400 424 OFFCURVE",
"385 428 OFFCURVE",
"369 431 CURVE SMOOTH",
"365 433 OFFCURVE",
"361 434 OFFCURVE",
"359 435 CURVE",
"359 435 OFFCURVE",
"359 435 OFFCURVE",
"358 435 CURVE",
"353 431 OFFCURVE",
"348 430 OFFCURVE",
"341 429 CURVE SMOOTH",
"311 421 OFFCURVE",
"281 404 OFFCURVE",
"260 389 CURVE SMOOTH",
"256 386 OFFCURVE",
"253 383 OFFCURVE",
"249 378 CURVE SMOOTH",
"231 355 OFFCURVE",
"220 326 OFFCURVE",
"201 306 CURVE",
"196 303 OFFCURVE",
"194 298 OFFCURVE",
"191 293 CURVE SMOOTH",
"173 253 OFFCURVE",
"160 206 OFFCURVE",
"146 163 CURVE SMOOTH",
"145 156 OFFCURVE",
"144 150 OFFCURVE",
"144 144 CURVE",
"145 119 OFFCURVE",
"150 110 OFFCURVE",
"160 95 CURVE",
"168 86 OFFCURVE",
"176 79 OFFCURVE",
"188 75 CURVE SMOOTH",
"258 51 OFFCURVE",
"299 108 OFFCURVE",
"340 158 CURVE SMOOTH",
"348 166 OFFCURVE",
"345 179 OFFCURVE",
"335 185 CURVE SMOOTH",
"319 195 OFFCURVE",
"301 208 OFFCURVE",
"296 230 CURVE SMOOTH",
"293 243 OFFCURVE",
"300 254 OFFCURVE",
"313 256 CURVE SMOOTH",
"339 261 OFFCURVE",
"376 273 OFFCURVE",
"391 269 CURVE",
"403 268 OFFCURVE",
"408 256 OFFCURVE",
"416 253 CURVE SMOOTH",
"426 248 OFFCURVE",
"439 251 OFFCURVE",
"448 245 CURVE SMOOTH",
"455 240 OFFCURVE",
"458 233 OFFCURVE",
"460 226 CURVE SMOOTH",
"463 220 OFFCURVE",
"464 214 OFFCURVE",
"464 206 CURVE"
);
}
);
width = 525;
}
);
unicode = 0047;
},
{
glyphname = H;
lastChange = "2020-11-04 22:34:44 +0000";
layers = (
{
layerId = master01;
paths = (
{
closed = 1;
nodes = (
"589 323 OFFCURVE",
"574 249 OFFCURVE",
"550 179 CURVE SMOOTH",
"549 174 OFFCURVE",
"548 169 OFFCURVE",
"548 163 CURVE",
"546 128 OFFCURVE",
"535 98 OFFCURVE",
"530 60 CURVE",
"530 58 OFFCURVE",
"529 56 OFFCURVE",
"526 56 CURVE",
"525 56 OFFCURVE",
"523 55 OFFCURVE",
"524 53 CURVE",
"526 25 OFFCURVE",
"518 -3 OFFCURVE",
"516 -5 CURVE",
"515 -5 OFFCURVE",
"514 -6 OFFCURVE",
"514 -8 CURVE",
"505 -19 OFFCURVE",
"491 -16 OFFCURVE",
"478 -11 CURVE SMOOTH",
"464 -6 OFFCURVE",
"454 4 OFFCURVE",
"449 16 CURVE SMOOTH",
"445 25 OFFCURVE",
"441 33 OFFCURVE",
"438 39 CURVE SMOOTH",
"430 51 OFFCURVE",
"428 65 OFFCURVE",
"431 79 CURVE SMOOTH",
"464 218 OFFCURVE",
"501 376 OFFCURVE",
"555 513 CURVE",
"558 521 OFFCURVE",
"568 525 OFFCURVE",
"576 521 CURVE",
"581 518 OFFCURVE",
"586 514 OFFCURVE",
"590 509 CURVE SMOOTH",
"608 483 OFFCURVE",
"639 451 OFFCURVE",
"613 418 CURVE SMOOTH",
"610 414 OFFCURVE",
"610 410 OFFCURVE",
"613 408 CURVE SMOOTH",
"614 405 OFFCURVE",
"614 401 OFFCURVE",
"613 398 CURVE SMOOTH"
);
},
{
closed = 1;
nodes = (
"450 268 OFFCURVE",
"446 254 OFFCURVE",
"435 249 CURVE SMOOTH",
"396 231 OFFCURVE",
"355 225 OFFCURVE",
"316 231 CURVE SMOOTH",
"304 234 OFFCURVE",
"293 240 OFFCURVE",
"284 249 CURVE SMOOTH",
"275 258 OFFCURVE",
"263 263 OFFCURVE",
"254 271 CURVE SMOOTH",
"243 281 OFFCURVE",
"248 298 OFFCURVE",
"261 301 CURVE SMOOTH",
"305 313 OFFCURVE",
"359 319 OFFCURVE",
"399 311 CURVE SMOOTH",
"420 308 OFFCURVE",
"433 294 OFFCURVE",
"444 279 CURVE"
);
},
{
closed = 1;
nodes = (
"259 441 OFFCURVE",
"259 436 OFFCURVE",
"259 431 CURVE",
"259 430 OFFCURVE",
"259 430 OFFCURVE",
"259 429 CURVE",
"230 339 OFFCURVE",
"206 245 OFFCURVE",
"178 158 CURVE SMOOTH",
"176 154 OFFCURVE",
"175 150 OFFCURVE",
"175 146 CURVE",
"170 105 OFFCURVE",
"159 46 OFFCURVE",
"145 5 CURVE SMOOTH",
"140 -9 OFFCURVE",
"126 -16 OFFCURVE",
"113 -14 CURVE SMOOTH",
"96 -10 OFFCURVE",
"86 0 OFFCURVE",
"75 11 CURVE SMOOTH",
"65 23 OFFCURVE",
"60 36 OFFCURVE",
"60 51 CURVE",
"61 70 OFFCURVE",
"68 89 OFFCURVE",
"71 115 CURVE SMOOTH",
"85 195 OFFCURVE",
"115 304 OFFCURVE",
"140 385 CURVE SMOOTH",
"153 428 OFFCURVE",
"168 464 OFFCURVE",
"180 500 CURVE SMOOTH",
"184 511 OFFCURVE",
"198 518 OFFCURVE",
"209 513 CURVE SMOOTH",
"229 504 OFFCURVE",
"243 490 OFFCURVE",
"255 473 CURVE SMOOTH",
"261 465 OFFCURVE",
"263 456 OFFCURVE",
"260 446 CURVE SMOOTH"
);
}
);
width = 683;
}
);
unicode = 0048;
},
{
glyphname = I;
lastChange = "2020-11-04 22:34:44 +0000";
layers = (
{
layerId = master01;
paths = (
{
closed = 1;
nodes = (
"259 435 OFFCURVE",
"254 424 OFFCURVE",
"251 411 CURVE",
"250 398 OFFCURVE",
"246 384 OFFCURVE",
"244 373 CURVE SMOOTH",
"241 356 OFFCURVE",
"239 343 OFFCURVE",
"236 326 CURVE",
"236 321 OFFCURVE",
"233 318 OFFCURVE",
"231 313 CURVE",
"231 308 OFFCURVE",
"231 303 OFFCURVE",
"230 299 CURVE SMOOTH",
"229 294 OFFCURVE",
"226 280 OFFCURVE",
"225 276 CURVE SMOOTH",
"210 214 OFFCURVE",
"203 163 OFFCURVE",
"186 119 CURVE SMOOTH",
"184 114 OFFCURVE",
"183 108 OFFCURVE",
"183 103 CURVE",
"180 81 OFFCURVE",
"174 51 OFFCURVE",
"166 26 CURVE SMOOTH",
"163 14 OFFCURVE",
"163 1 OFFCURVE",
"153 -6 CURVE SMOOTH",
"141 -14 OFFCURVE",
"128 -14 OFFCURVE",
"116 -8 CURVE",
"114 -5 OFFCURVE",
"111 -4 OFFCURVE",
"109 -3 CURVE SMOOTH",
"99 4 OFFCURVE",
"96 8 OFFCURVE",
"93 19 CURVE SMOOTH",
"89 29 OFFCURVE",
"85 34 OFFCURVE",
"80 44 CURVE",
"76 56 OFFCURVE",
"81 76 OFFCURVE",
"85 89 CURVE SMOOTH",
"103 153 OFFCURVE",
"123 231 OFFCURVE",
"141 305 CURVE SMOOTH",
"150 336 OFFCURVE",
"151 366 OFFCURVE",
"159 400 CURVE SMOOTH",
"163 415 OFFCURVE",
"165 430 OFFCURVE",
"166 446 CURVE SMOOTH",
"168 455 OFFCURVE",
"170 470 OFFCURVE",
"170 479 CURVE",
"171 503 OFFCURVE",
"184 508 OFFCURVE",
"195 510 CURVE SMOOTH",
"215 514 OFFCURVE",
"223 508 OFFCURVE",
"238 498 CURVE SMOOTH",
"266 478 OFFCURVE",
"258 468 OFFCURVE",
"259 446 CURVE"
);
}
);
width = 321;
}
);
unicode = 0049;
},
{
glyphname = Iacute;
lastChange = "2020-11-04 22:34:44 +0000";
layers = (
{
layerId = master01;
paths = (
{
closed = 1;
nodes = (
"223 451 OFFCURVE",
"189 440 OFFCURVE",
"171 419 CURVE SMOOTH",
"161 408 OFFCURVE",
"148 403 OFFCURVE",
"133 405 CURVE",
"131 405 OFFCURVE",
"131 405 OFFCURVE",
"130 405 CURVE",
"116 409 OFFCURVE",
"110 423 OFFCURVE",
"115 435 CURVE SMOOTH",
"128 461 OFFCURVE",
"140 486 OFFCURVE",
"155 510 CURVE SMOOTH",
"163 521 OFFCURVE",
"178 526 OFFCURVE",
"190 523 CURVE SMOOTH",
"214 515 OFFCURVE",
"231 496 OFFCURVE",
"228 476 CURVE SMOOTH"
);
},
{
closed = 1;
nodes = (
"163 194 OFFCURVE",
"161 104 OFFCURVE",
"130 18 CURVE SMOOTH",
"128 11 OFFCURVE",
"123 5 OFFCURVE",
"116 0 CURVE",
"105 -6 OFFCURVE",
"94 -6 OFFCURVE",
"83 -3 CURVE SMOOTH",
"69 3 OFFCURVE",
"60 16 OFFCURVE",
"61 30 CURVE",
"64 103 OFFCURVE",
"74 180 OFFCURVE",
"84 251 CURVE SMOOTH",
"88 283 OFFCURVE",
"91 315 OFFCURVE",
"96 346 CURVE SMOOTH",
"99 359 OFFCURVE",
"111 368 OFFCURVE",
"124 365 CURVE SMOOTH",
"136 363 OFFCURVE",
"150 356 OFFCURVE",
"158 346 CURVE SMOOTH",
"160 343 OFFCURVE",
"163 339 OFFCURVE",
"166 336 CURVE",
"168 335 OFFCURVE",
"170 333 OFFCURVE",
"173 330 CURVE SMOOTH",
"183 320 OFFCURVE",
"186 305 OFFCURVE",
"184 291 CURVE SMOOTH"
);
}
);
width = 289;
}
);
unicode = 00CD;
},
{
glyphname = Icircumflex;
lastChange = "2020-11-04 22:34:44 +0000";
layers = (
{
layerId = master01;
paths = (
{
closed = 1;
nodes = (
"293 434 OFFCURVE",
"281 421 OFFCURVE",
"268 421 CURVE",
"241 423 OFFCURVE",
"228 445 OFFCURVE",
"210 461 CURVE SMOOTH",
"200 471 OFFCURVE",
"184 473 OFFCURVE",
"173 464 CURVE SMOOTH",
"156 451 OFFCURVE",
"148 433 OFFCURVE",
"133 419 CURVE SMOOTH",
"123 409 OFFCURVE",
"108 408 OFFCURVE",
"94 414 CURVE",
"93 414 LINE",
"84 418 OFFCURVE",
"78 424 OFFCURVE",
"73 431 CURVE",
"71 431 OFFCURVE",
"71 433 OFFCURVE",
"70 433 CURVE",
"65 436 OFFCURVE",
"61 443 OFFCURVE",
"60 448 CURVE SMOOTH",
"58 455 OFFCURVE",
"59 464 OFFCURVE",
"64 470 CURVE SMOOTH",
"86 504 OFFCURVE",
"120 524 OFFCURVE",
"161 535 CURVE SMOOTH",
"175 539 OFFCURVE",
"190 538 OFFCURVE",
"203 530 CURVE SMOOTH",
"216 523 OFFCURVE",
"231 513 OFFCURVE",
"238 508 CURVE SMOOTH",
"240 505 OFFCURVE",
"243 498 OFFCURVE",
"248 493 CURVE SMOOTH",
"264 476 OFFCURVE",
"284 466 OFFCURVE",
"289 448 CURVE SMOOTH"
);
},
{
closed = 1;
nodes = (
"223 280 OFFCURVE",
"219 238 OFFCURVE",
"211 158 CURVE",
"211 151 OFFCURVE",
"209 144 OFFCURVE",
"205 138 CURVE SMOOTH",
"188 103 OFFCURVE",
"191 56 OFFCURVE",
"180 21 CURVE SMOOTH",
"175 8 OFFCURVE",
"161 0 OFFCURVE",
"148 4 CURVE SMOOTH",
"129 9 OFFCURVE",
"118 24 OFFCURVE",
"119 50 CURVE SMOOTH",
"120 100 OFFCURVE",
"130 149 OFFCURVE",
"134 190 CURVE SMOOTH",
"140 271 OFFCURVE",
"145 336 OFFCURVE",
"149 394 CURVE SMOOTH",
"150 408 OFFCURVE",
"163 416 OFFCURVE",
"176 414 CURVE SMOOTH",
"190 410 OFFCURVE",
"204 400 OFFCURVE",
"214 388 CURVE SMOOTH",
"223 378 OFFCURVE",
"226 364 OFFCURVE",
"226 349 CURVE"
);
}
);
width = 349;
}
);
unicode = 00CE;
},
{
glyphname = Idieresis;
lastChange = "2020-11-04 22:34:44 +0000";
layers = (
{
layerId = master01;
paths = (
{
closed = 1;
nodes = (
"308 479 OFFCURVE",
"298 466 OFFCURVE",
"285 458 CURVE SMOOTH",
"274 449 OFFCURVE",
"259 448 OFFCURVE",
"246 453 CURVE SMOOTH",
"234 456 OFFCURVE",
"225 468 OFFCURVE",
"225 481 CURVE SMOOTH",
"225 485 OFFCURVE",
"224 488 OFFCURVE",
"221 491 CURVE SMOOTH",
"215 505 OFFCURVE",
"221 520 OFFCURVE",
"234 526 CURVE SMOOTH",
"245 533 OFFCURVE",
"260 534 OFFCURVE",
"276 534 CURVE",
"279 534 OFFCURVE",
"281 531 OFFCURVE",
"281 529 CURVE",
"281 526 OFFCURVE",
"284 525 OFFCURVE",
"286 525 CURVE",
"303 525 OFFCURVE",
"311 508 OFFCURVE",
"310 493 CURVE"
);
},
{
closed = 1;
nodes = (
"136 459 OFFCURVE",
"134 450 OFFCURVE",
"128 446 CURVE SMOOTH",
"118 441 OFFCURVE",
"101 440 OFFCURVE",
"89 448 CURVE SMOOTH",
"83 451 OFFCURVE",
"71 461 OFFCURVE",
"70 463 CURVE",
"69 463 OFFCURVE",
"68 466 OFFCURVE",
"65 470 CURVE SMOOTH",
"58 481 OFFCURVE",
"59 496 OFFCURVE",
"68 508 CURVE SMOOTH",
"74 516 OFFCURVE",
"81 523 OFFCURVE",
"86 525 CURVE",
"108 531 OFFCURVE",
"141 509 OFFCURVE",
"134 483 CURVE",
"131 478 OFFCURVE",
"131 471 OFFCURVE",
"134 465 CURVE SMOOTH"
);
},
{
closed = 1;
nodes = (
"205 279 OFFCURVE",
"204 211 OFFCURVE",
"185 144 CURVE",
"184 143 OFFCURVE",
"184 140 OFFCURVE",
"184 138 CURVE",
"183 131 OFFCURVE",
"179 116 OFFCURVE",
"176 108 CURVE",
"176 105 OFFCURVE",
"175 104 OFFCURVE",
"175 101 CURVE",
"173 90 OFFCURVE",
"154 41 OFFCURVE",
"138 13 CURVE SMOOTH",
"135 9 OFFCURVE",
"131 6 OFFCURVE",
"128 5 CURVE SMOOTH",
"124 4 OFFCURVE",
"120 3 OFFCURVE",
"116 4 CURVE SMOOTH",
"109 5 OFFCURVE",
"105 9 OFFCURVE",
"100 13 CURVE SMOOTH",
"90 21 OFFCURVE",
"83 34 OFFCURVE",
"83 48 CURVE SMOOTH",
"81 96 OFFCURVE",
"95 151 OFFCURVE",
"103 203 CURVE SMOOTH",
"114 278 OFFCURVE",
"119 348 OFFCURVE",
"133 409 CURVE SMOOTH",
"134 413 OFFCURVE",
"135 415 OFFCURVE",
"139 418 CURVE",
"139 418 OFFCURVE",
"140 419 OFFCURVE",
"140 419 CURVE",
"141 419 OFFCURVE",
"141 419 OFFCURVE",
"143 419 CURVE",
"156 423 OFFCURVE",
"170 418 OFFCURVE",
"184 414 CURVE SMOOTH",
"196 410 OFFCURVE",
"206 403 OFFCURVE",
"214 393 CURVE SMOOTH",
"216 390 OFFCURVE",
"218 388 OFFCURVE",
"220 384 CURVE SMOOTH",
"228 371 OFFCURVE",
"229 356 OFFCURVE",
"225 343 CURVE SMOOTH"
);
}
);
width = 370;
}
);
unicode = 00CF;
},
{
glyphname = Igrave;
lastChange = "2020-11-04 22:34:44 +0000";
layers = (
{
layerId = master01;
paths = (
{
closed = 1;
nodes = (
"178 440 OFFCURVE",
"165 426 OFFCURVE",
"151 429 CURVE SMOOTH",
"116 435 OFFCURVE",
"100 469 OFFCURVE",
"78 491 CURVE SMOOTH",
"74 495 OFFCURVE",
"71 501 OFFCURVE",
"70 506 CURVE SMOOTH",
"68 514 OFFCURVE",
"74 520 OFFCURVE",
"80 520 CURVE",
"108 518 OFFCURVE",
"125 508 OFFCURVE",
"139 490 CURVE SMOOTH",
"143 486 OFFCURVE",
"145 483 OFFCURVE",
"149 480 CURVE SMOOTH",
"158 474 OFFCURVE",
"168 464 OFFCURVE",
"171 454 CURVE SMOOTH"
);
},
{
closed = 1;
nodes = (
"179 226 OFFCURVE",
"150 135 OFFCURVE",
"133 41 CURVE SMOOTH",
"130 28 OFFCURVE",
"121 16 OFFCURVE",
"108 10 CURVE SMOOTH",
"104 8 OFFCURVE",
"99 6 OFFCURVE",
"93 6 CURVE",
"85 8 OFFCURVE",
"80 14 OFFCURVE",
"74 20 CURVE SMOOTH",
"65 29 OFFCURVE",
"59 40 OFFCURVE",
"60 54 CURVE",
"64 164 OFFCURVE",
"94 250 OFFCURVE",
"104 364 CURVE SMOOTH",
"105 376 OFFCURVE",
"118 385 OFFCURVE",
"129 381 CURVE SMOOTH",
"148 376 OFFCURVE",
"160 365 OFFCURVE",
"171 351 CURVE SMOOTH",
"179 341 OFFCURVE",
"184 328 OFFCURVE",
"183 315 CURVE"
);
}
);
width = 243;
}
);
unicode = 00CC;
},
{
glyphname = J;
lastChange = "2020-11-04 22:34:44 +0000";
layers = (
{
layerId = master01;
paths = (
{
closed = 1;
nodes = (
"443 390 OFFCURVE",
"439 364 OFFCURVE",
"436 336 CURVE",
"436 330 OFFCURVE",
"435 324 OFFCURVE",
"433 318 CURVE SMOOTH",
"425 301 OFFCURVE",
"425 281 OFFCURVE",
"423 261 CURVE SMOOTH",
"421 255 OFFCURVE",
"419 250 OFFCURVE",
"416 244 CURVE SMOOTH",
"413 238 OFFCURVE",
"410 230 OFFCURVE",
"410 224 CURVE",
"406 199 OFFCURVE",
"401 171 OFFCURVE",
"388 149 CURVE SMOOTH",
"385 145 OFFCURVE",
"378 143 OFFCURVE",
"374 138 CURVE SMOOTH",
"359 118 OFFCURVE",
"346 90 OFFCURVE",
"329 71 CURVE SMOOTH",
"303 43 OFFCURVE",
"269 21 OFFCURVE",
"238 11 CURVE SMOOTH",
"204 0 OFFCURVE",
"150 -3 OFFCURVE",
"109 6 CURVE SMOOTH",
"98 9 OFFCURVE",
"88 15 OFFCURVE",
"80 24 CURVE",
"79 25 OFFCURVE",
"78 25 OFFCURVE",
"76 26 CURVE",
"68 35 OFFCURVE",
"63 45 OFFCURVE",
"60 58 CURVE SMOOTH",
"58 69 OFFCURVE",
"68 79 OFFCURVE",
"79 78 CURVE SMOOTH",
"249 68 OFFCURVE",
"330 211 OFFCURVE",
"340 388 CURVE SMOOTH",
"343 419 OFFCURVE",
"356 456 OFFCURVE",
"360 488 CURVE",
"360 491 OFFCURVE",
"360 495 OFFCURVE",
"360 498 CURVE",
"359 511 OFFCURVE",
"371 520 OFFCURVE",
"384 516 CURVE",
"404 508 OFFCURVE",
"419 494 OFFCURVE",
"431 478 CURVE SMOOTH",
"438 469 OFFCURVE",
"441 458 OFFCURVE",
"443 446 CURVE",
"443 444 OFFCURVE",
"443 443 OFFCURVE",
"444 440 CURVE SMOOTH",
"446 433 OFFCURVE",
"448 424 OFFCURVE",
"446 415 CURVE SMOOTH"
);
}
);
width = 506;
}
);
unicode = 004A;
},
{
glyphname = K;
lastChange = "2020-11-04 22:34:44 +0000";
layers = (
{
layerId = master01;
paths = (
{
closed = 1;
nodes = (
"545 409 OFFCURVE",
"505 396 OFFCURVE",
"493 373 CURVE SMOOTH",
"489 366 OFFCURVE",
"485 361 OFFCURVE",
"480 358 CURVE SMOOTH",
"466 345 OFFCURVE",
"454 331 OFFCURVE",
"443 315 CURVE SMOOTH",
"439 310 OFFCURVE",
"435 305 OFFCURVE",
"430 301 CURVE SMOOTH",
"406 284 OFFCURVE",
"388 260 OFFCURVE",
"381 229 CURVE SMOOTH",
"371 175 OFFCURVE",
"421 101 OFFCURVE",
"421 49 CURVE SMOOTH",
"421 35 OFFCURVE",
"414 24 OFFCURVE",
"401 19 CURVE SMOOTH",
"396 16 OFFCURVE",
"390 14 OFFCURVE",
"385 15 CURVE SMOOTH",
"375 18 OFFCURVE",
"371 28 OFFCURVE",
"363 36 CURVE",
"343 53 OFFCURVE",
"335 56 OFFCURVE",
"326 94 CURVE SMOOTH",
"315 144 OFFCURVE",
"276 243 OFFCURVE",
"295 290 CURVE SMOOTH",
"329 375 OFFCURVE",
"393 429 OFFCURVE",
"449 489 CURVE SMOOTH",
"459 499 OFFCURVE",
"474 501 OFFCURVE",
"486 495 CURVE SMOOTH",
"513 484 OFFCURVE",
"543 458 OFFCURVE",
"544 436 CURVE SMOOTH"
);
},
{
closed = 1;
nodes = (
"266 413 OFFCURVE",
"255 398 OFFCURVE",
"254 376 CURVE",
"254 375 OFFCURVE",
"253 374 OFFCURVE",
"251 375 CURVE",
"249 375 OFFCURVE",
"246 374 OFFCURVE",
"246 373 CURVE",
"246 343 OFFCURVE",
"235 318 OFFCURVE",
"225 293 CURVE SMOOTH",
"223 288 OFFCURVE",
"220 283 OFFCURVE",
"220 276 CURVE",
"218 256 OFFCURVE",
"215 235 OFFCURVE",
"209 215 CURVE SMOOTH",
"204 196 OFFCURVE",
"191 181 OFFCURVE",
"188 161 CURVE",
"186 149 OFFCURVE",
"183 130 OFFCURVE",
"179 118 CURVE SMOOTH",
"171 95 OFFCURVE",
"168 61 OFFCURVE",
"156 41 CURVE SMOOTH",
"153 34 OFFCURVE",
"150 28 OFFCURVE",
"149 20 CURVE",
"149 15 OFFCURVE",
"146 10 OFFCURVE",
"144 5 CURVE SMOOTH",
"139 -5 OFFCURVE",
"128 -11 OFFCURVE",
"115 -10 CURVE",
"104 -8 OFFCURVE",
"94 -1 OFFCURVE",
"88 8 CURVE",
"86 8 OFFCURVE",
"86 8 OFFCURVE",
"86 8 CURVE",
"80 13 OFFCURVE",
"75 19 OFFCURVE",
"71 25 CURVE SMOOTH",
"65 35 OFFCURVE",
"58 46 OFFCURVE",
"61 69 CURVE SMOOTH",
"66 98 OFFCURVE",
"78 130 OFFCURVE",
"86 160 CURVE SMOOTH",
"115 268 OFFCURVE",
"144 399 OFFCURVE",
"188 504 CURVE SMOOTH",
"191 511 OFFCURVE",
"199 516 OFFCURVE",
"208 516 CURVE",
"216 515 OFFCURVE",
"224 510 OFFCURVE",
"230 504 CURVE SMOOTH",
"238 495 OFFCURVE",
"248 488 OFFCURVE",
"255 478 CURVE SMOOTH",
"265 466 OFFCURVE",
"270 451 OFFCURVE",
"269 438 CURVE SMOOTH"
);
}
);
width = 604;
}
);
unicode = 004B;
},
{
glyphname = L;
lastChange = "2020-11-04 22:34:44 +0000";
layers = (
{
layerId = master01;
paths = (
{
closed = 1;
nodes = (
"425 4 OFFCURVE",
"423 -1 OFFCURVE",
"419 -5 CURVE",
"414 -8 OFFCURVE",
"409 -9 OFFCURVE",
"404 -9 CURVE SMOOTH",
"304 -6 OFFCURVE",
"215 -25 OFFCURVE",
"110 -9 CURVE",
"99 -6 OFFCURVE",
"88 1 OFFCURVE",
"81 11 CURVE SMOOTH",
"76 19 OFFCURVE",
"71 25 OFFCURVE",
"68 33 CURVE SMOOTH",
"66 36 OFFCURVE",
"69 45 OFFCURVE",
"68 49 CURVE SMOOTH",
"65 59 OFFCURVE",
"60 56 OFFCURVE",
"60 63 CURVE",
"59 80 OFFCURVE",
"76 130 OFFCURVE",
"81 148 CURVE SMOOTH",
"94 188 OFFCURVE",
"100 231 OFFCURVE",
"111 278 CURVE SMOOTH",
"130 355 OFFCURVE",
"151 425 OFFCURVE",
"184 494 CURVE SMOOTH",
"188 500 OFFCURVE",
"189 506 OFFCURVE",
"189 514 CURVE",
"190 516 OFFCURVE",
"191 519 OFFCURVE",
"193 521 CURVE SMOOTH",
"196 529 OFFCURVE",
"204 533 OFFCURVE",
"211 533 CURVE",
"221 531 OFFCURVE",
"229 528 OFFCURVE",
"235 521 CURVE SMOOTH",
"239 518 OFFCURVE",
"243 515 OFFCURVE",
"246 513 CURVE SMOOTH",
"255 506 OFFCURVE",
"263 499 OFFCURVE",
"268 489 CURVE SMOOTH",
"271 479 OFFCURVE",
"280 470 OFFCURVE",
"281 460 CURVE SMOOTH",
"283 445 OFFCURVE",
"268 431 OFFCURVE",
"264 416 CURVE",
"251 378 OFFCURVE",
"245 323 OFFCURVE",
"225 288 CURVE SMOOTH",
"220 280 OFFCURVE",
"218 273 OFFCURVE",
"216 264 CURVE",
"216 251 OFFCURVE",
"209 238 OFFCURVE",
"209 220 CURVE",
"209 218 OFFCURVE",
"208 216 OFFCURVE",
"205 216 CURVE",
"203 216 OFFCURVE",
"201 214 OFFCURVE",
"200 211 CURVE",
"196 175 OFFCURVE",
"189 134 OFFCURVE",
"178 101 CURVE",
"173 90 OFFCURVE",
"180 79 OFFCURVE",
"191 78 CURVE SMOOTH",
"263 69 OFFCURVE",
"350 95 OFFCURVE",
"399 53 CURVE SMOOTH",
"410 43 OFFCURVE",
"409 38 OFFCURVE",
"414 34 CURVE SMOOTH",
"420 28 OFFCURVE",
"424 19 OFFCURVE",
"425 10 CURVE"
);
}
);
width = 485;
}
);
unicode = 004C;
},
{
glyphname = Lslash;
lastChange = "2020-11-04 22:34:44 +0000";
layers = (
{
layerId = master01;
paths = (
{
closed = 1;
nodes = (
"394 35 OFFCURVE",
"386 17 OFFCURVE",
"370 16 CURVE SMOOTH",
"358 15 OFFCURVE",
"343 19 OFFCURVE",
"327 18 CURVE SMOOTH",
"300 17 OFFCURVE",
"269 4 OFFCURVE",
"238 4 CURVE SMOOTH",
"227 3 OFFCURVE",
"215 9 OFFCURVE",
"204 8 CURVE SMOOTH",
"198 8 OFFCURVE",
"192 3 OFFCURVE",
"186 4 CURVE SMOOTH",
"164 5 OFFCURVE",
"147 15 OFFCURVE",
"133 26 CURVE SMOOTH",
"122 35 OFFCURVE",
"114 46 OFFCURVE",
"112 60 CURVE SMOOTH",
"109 72 OFFCURVE",
"108 85 OFFCURVE",
"110 107 CURVE SMOOTH",
"113 141 OFFCURVE",
"113 177 OFFCURVE",
"116 212 CURVE SMOOTH",
"116 224 OFFCURVE",
"107 234 OFFCURVE",
"96 234 CURVE SMOOTH",
"87 234 OFFCURVE",
"80 235 OFFCURVE",
"72 236 CURVE SMOOTH",
"63 238 OFFCURVE",
"58 249 OFFCURVE",
"64 256 CURVE SMOOTH",
"76 270 OFFCURVE",
"89 283 OFFCURVE",
"104 294 CURVE SMOOTH",
"115 303 OFFCURVE",
"122 315 OFFCURVE",
"122 329 CURVE SMOOTH",
"123 368 OFFCURVE",
"130 420 OFFCURVE",
"135 457 CURVE SMOOTH",
"138 485 OFFCURVE",
"139 503 OFFCURVE",
"154 505 CURVE SMOOTH",
"161 506 OFFCURVE",
"168 504 OFFCURVE",
"173 499 CURVE SMOOTH",
"184 487 OFFCURVE",
"204 483 OFFCURVE",
"214 470 CURVE SMOOTH",
"225 454 OFFCURVE",
"224 427 OFFCURVE",
"220 399 CURVE SMOOTH",
"218 387 OFFCURVE",
"226 377 OFFCURVE",
"237 376 CURVE SMOOTH",
"252 375 OFFCURVE",
"267 371 OFFCURVE",
"277 364 CURVE SMOOTH",
"289 354 OFFCURVE",
"288 336 OFFCURVE",
"275 328 CURVE SMOOTH",
"258 317 OFFCURVE",
"244 303 OFFCURVE",
"230 290 CURVE SMOOTH",
"219 280 OFFCURVE",
"213 267 OFFCURVE",
"213 252 CURVE SMOOTH",
"210 193 OFFCURVE",
"209 150 OFFCURVE",
"205 87 CURVE SMOOTH",
"204 75 OFFCURVE",
"214 66 OFFCURVE",
"226 67 CURVE SMOOTH",
"277 73 OFFCURVE",
"353 89 OFFCURVE",
"384 47 CURVE SMOOTH",
"384 47 LINE SMOOTH"
);
}
);
width = 450;
}
);
unicode = 0141;
},
{
glyphname = M;
lastChange = "2020-11-04 22:34:44 +0000";
layers = (
{
layerId = master01;
paths = (
{
closed = 1;
nodes = (
"785 308 OFFCURVE",
"755 84 OFFCURVE",
"745 -9 CURVE SMOOTH",
"744 -21 OFFCURVE",
"731 -30 OFFCURVE",
"718 -26 CURVE SMOOTH",
"704 -23 OFFCURVE",
"689 -15 OFFCURVE",
"683 -8 CURVE",
"680 -6 OFFCURVE",
"683 1 OFFCURVE",
"681 4 CURVE SMOOTH",
"676 13 OFFCURVE",
"664 23 OFFCURVE",
"663 30 CURVE SMOOTH",
"656 55 OFFCURVE",
"671 135 OFFCURVE",
"675 166 CURVE SMOOTH",
"684 248 OFFCURVE",
"690 319 OFFCURVE",
"694 393 CURVE",
"694 401 OFFCURVE",
"683 409 OFFCURVE",
"675 404 CURVE SMOOTH",
"639 380 OFFCURVE",
"604 335 OFFCURVE",
"576 293 CURVE SMOOTH",
"571 285 OFFCURVE",
"569 285 OFFCURVE",
"563 280 CURVE",
"544 259 OFFCURVE",
"508 215 OFFCURVE",
"484 213 CURVE",
"474 213 OFFCURVE",
"453 220 OFFCURVE",
"445 224 CURVE SMOOTH",
"423 236 OFFCURVE",
"420 273 OFFCURVE",
"405 296 CURVE SMOOTH",
"401 303 OFFCURVE",
"399 309 OFFCURVE",
"396 316 CURVE",
"388 360 OFFCURVE",
"378 400 OFFCURVE",
"365 436 CURVE SMOOTH",
"361 446 OFFCURVE",
"349 451 OFFCURVE",
"340 444 CURVE SMOOTH",
"306 410 OFFCURVE",
"301 351 OFFCURVE",
"273 311 CURVE SMOOTH",
"269 306 OFFCURVE",
"266 303 OFFCURVE",
"265 298 CURVE SMOOTH",
"238 210 OFFCURVE",
"206 128 OFFCURVE",
"176 43 CURVE",
"171 31 OFFCURVE",
"163 21 OFFCURVE",
"153 15 CURVE",
"148 14 OFFCURVE",
"144 11 OFFCURVE",
"139 9 CURVE SMOOTH",
"129 3 OFFCURVE",
"116 0 OFFCURVE",
"104 1 CURVE",
"103 3 OFFCURVE",
"101 3 OFFCURVE",
"100 3 CURVE",
"88 4 OFFCURVE",
"79 16 OFFCURVE",
"80 28 CURVE",
"98 115 OFFCURVE",
"129 181 OFFCURVE",
"150 264 CURVE",
"150 266 OFFCURVE",
"151 270 OFFCURVE",
"154 273 CURVE",
"196 361 OFFCURVE",
"225 479 OFFCURVE",
"299 526 CURVE SMOOTH",
"305 530 OFFCURVE",
"311 533 OFFCURVE",
"319 534 CURVE SMOOTH",
"349 539 OFFCURVE",
"373 533 OFFCURVE",
"398 520 CURVE SMOOTH",
"406 515 OFFCURVE",
"414 509 OFFCURVE",
"419 501 CURVE SMOOTH",
"445 466 OFFCURVE",
"463 420 OFFCURVE",
"473 365 CURVE SMOOTH",
"474 356 OFFCURVE",
"486 351 OFFCURVE",
"493 358 CURVE SMOOTH",
"513 379 OFFCURVE",
"533 410 OFFCURVE",
"555 435 CURVE SMOOTH",
"584 466 OFFCURVE",
"621 493 OFFCURVE",
"654 508 CURVE SMOOTH",
"675 518 OFFCURVE",
"721 523 OFFCURVE",
"756 491 CURVE SMOOTH",
"793 459 OFFCURVE",
"784 391 OFFCURVE",
"785 339 CURVE SMOOTH"
);
}
);
width = 859;
}
);
unicode = 004D;
},
{
glyphname = N;
lastChange = "2020-11-04 22:34:44 +0000";
layers = (
{
layerId = master01;
paths = (
{
closed = 1;
nodes = (
"660 309 OFFCURVE",
"638 158 OFFCURVE",
"586 29 CURVE SMOOTH",
"584 23 OFFCURVE",
"580 18 OFFCURVE",
"575 13 CURVE SMOOTH",
"564 1 OFFCURVE",
"556 -10 OFFCURVE",
"514 -4 CURVE SMOOTH",
"394 16 OFFCURVE",
"343 264 OFFCURVE",
"281 391 CURVE SMOOTH",
"278 400 OFFCURVE",
"265 400 OFFCURVE",
"261 393 CURVE SMOOTH",
"218 294 OFFCURVE",
"206 139 OFFCURVE",
"175 26 CURVE SMOOTH",
"173 18 OFFCURVE",
"168 9 OFFCURVE",
"161 3 CURVE SMOOTH",
"159 1 OFFCURVE",
"156 -1 OFFCURVE",
"154 -4 CURVE SMOOTH",
"144 -13 OFFCURVE",
"130 -16 OFFCURVE",
"115 -13 CURVE SMOOTH",
"110 -11 OFFCURVE",
"106 -10 OFFCURVE",
"103 -9 CURVE SMOOTH",
"89 -5 OFFCURVE",
"79 9 OFFCURVE",
"79 23 CURVE SMOOTH",
"80 83 OFFCURVE",
"93 125 OFFCURVE",
"103 174 CURVE SMOOTH",
"119 246 OFFCURVE",
"140 359 OFFCURVE",
"168 444 CURVE SMOOTH",
"178 475 OFFCURVE",
"185 516 OFFCURVE",
"238 520 CURVE SMOOTH",
"310 525 OFFCURVE",
"335 451 OFFCURVE",
"456 205 CURVE SMOOTH",
"471 174 OFFCURVE",
"484 148 OFFCURVE",
"493 129 CURVE SMOOTH",
"496 121 OFFCURVE",
"506 121 OFFCURVE",
"509 129 CURVE SMOOTH",
"543 220 OFFCURVE",
"556 266 OFFCURVE",
"576 364 CURVE SMOOTH",
"583 391 OFFCURVE",
"605 431 OFFCURVE",
"609 464 CURVE SMOOTH",
"610 469 OFFCURVE",
"611 475 OFFCURVE",
"614 480 CURVE SMOOTH",
"616 484 OFFCURVE",
"618 488 OFFCURVE",
"618 491 CURVE",
"621 505 OFFCURVE",
"631 515 OFFCURVE",
"645 519 CURVE",
"654 520 OFFCURVE",
"663 521 OFFCURVE",
"673 521 CURVE",
"688 520 OFFCURVE",
"700 511 OFFCURVE",
"708 499 CURVE SMOOTH",
"709 495 OFFCURVE",
"711 491 OFFCURVE",
"713 488 CURVE SMOOTH",
"719 474 OFFCURVE",
"720 459 OFFCURVE",
"714 446 CURVE"
);
}
);
width = 796;
}
);
unicode = 004E;
},
{
glyphname = Ntilde;
lastChange = "2020-11-04 22:34:44 +0000";
layers = (
{
layerId = master01;
paths = (
{
closed = 1;
nodes = (
"474 468 OFFCURVE",
"471 465 OFFCURVE",
"469 463 CURVE SMOOTH",
"464 459 OFFCURVE",
"456 456 OFFCURVE",
"449 456 CURVE",
"428 458 OFFCURVE",
"408 433 OFFCURVE",
"380 440 CURVE SMOOTH",
"365 445 OFFCURVE",
"355 455 OFFCURVE",
"345 466 CURVE SMOOTH",
"336 475 OFFCURVE",
"323 476 OFFCURVE",
"313 469 CURVE SMOOTH",
"309 466 LINE",
"298 458 OFFCURVE",
"284 454 OFFCURVE",
"269 456 CURVE SMOOTH",
"259 458 OFFCURVE",
"250 461 OFFCURVE",
"241 466 CURVE",
"231 475 OFFCURVE",
"230 491 OFFCURVE",
"239 501 CURVE",
"271 533 OFFCURVE",
"328 558 OFFCURVE",
"363 523 CURVE SMOOTH",
"365 520 OFFCURVE",
"368 519 OFFCURVE",
"370 519 CURVE",
"374 519 OFFCURVE",
"376 518 OFFCURVE",
"378 515 CURVE SMOOTH",
"384 506 OFFCURVE",
"394 501 OFFCURVE",
"404 503 CURVE SMOOTH",
"418 505 OFFCURVE",
"430 505 OFFCURVE",
"441 501 CURVE",
"454 499 OFFCURVE",
"465 490 OFFCURVE",
"471 479 CURVE SMOOTH",
"473 475 OFFCURVE",
"476 473 OFFCURVE",
"475 470 CURVE SMOOTH"
);
},
{
closed = 1;
nodes = (
"540 410 OFFCURVE",
"538 401 OFFCURVE",
"539 396 CURVE SMOOTH",
"540 390 OFFCURVE",
"540 383 OFFCURVE",
"539 376 CURVE SMOOTH",
"536 363 OFFCURVE",
"540 349 OFFCURVE",
"539 333 CURVE",
"539 299 OFFCURVE",
"523 265 OFFCURVE",
"521 229 CURVE SMOOTH",
"520 210 OFFCURVE",
"509 191 OFFCURVE",
"508 173 CURVE",
"508 165 OFFCURVE",
"506 159 OFFCURVE",
"504 153 CURVE SMOOTH",
"493 124 OFFCURVE",
"490 90 OFFCURVE",
"474 64 CURVE SMOOTH",
"470 58 OFFCURVE",
"468 50 OFFCURVE",
"466 43 CURVE SMOOTH",
"465 28 OFFCURVE",
"456 11 OFFCURVE",
"446 1 CURVE SMOOTH",
"426 -19 OFFCURVE",
"401 -20 OFFCURVE",
"373 -15 CURVE SMOOTH",
"368 -14 OFFCURVE",
"361 -11 OFFCURVE",
"356 -9 CURVE SMOOTH",
"350 -5 OFFCURVE",
"344 -3 OFFCURVE",
"338 1 CURVE",
"328 5 OFFCURVE",
"319 13 OFFCURVE",
"314 21 CURVE SMOOTH",
"296 49 OFFCURVE",
"294 84 OFFCURVE",
"286 118 CURVE SMOOTH",
"284 129 OFFCURVE",
"279 140 OFFCURVE",
"276 153 CURVE SMOOTH",
"268 213 OFFCURVE",
"270 278 OFFCURVE",
"254 336 CURVE SMOOTH",
"251 346 OFFCURVE",
"236 348 OFFCURVE",
"231 339 CURVE",
"229 331 OFFCURVE",
"225 324 OFFCURVE",
"221 316 CURVE SMOOTH",
"218 310 OFFCURVE",
"215 303 OFFCURVE",
"214 295 CURVE",
"214 289 OFFCURVE",
"211 283 OFFCURVE",
"208 276 CURVE SMOOTH",
"176 225 OFFCURVE",
"180 155 OFFCURVE",
"156 99 CURVE SMOOTH",
"154 91 OFFCURVE",
"153 83 OFFCURVE",
"153 74 CURVE",
"155 46 OFFCURVE",
"146 1 OFFCURVE",
"144 -6 CURVE SMOOTH",
"141 -14 OFFCURVE",
"123 -26 OFFCURVE",
"115 -29 CURVE",
"105 -30 OFFCURVE",
"91 -26 OFFCURVE",
"79 -20 CURVE SMOOTH",
"66 -15 OFFCURVE",
"59 -1 OFFCURVE",
"60 11 CURVE SMOOTH",
"64 40 OFFCURVE",
"65 75 OFFCURVE",
"73 104 CURVE",
"83 136 OFFCURVE",
"96 196 OFFCURVE",
"106 234 CURVE",
"120 279 OFFCURVE",
"135 340 OFFCURVE",
"160 370 CURVE SMOOTH",
"186 401 OFFCURVE",
"221 413 OFFCURVE",
"261 406 CURVE SMOOTH",
"271 405 OFFCURVE",
"281 400 OFFCURVE",
"290 393 CURVE SMOOTH",
"365 326 OFFCURVE",
"350 186 OFFCURVE",
"375 86 CURVE SMOOTH",
"378 78 OFFCURVE",
"389 78 OFFCURVE",
"391 85 CURVE SMOOTH",
"426 165 OFFCURVE",
"466 245 OFFCURVE",
"486 331 CURVE SMOOTH",
"488 335 OFFCURVE",
"489 339 OFFCURVE",
"490 343 CURVE SMOOTH",
"498 358 OFFCURVE",
"505 375 OFFCURVE",
"510 389 CURVE",
"515 399 OFFCURVE",
"515 413 OFFCURVE",
"518 423 CURVE SMOOTH",
"521 435 OFFCURVE",
"540 433 OFFCURVE",
"540 419 CURVE SMOOTH"
);
}
);
width = 600;
}
);
unicode = 00D1;
},
{
glyphname = O;
lastChange = "2020-11-04 22:34:44 +0000";
layers = (
{
layerId = master01;
paths = (
{
closed = 1;
nodes = (
"585 186 OFFCURVE",
"498 96 OFFCURVE",
"396 21 CURVE SMOOTH",
"390 18 OFFCURVE",
"384 14 OFFCURVE",
"376 13 CURVE SMOOTH",
"310 -4 OFFCURVE",
"266 -15 OFFCURVE",
"208 -10 CURVE",
"199 -10 OFFCURVE",
"190 -8 OFFCURVE",
"183 -3 CURVE SMOOTH",
"156 14 OFFCURVE",
"129 21 OFFCURVE",
"108 49 CURVE SMOOTH",
"79 86 OFFCURVE",
"74 123 OFFCURVE",
"61 169 CURVE SMOOTH",
"60 175 OFFCURVE",
"60 180 OFFCURVE",
"60 186 CURVE",
"61 208 OFFCURVE",
"60 226 OFFCURVE",
"65 256 CURVE SMOOTH",
"70 285 OFFCURVE",
"91 334 OFFCURVE",
"108 365 CURVE SMOOTH",
"148 440 OFFCURVE",
"236 561 OFFCURVE",
"318 499 CURVE SMOOTH",
"325 494 OFFCURVE",
"329 485 OFFCURVE",
"329 476 CURVE SMOOTH",
"329 469 OFFCURVE",
"326 460 OFFCURVE",
"321 454 CURVE",
"320 453 OFFCURVE",
"319 450 OFFCURVE",
"318 449 CURVE",
"314 443 OFFCURVE",
"309 438 OFFCURVE",
"303 433 CURVE SMOOTH",
"235 383 OFFCURVE",
"183 301 OFFCURVE",
"163 213 CURVE SMOOTH",
"158 190 OFFCURVE",
"154 155 OFFCURVE",
"159 116 CURVE SMOOTH",
"160 108 OFFCURVE",
"161 101 OFFCURVE",
"165 95 CURVE",
"170 83 OFFCURVE",
"181 74 OFFCURVE",
"195 73 CURVE SMOOTH",
"220 69 OFFCURVE",
"243 69 OFFCURVE",
"271 75 CURVE SMOOTH",
"280 78 OFFCURVE",
"288 86 OFFCURVE",
"298 90 CURVE SMOOTH",
"304 93 OFFCURVE",
"311 89 OFFCURVE",
"318 90 CURVE",
"410 123 OFFCURVE",
"486 266 OFFCURVE",
"470 353 CURVE SMOOTH",
"463 390 OFFCURVE",
"446 410 OFFCURVE",
"421 433 CURVE",
"414 438 OFFCURVE",
"406 443 OFFCURVE",
"398 444 CURVE SMOOTH",
"393 445 OFFCURVE",
"389 448 OFFCURVE",
"386 451 CURVE SMOOTH",
"379 463 OFFCURVE",
"386 479 OFFCURVE",
"401 480 CURVE",
"419 480 OFFCURVE",
"438 479 OFFCURVE",
"453 478 CURVE SMOOTH",
"461 476 OFFCURVE",
"469 474 OFFCURVE",
"476 470 CURVE SMOOTH",
"485 465 OFFCURVE",
"491 459 OFFCURVE",
"503 455 CURVE SMOOTH",
"509 453 OFFCURVE",
"514 449 OFFCURVE",
"519 444 CURVE SMOOTH",
"541 424 OFFCURVE",
"550 401 OFFCURVE",
"563 369 CURVE",
"565 365 OFFCURVE",
"566 360 OFFCURVE",
"566 355 CURVE"
);
}
);
width = 629;
}
);
unicode = 004F;
},
{
glyphname = Oacute;
lastChange = "2020-11-04 22:34:44 +0000";
layers = (
{
layerId = master01;
paths = (
{
closed = 1;
nodes = (
"271 504 OFFCURVE",
"260 494 OFFCURVE",
"251 481 CURVE SMOOTH",
"246 475 OFFCURVE",
"240 470 OFFCURVE",
"234 468 CURVE",
"234 466 OFFCURVE",
"233 466 OFFCURVE",
"233 466 CURVE",
"223 459 OFFCURVE",
"210 455 OFFCURVE",
"199 456 CURVE SMOOTH",
"193 458 OFFCURVE",
"186 460 OFFCURVE",
"183 465 CURVE SMOOTH",
"179 469 OFFCURVE",
"178 475 OFFCURVE",
"179 481 CURVE SMOOTH",
"184 498 OFFCURVE",
"190 513 OFFCURVE",
"198 525 CURVE SMOOTH",
"205 538 OFFCURVE",
"219 544 OFFCURVE",
"233 541 CURVE",
"248 540 OFFCURVE",
"263 535 OFFCURVE",
"266 521 CURVE SMOOTH"
);
},
{
closed = 1;
nodes = (
"349 270 OFFCURVE",
"341 243 OFFCURVE",
"340 238 CURVE SMOOTH",
"331 195 OFFCURVE",
"331 174 OFFCURVE",
"324 134 CURVE SMOOTH",
"323 129 OFFCURVE",
"320 123 OFFCURVE",
"318 118 CURVE SMOOTH",
"308 100 OFFCURVE",
"304 81 OFFCURVE",
"294 65 CURVE SMOOTH",
"290 60 OFFCURVE",
"286 54 OFFCURVE",
"285 48 CURVE",
"285 45 OFFCURVE",
"283 43 OFFCURVE",
"281 40 CURVE SMOOTH",
"276 31 OFFCURVE",
"270 24 OFFCURVE",
"261 19 CURVE SMOOTH",
"246 9 OFFCURVE",
"229 3 OFFCURVE",
"209 0 CURVE SMOOTH",
"165 -5 OFFCURVE",
"131 21 OFFCURVE",
"104 44 CURVE SMOOTH",
"96 49 OFFCURVE",
"90 58 OFFCURVE",
"88 66 CURVE",
"85 69 OFFCURVE",
"84 73 OFFCURVE",
"81 76 CURVE SMOOTH",
"78 80 OFFCURVE",
"75 85 OFFCURVE",
"74 90 CURVE SMOOTH",
"58 133 OFFCURVE",
"55 204 OFFCURVE",
"68 270 CURVE SMOOTH",
"78 318 OFFCURVE",
"99 371 OFFCURVE",
"119 391 CURVE SMOOTH",
"136 409 OFFCURVE",
"175 406 OFFCURVE",
"193 390 CURVE",
"203 379 OFFCURVE",
"201 361 OFFCURVE",
"190 353 CURVE SMOOTH",
"158 328 OFFCURVE",
"155 283 OFFCURVE",
"141 241 CURVE SMOOTH",
"139 235 OFFCURVE",
"139 230 OFFCURVE",
"138 225 CURVE",
"136 170 OFFCURVE",
"125 123 OFFCURVE",
"150 73 CURVE",
"150 71 OFFCURVE",
"153 70 OFFCURVE",
"155 70 CURVE",
"166 64 OFFCURVE",
"179 64 OFFCURVE",
"190 71 CURVE SMOOTH",
"193 73 OFFCURVE",
"195 75 OFFCURVE",
"198 76 CURVE SMOOTH",
"203 81 OFFCURVE",
"208 85 OFFCURVE",
"211 91 CURVE SMOOTH",
"241 138 OFFCURVE",
"259 198 OFFCURVE",
"274 259 CURVE SMOOTH",
"275 263 OFFCURVE",
"275 268 OFFCURVE",
"275 271 CURVE",
"276 295 OFFCURVE",
"284 316 OFFCURVE",
"278 339 CURVE SMOOTH",
"274 350 OFFCURVE",
"265 360 OFFCURVE",
"258 373 CURVE SMOOTH",
"253 381 OFFCURVE",
"261 393 OFFCURVE",
"271 389 CURVE SMOOTH",
"308 376 OFFCURVE",
"341 345 OFFCURVE",
"340 306 CURVE",
"340 300 OFFCURVE",
"341 293 OFFCURVE",
"344 286 CURVE SMOOTH"
);
}
);
width = 405;
}
);
unicode = 00D3;
},
{
glyphname = Ocircumflex;
lastChange = "2020-11-04 22:34:44 +0000";
layers = (
{
layerId = master01;
paths = (
{
closed = 1;
nodes = (
"331 481 OFFCURVE",
"328 479 OFFCURVE",
"323 478 CURVE",
"306 476 OFFCURVE",
"295 486 OFFCURVE",
"283 494 CURVE SMOOTH",
"270 503 OFFCURVE",
"254 500 OFFCURVE",
"244 490 CURVE SMOOTH",
"225 471 OFFCURVE",
"214 441 OFFCURVE",
"186 446 CURVE SMOOTH",
"174 449 OFFCURVE",
"169 458 OFFCURVE",
"160 460 CURVE SMOOTH",
"155 461 OFFCURVE",
"150 465 OFFCURVE",
"148 469 CURVE SMOOTH",
"144 474 OFFCURVE",
"144 480 OFFCURVE",
"148 485 CURVE SMOOTH",
"161 505 OFFCURVE",
"184 525 OFFCURVE",
"206 543 CURVE SMOOTH",
"218 551 OFFCURVE",
"233 555 OFFCURVE",
"246 553 CURVE SMOOTH",
"281 545 OFFCURVE",
"309 525 OFFCURVE",
"331 501 CURVE SMOOTH",
"335 498 OFFCURVE",
"336 491 OFFCURVE",
"334 486 CURVE SMOOTH"
);
},
{
closed = 1;
nodes = (
"361 266 OFFCURVE",
"358 226 OFFCURVE",
"341 188 CURVE",
"341 186 OFFCURVE",
"341 185 OFFCURVE",
"341 184 CURVE",
"341 181 OFFCURVE",
"343 180 OFFCURVE",
"343 179 CURVE",
"345 176 OFFCURVE",
"346 174 OFFCURVE",
"345 171 CURVE SMOOTH",
"321 116 OFFCURVE",
"299 60 OFFCURVE",
"253 28 CURVE SMOOTH",
"249 25 OFFCURVE",
"246 23 OFFCURVE",
"244 19 CURVE SMOOTH",
"238 11 OFFCURVE",
"230 5 OFFCURVE",
"220 3 CURVE SMOOTH",
"201 -1 OFFCURVE",
"178 -1 OFFCURVE",
"161 5 CURVE SMOOTH",
"159 6 OFFCURVE",
"156 6 OFFCURVE",
"153 8 CURVE SMOOTH",
"126 13 OFFCURVE",
"98 45 OFFCURVE",
"83 80 CURVE",
"83 83 OFFCURVE",
"81 85 OFFCURVE",
"80 86 CURVE",
"74 94 OFFCURVE",
"70 101 OFFCURVE",
"68 110 CURVE SMOOTH",
"43 221 OFFCURVE",
"81 331 OFFCURVE",
"150 398 CURVE SMOOTH",
"161 408 OFFCURVE",
"175 411 OFFCURVE",
"189 409 CURVE SMOOTH",
"200 408 OFFCURVE",
"210 405 OFFCURVE",
"220 401 CURVE SMOOTH",
"226 399 OFFCURVE",
"233 394 OFFCURVE",
"235 388 CURVE SMOOTH",
"239 381 OFFCURVE",
"239 374 OFFCURVE",
"235 366 CURVE SMOOTH",
"230 359 OFFCURVE",
"225 351 OFFCURVE",
"218 345 CURVE SMOOTH",
"211 340 OFFCURVE",
"206 335 OFFCURVE",
"203 329 CURVE SMOOTH",
"201 325 OFFCURVE",
"199 323 OFFCURVE",
"196 320 CURVE SMOOTH",
"191 315 OFFCURVE",
"188 310 OFFCURVE",
"184 304 CURVE SMOOTH",
"181 300 OFFCURVE",
"180 296 OFFCURVE",
"176 293 CURVE SMOOTH",
"171 288 OFFCURVE",
"168 280 OFFCURVE",
"165 274 CURVE SMOOTH",
"164 269 OFFCURVE",
"161 264 OFFCURVE",
"159 260 CURVE SMOOTH",
"156 254 OFFCURVE",
"154 249 OFFCURVE",
"153 241 CURVE SMOOTH",
"149 215 OFFCURVE",
"136 203 OFFCURVE",
"135 176 CURVE",
"135 171 OFFCURVE",
"135 168 OFFCURVE",
"134 164 CURVE SMOOTH",
"129 144 OFFCURVE",
"128 120 OFFCURVE",
"130 100 CURVE SMOOTH",
"133 88 OFFCURVE",
"150 61 OFFCURVE",
"168 63 CURVE SMOOTH",
"188 64 OFFCURVE",
"219 110 OFFCURVE",
"238 139 CURVE SMOOTH",
"260 174 OFFCURVE",
"283 213 OFFCURVE",
"289 251 CURVE",
"295 281 OFFCURVE",
"305 328 OFFCURVE",
"288 359 CURVE SMOOTH",
"283 369 OFFCURVE",
"291 379 OFFCURVE",
"301 376 CURVE",
"306 374 OFFCURVE",
"313 371 OFFCURVE",
"319 369 CURVE SMOOTH",
"326 366 OFFCURVE",
"335 360 OFFCURVE",
"340 353 CURVE SMOOTH",
"344 349 OFFCURVE",
"348 344 OFFCURVE",
"351 339 CURVE SMOOTH",
"358 330 OFFCURVE",
"361 318 OFFCURVE",
"361 306 CURVE SMOOTH"
);
}
);
width = 421;
}
);
unicode = 00D4;
},
{
glyphname = Odieresis;
lastChange = "2020-11-04 22:34:44 +0000";
layers = (
{
layerId = master01;
paths = (
{
closed = 1;
nodes = (
"298 461 OFFCURVE",
"273 455 OFFCURVE",
"250 476 CURVE SMOOTH",
"241 485 OFFCURVE",
"230 506 OFFCURVE",
"234 516 CURVE SMOOTH",
"241 533 OFFCURVE",
"265 530 OFFCURVE",
"284 521 CURVE SMOOTH",
"298 515 OFFCURVE",
"305 500 OFFCURVE",
"303 486 CURVE SMOOTH"
);
},
{
closed = 1;
nodes = (
"166 470 OFFCURVE",
"155 461 OFFCURVE",
"143 461 CURVE SMOOTH",
"125 461 OFFCURVE",
"109 476 OFFCURVE",
"104 495 CURVE SMOOTH",
"100 510 OFFCURVE",
"111 524 OFFCURVE",
"126 523 CURVE",
"136 523 OFFCURVE",
"148 518 OFFCURVE",
"156 513 CURVE SMOOTH",
"168 506 OFFCURVE",
"173 494 OFFCURVE",
"170 483 CURVE SMOOTH"
);
},
{
closed = 1;
nodes = (
"339 310 OFFCURVE",
"338 305 OFFCURVE",
"339 301 CURVE",
"344 241 OFFCURVE",
"335 163 OFFCURVE",
"316 113 CURVE SMOOTH",
"315 110 OFFCURVE",
"316 108 OFFCURVE",
"318 106 CURVE",
"320 105 OFFCURVE",
"320 103 OFFCURVE",
"319 100 CURVE SMOOTH",
"313 90 OFFCURVE",
"306 76 OFFCURVE",
"304 65 CURVE SMOOTH",
"303 54 OFFCURVE",
"296 41 OFFCURVE",
"286 34 CURVE",
"243 -8 OFFCURVE",
"150 -19 OFFCURVE",
"121 14 CURVE SMOOTH",
"90 48 OFFCURVE",
"55 88 OFFCURVE",
"60 139 CURVE",
"60 141 OFFCURVE",
"60 145 OFFCURVE",
"60 148 CURVE",
"55 244 OFFCURVE",
"81 390 OFFCURVE",
"160 420 CURVE SMOOTH",
"163 421 OFFCURVE",
"173 425 OFFCURVE",
"180 424 CURVE SMOOTH",
"184 423 OFFCURVE",
"188 421 OFFCURVE",
"191 421 CURVE",
"201 420 OFFCURVE",
"215 415 OFFCURVE",
"225 406 CURVE SMOOTH",
"236 398 OFFCURVE",
"234 380 OFFCURVE",
"221 375 CURVE SMOOTH",
"204 366 OFFCURVE",
"189 355 OFFCURVE",
"176 343 CURVE SMOOTH",
"170 336 OFFCURVE",
"166 330 OFFCURVE",
"163 323 CURVE",
"144 273 OFFCURVE",
"121 209 OFFCURVE",
"115 153 CURVE",
"115 150 OFFCURVE",
"120 146 OFFCURVE",
"119 145 CURVE",
"119 139 OFFCURVE",
"114 134 OFFCURVE",
"114 128 CURVE",
"113 111 OFFCURVE",
"118 95 OFFCURVE",
"124 81 CURVE",
"128 70 OFFCURVE",
"136 61 OFFCURVE",
"146 55 CURVE SMOOTH",
"159 48 OFFCURVE",
"174 45 OFFCURVE",
"188 49 CURVE SMOOTH",
"199 53 OFFCURVE",
"209 59 OFFCURVE",
"218 68 CURVE SMOOTH",
"261 108 OFFCURVE",
"281 198 OFFCURVE",
"284 273 CURVE SMOOTH",
"285 293 OFFCURVE",
"281 309 OFFCURVE",
"279 323 CURVE",
"274 341 OFFCURVE",
"260 354 OFFCURVE",
"255 371 CURVE SMOOTH",
"251 383 OFFCURVE",
"263 393 OFFCURVE",
"273 388 CURVE SMOOTH",
"281 384 OFFCURVE",
"289 379 OFFCURVE",
"298 375 CURVE SMOOTH",
"305 371 OFFCURVE",
"311 368 OFFCURVE",
"316 361 CURVE",
"318 361 OFFCURVE",
"318 360 OFFCURVE",
"319 360 CURVE",
"325 355 OFFCURVE",
"330 349 OFFCURVE",
"334 341 CURVE SMOOTH",
"338 334 OFFCURVE",
"341 325 OFFCURVE",
"339 315 CURVE"
);
}
);
width = 399;
}
);
unicode = 00D6;
},
{
glyphname = Ograve;
lastChange = "2020-11-04 22:34:44 +0000";
layers = (
{
layerId = master01;
paths = (
{
closed = 1;
nodes = (
"243 460 OFFCURVE",
"239 453 OFFCURVE",
"231 450 CURVE SMOOTH",
"225 449 OFFCURVE",
"219 449 OFFCURVE",
"213 450 CURVE",
"191 458 OFFCURVE",
"173 475 OFFCURVE",
"160 498 CURVE SMOOTH",
"155 508 OFFCURVE",
"163 519 OFFCURVE",
"174 518 CURVE SMOOTH",
"201 514 OFFCURVE",
"236 499 OFFCURVE",
"241 468 CURVE SMOOTH"
);
},
{
closed = 1;
nodes = (
"340 271 OFFCURVE",
"340 268 OFFCURVE",
"340 264 CURVE",
"334 221 OFFCURVE",
"331 173 OFFCURVE",
"319 130 CURVE",
"313 113 OFFCURVE",
"303 95 OFFCURVE",
"301 76 CURVE SMOOTH",
"300 64 OFFCURVE",
"294 51 OFFCURVE",
"284 41 CURVE SMOOTH",
"274 33 OFFCURVE",
"263 25 OFFCURVE",
"253 18 CURVE SMOOTH",
"248 13 OFFCURVE",
"240 9 OFFCURVE",
"233 8 CURVE SMOOTH",
"220 4 OFFCURVE",
"204 0 OFFCURVE",
"185 0 CURVE",
"171 1 OFFCURVE",
"159 4 OFFCURVE",
"149 5 CURVE",
"140 8 OFFCURVE",
"133 10 OFFCURVE",
"125 15 CURVE SMOOTH",
"115 24 OFFCURVE",
"105 33 OFFCURVE",
"94 41 CURVE SMOOTH",
"88 46 OFFCURVE",
"81 54 OFFCURVE",
"79 60 CURVE SMOOTH",
"54 109 OFFCURVE",
"58 176 OFFCURVE",
"68 234 CURVE SMOOTH",
"75 280 OFFCURVE",
"78 309 OFFCURVE",
"94 344 CURVE SMOOTH",
"103 365 OFFCURVE",
"129 403 OFFCURVE",
"151 408 CURVE SMOOTH",
"163 410 OFFCURVE",
"174 408 OFFCURVE",
"185 405 CURVE SMOOTH",
"194 403 OFFCURVE",
"201 399 OFFCURVE",
"209 394 CURVE",
"210 393 OFFCURVE",
"211 391 OFFCURVE",
"214 390 CURVE SMOOTH",
"221 386 OFFCURVE",
"224 375 OFFCURVE",
"219 368 CURVE SMOOTH",
"215 361 OFFCURVE",
"209 358 OFFCURVE",
"203 354 CURVE",
"190 349 OFFCURVE",
"183 339 OFFCURVE",
"174 330 CURVE SMOOTH",
"166 324 OFFCURVE",
"161 315 OFFCURVE",
"159 306 CURVE SMOOTH",
"138 241 OFFCURVE",
"130 171 OFFCURVE",
"126 104 CURVE SMOOTH",
"125 89 OFFCURVE",
"133 75 OFFCURVE",
"145 68 CURVE SMOOTH",
"183 43 OFFCURVE",
"236 81 OFFCURVE",
"246 123 CURVE",
"253 143 OFFCURVE",
"261 161 OFFCURVE",
"266 176 CURVE SMOOTH",
"274 200 OFFCURVE",
"271 224 OFFCURVE",
"275 248 CURVE SMOOTH",
"279 275 OFFCURVE",
"283 303 OFFCURVE",
"268 326 CURVE SMOOTH",
"264 331 OFFCURVE",
"261 338 OFFCURVE",
"261 344 CURVE SMOOTH",
"261 351 OFFCURVE",
"269 356 OFFCURVE",
"275 355 CURVE SMOOTH",
"283 354 OFFCURVE",
"290 351 OFFCURVE",
"298 349 CURVE",
"301 346 OFFCURVE",
"304 344 OFFCURVE",
"306 344 CURVE",
"319 338 OFFCURVE",
"329 328 OFFCURVE",
"334 314 CURVE SMOOTH",
"339 303 OFFCURVE",
"340 289 OFFCURVE",
"340 275 CURVE SMOOTH"
);
}
);
width = 400;
}
);
unicode = 00D2;
},
{
glyphname = Oslash;
lastChange = "2020-11-04 22:34:44 +0000";
layers = (
{
layerId = master01;
paths = (
{
closed = 1;
nodes = (
"553 503 OFFCURVE",
"541 498 OFFCURVE",
"535 485 CURVE SMOOTH",
"533 480 OFFCURVE",
"535 474 OFFCURVE",
"533 470 CURVE SMOOTH",
"529 466 OFFCURVE",
"523 459 OFFCURVE",
"518 454 CURVE SMOOTH",
"515 450 OFFCURVE",
"511 446 OFFCURVE",
"508 443 CURVE SMOOTH",
"499 433 OFFCURVE",
"495 418 OFFCURVE",
"499 405 CURVE SMOOTH",
"524 319 OFFCURVE",
"511 200 OFFCURVE",
"466 121 CURVE",
"463 116 OFFCURVE",
"460 111 OFFCURVE",
"459 105 CURVE",
"459 104 OFFCURVE",
"459 103 OFFCURVE",
"458 100 CURVE SMOOTH",
"455 94 OFFCURVE",
"451 88 OFFCURVE",
"446 83 CURVE SMOOTH",
"434 69 OFFCURVE",
"424 53 OFFCURVE",
"410 41 CURVE SMOOTH",
"396 29 OFFCURVE",
"369 16 OFFCURVE",
"354 8 CURVE SMOOTH",
"314 -15 OFFCURVE",
"258 -3 OFFCURVE",
"216 23 CURVE SMOOTH",
"205 29 OFFCURVE",
"191 26 OFFCURVE",
"184 16 CURVE SMOOTH",
"168 -5 OFFCURVE",
"154 -28 OFFCURVE",
"140 -51 CURVE SMOOTH",
"135 -61 OFFCURVE",
"126 -68 OFFCURVE",
"115 -69 CURVE SMOOTH",
"105 -70 OFFCURVE",
"94 -66 OFFCURVE",
"85 -60 CURVE SMOOTH",
"71 -50 OFFCURVE",
"60 -39 OFFCURVE",
"60 -18 CURVE",
"61 -3 OFFCURVE",
"75 9 OFFCURVE",
"84 25 CURVE SMOOTH",
"86 29 OFFCURVE",
"84 35 OFFCURVE",
"86 39 CURVE SMOOTH",
"96 54 OFFCURVE",
"109 69 OFFCURVE",
"119 83 CURVE SMOOTH",
"128 93 OFFCURVE",
"131 108 OFFCURVE",
"128 121 CURVE SMOOTH",
"113 190 OFFCURVE",
"124 275 OFFCURVE",
"145 335 CURVE SMOOTH",
"156 365 OFFCURVE",
"171 401 OFFCURVE",
"185 421 CURVE SMOOTH",
"208 458 OFFCURVE",
"253 500 OFFCURVE",
"306 489 CURVE",
"309 488 OFFCURVE",
"311 486 OFFCURVE",
"314 485 CURVE SMOOTH",
"318 483 OFFCURVE",
"321 481 OFFCURVE",
"325 480 CURVE",
"326 479 OFFCURVE",
"326 479 OFFCURVE",
"328 479 CURVE",
"335 476 OFFCURVE",
"341 473 OFFCURVE",
"348 466 CURVE",
"349 465 OFFCURVE",
"351 464 OFFCURVE",
"353 463 CURVE",
"358 458 OFFCURVE",
"359 450 OFFCURVE",
"356 444 CURVE SMOOTH",
"354 438 OFFCURVE",
"348 434 OFFCURVE",
"341 434 CURVE SMOOTH",
"331 434 OFFCURVE",
"321 430 OFFCURVE",
"313 424 CURVE SMOOTH",
"278 399 OFFCURVE",
"226 381 OFFCURVE",
"223 341 CURVE",
"223 335 OFFCURVE",
"220 329 OFFCURVE",
"218 324 CURVE SMOOTH",
"204 291 OFFCURVE",
"199 254 OFFCURVE",
"201 218 CURVE",
"201 209 OFFCURVE",
"213 205 OFFCURVE",
"219 213 CURVE SMOOTH",
"276 275 OFFCURVE",
"333 353 OFFCURVE",
"393 419 CURVE SMOOTH",
"401 429 OFFCURVE",
"401 444 OFFCURVE",
"391 454 CURVE SMOOTH",
"388 459 OFFCURVE",
"381 463 OFFCURVE",
"378 466 CURVE",
"373 469 OFFCURVE",
"370 475 OFFCURVE",
"371 481 CURVE",
"374 486 OFFCURVE",
"379 489 OFFCURVE",
"384 488 CURVE SMOOTH",
"395 485 OFFCURVE",
"405 481 OFFCURVE",
"416 478 CURVE SMOOTH",
"429 473 OFFCURVE",
"444 476 OFFCURVE",
"453 486 CURVE SMOOTH",
"474 509 OFFCURVE",
"489 538 OFFCURVE",
"515 554 CURVE",
"525 561 OFFCURVE",
"541 554 OFFCURVE",
"541 541 CURVE",
"541 539 OFFCURVE",
"551 526 OFFCURVE",
"551 525 CURVE"
);
},
{
closed = 1;
nodes = (
"420 316 OFFCURVE",
"409 319 OFFCURVE",
"404 311 CURVE SMOOTH",
"359 240 OFFCURVE",
"296 165 OFFCURVE",
"241 93 CURVE SMOOTH",
"235 84 OFFCURVE",
"240 70 OFFCURVE",
"251 69 CURVE SMOOTH",
"286 63 OFFCURVE",
"333 79 OFFCURVE",
"350 95 CURVE SMOOTH",
"359 103 OFFCURVE",
"360 115 OFFCURVE",
"366 124 CURVE",
"375 133 OFFCURVE",
"386 138 OFFCURVE",
"393 146 CURVE SMOOTH",
"423 186 OFFCURVE",
"426 255 OFFCURVE",
"420 308 CURVE"
);
}
);
width = 611;
}
);
unicode = 00D8;
},
{
glyphname = Otilde;
lastChange = "2020-11-04 22:34:44 +0000";
layers = (
{
layerId = master01;
paths = (
{
closed = 1;
nodes = (
"393 549 OFFCURVE",
"390 544 OFFCURVE",
"390 541 CURVE",
"390 534 OFFCURVE",
"388 528 OFFCURVE",
"384 521 CURVE SMOOTH",
"381 518 OFFCURVE",
"379 513 OFFCURVE",
"378 509 CURVE SMOOTH",
"374 490 OFFCURVE",
"351 485 OFFCURVE",
"339 473 CURVE SMOOTH",
"335 468 OFFCURVE",
"330 464 OFFCURVE",
"325 461 CURVE SMOOTH",
"320 459 OFFCURVE",
"315 456 OFFCURVE",
"310 456 CURVE",
"306 455 OFFCURVE",
"301 453 OFFCURVE",
"296 454 CURVE SMOOTH",
"265 458 OFFCURVE",
"245 510 OFFCURVE",
"218 496 CURVE SMOOTH",
"211 493 OFFCURVE",
"205 486 OFFCURVE",
"198 481 CURVE SMOOTH",
"185 473 OFFCURVE",
"176 469 OFFCURVE",
"168 460 CURVE SMOOTH",
"163 455 OFFCURVE",
"156 451 OFFCURVE",
"150 448 CURVE SMOOTH",
"146 446 OFFCURVE",
"143 444 OFFCURVE",
"141 444 CURVE",
"134 446 OFFCURVE",
"119 451 OFFCURVE",
"110 454 CURVE SMOOTH",
"104 455 OFFCURVE",
"98 459 OFFCURVE",
"95 464 CURVE SMOOTH",
"91 470 OFFCURVE",
"91 476 OFFCURVE",
"95 481 CURVE SMOOTH",
"106 498 OFFCURVE",
"128 516 OFFCURVE",
"145 529 CURVE SMOOTH",
"154 535 OFFCURVE",
"155 536 OFFCURVE",
"165 540 CURVE SMOOTH",
"174 544 OFFCURVE",
"181 551 OFFCURVE",
"195 554 CURVE",
"224 556 OFFCURVE",
"245 543 OFFCURVE",
"265 524 CURVE SMOOTH",
"274 515 OFFCURVE",
"289 514 OFFCURVE",
"300 520 CURVE SMOOTH",
"326 534 OFFCURVE",
"355 546 OFFCURVE",
"380 563 CURVE SMOOTH",
"383 565 OFFCURVE",
"386 565 OFFCURVE",
"390 563 CURVE SMOOTH",
"393 560 OFFCURVE",
"394 556 OFFCURVE",
"394 554 CURVE"
);
},
{
closed = 1;
nodes = (
"368 216 OFFCURVE",
"363 213 OFFCURVE",
"363 210 CURVE",
"360 195 OFFCURVE",
"363 181 OFFCURVE",
"360 173 CURVE SMOOTH",
"359 169 OFFCURVE",
"354 166 OFFCURVE",
"353 164 CURVE",
"353 160 OFFCURVE",
"355 149 OFFCURVE",
"353 143 CURVE SMOOTH",
"350 134 OFFCURVE",
"343 124 OFFCURVE",
"339 116 CURVE SMOOTH",
"336 113 OFFCURVE",
"335 110 OFFCURVE",
"333 106 CURVE",
"331 105 OFFCURVE",
"330 100 OFFCURVE",
"329 96 CURVE SMOOTH",
"326 93 OFFCURVE",
"324 88 OFFCURVE",
"323 83 CURVE SMOOTH",
"320 71 OFFCURVE",
"309 66 OFFCURVE",
"305 56 CURVE",
"301 50 OFFCURVE",
"298 44 OFFCURVE",
"291 39 CURVE SMOOTH",
"275 23 OFFCURVE",
"260 9 OFFCURVE",
"239 0 CURVE SMOOTH",
"229 -4 OFFCURVE",
"219 -5 OFFCURVE",
"209 -4 CURVE",
"206 -4 OFFCURVE",
"205 -4 OFFCURVE",
"203 -5 CURVE SMOOTH",
"196 -6 OFFCURVE",
"191 -8 OFFCURVE",
"185 -6 CURVE",
"168 -6 OFFCURVE",
"135 -1 OFFCURVE",
"109 31 CURVE SMOOTH",
"83 63 OFFCURVE",
"59 134 OFFCURVE",
"60 181 CURVE SMOOTH",
"61 239 OFFCURVE",
"86 301 OFFCURVE",
"124 346 CURVE SMOOTH",
"145 373 OFFCURVE",
"185 408 OFFCURVE",
"206 411 CURVE SMOOTH",
"218 413 OFFCURVE",
"228 409 OFFCURVE",
"238 405 CURVE",
"249 403 OFFCURVE",
"259 396 OFFCURVE",
"266 386 CURVE",
"266 386 OFFCURVE",
"268 385 OFFCURVE",
"268 385 CURVE",
"275 379 OFFCURVE",
"278 368 OFFCURVE",
"274 359 CURVE SMOOTH",
"270 351 OFFCURVE",
"264 345 OFFCURVE",
"255 343 CURVE SMOOTH",
"205 326 OFFCURVE",
"178 271 OFFCURVE",
"151 233 CURVE SMOOTH",
"148 226 OFFCURVE",
"145 221 OFFCURVE",
"143 214 CURVE SMOOTH",
"138 194 OFFCURVE",
"134 174 OFFCURVE",
"133 149 CURVE SMOOTH",
"131 123 OFFCURVE",
"131 96 OFFCURVE",
"140 78 CURVE SMOOTH",
"146 64 OFFCURVE",
"161 56 OFFCURVE",
"175 59 CURVE SMOOTH",
"194 61 OFFCURVE",
"209 70 OFFCURVE",
"221 80 CURVE SMOOTH",
"241 95 OFFCURVE",
"270 134 OFFCURVE",
"283 160 CURVE SMOOTH",
"291 178 OFFCURVE",
"294 198 OFFCURVE",
"299 215 CURVE SMOOTH",
"300 219 OFFCURVE",
"305 223 OFFCURVE",
"306 226 CURVE SMOOTH",
"309 236 OFFCURVE",
"309 255 OFFCURVE",
"310 269 CURVE",
"311 273 OFFCURVE",
"313 279 OFFCURVE",
"313 281 CURVE",
"311 314 OFFCURVE",
"284 343 OFFCURVE",
"296 371 CURVE",
"299 375 OFFCURVE",
"305 375 OFFCURVE",
"306 370 CURVE SMOOTH",
"308 368 OFFCURVE",
"310 366 OFFCURVE",
"311 366 CURVE",
"315 368 OFFCURVE",
"318 366 OFFCURVE",
"319 364 CURVE SMOOTH",
"320 361 OFFCURVE",
"323 360 OFFCURVE",
"325 359 CURVE SMOOTH",
"334 355 OFFCURVE",
"343 349 OFFCURVE",
"349 341 CURVE SMOOTH",
"371 311 OFFCURVE",
"379 268 OFFCURVE",
"368 219 CURVE"
);
}
);
width = 454;
}
);
unicode = 00D5;
},
{
glyphname = OE;
lastChange = "2020-11-04 22:34:44 +0000";
layers = (
{
layerId = master01;
paths = (
{
closed = 1;
nodes = (
"649 231 OFFCURVE",
"644 221 OFFCURVE",
"635 215 CURVE SMOOTH",
"629 211 OFFCURVE",
"624 205 OFFCURVE",
"618 203 CURVE SMOOTH",
"604 195 OFFCURVE",
"589 200 OFFCURVE",
"573 195 CURVE SMOOTH",
"566 193 OFFCURVE",
"556 185 OFFCURVE",
"543 188 CURVE",
"536 188 OFFCURVE",
"514 198 OFFCURVE",
"504 204 CURVE SMOOTH",
"491 213 OFFCURVE",
"481 229 OFFCURVE",
"476 244 CURVE SMOOTH",
"473 256 OFFCURVE",
"480 270 OFFCURVE",
"493 273 CURVE SMOOTH",
"543 285 OFFCURVE",
"600 304 OFFCURVE",
"635 270 CURVE SMOOTH",
"643 263 OFFCURVE",
"648 253 OFFCURVE",
"648 241 CURVE"
);
},
{
closed = 1;
nodes = (
"744 470 OFFCURVE",
"739 454 OFFCURVE",
"728 446 CURVE SMOOTH",
"704 431 OFFCURVE",
"666 429 OFFCURVE",
"633 420 CURVE SMOOTH",
"589 408 OFFCURVE",
"551 413 OFFCURVE",
"509 401 CURVE SMOOTH",
"496 398 OFFCURVE",
"488 386 OFFCURVE",
"485 374 CURVE SMOOTH",
"484 369 OFFCURVE",
"484 363 OFFCURVE",
"484 359 CURVE SMOOTH",
"484 354 OFFCURVE",
"483 349 OFFCURVE",
"481 344 CURVE SMOOTH",
"458 264 OFFCURVE",
"443 186 OFFCURVE",
"433 113 CURVE",
"430 101 OFFCURVE",
"440 91 OFFCURVE",
"451 93 CURVE SMOOTH",
"513 98 OFFCURVE",
"569 99 OFFCURVE",
"624 100 CURVE SMOOTH",
"638 100 OFFCURVE",
"651 94 OFFCURVE",
"659 83 CURVE",
"659 81 OFFCURVE",
"660 80 OFFCURVE",
"660 79 CURVE",
"669 68 OFFCURVE",
"665 51 OFFCURVE",
"654 43 CURVE SMOOTH",
"646 38 OFFCURVE",
"639 34 OFFCURVE",
"630 30 CURVE SMOOTH",
"623 26 OFFCURVE",
"614 24 OFFCURVE",
"606 24 CURVE SMOOTH",
"521 23 OFFCURVE",
"436 -15 OFFCURVE",
"378 43 CURVE SMOOTH",
"371 49 OFFCURVE",
"359 46 OFFCURVE",
"355 39 CURVE SMOOTH",
"349 28 OFFCURVE",
"339 19 OFFCURVE",
"328 15 CURVE SMOOTH",
"205 -30 OFFCURVE",
"53 34 OFFCURVE",
"61 183 CURVE SMOOTH",
"68 290 OFFCURVE",
"83 439 OFFCURVE",
"178 469 CURVE SMOOTH",
"201 476 OFFCURVE",
"219 471 OFFCURVE",
"240 483 CURVE SMOOTH",
"245 485 OFFCURVE",
"251 488 OFFCURVE",
"256 488 CURVE",
"301 496 OFFCURVE",
"339 493 OFFCURVE",
"376 484 CURVE SMOOTH",
"385 481 OFFCURVE",
"394 476 OFFCURVE",
"400 470 CURVE SMOOTH",
"410 461 OFFCURVE",
"424 459 OFFCURVE",
"436 465 CURVE SMOOTH",
"463 476 OFFCURVE",
"493 484 OFFCURVE",
"519 490 CURVE SMOOTH",
"549 498 OFFCURVE",
"578 501 OFFCURVE",
"608 504 CURVE",
"613 504 OFFCURVE",
"623 511 OFFCURVE",
"628 511 CURVE",
"649 509 OFFCURVE",
"678 514 OFFCURVE",
"706 509 CURVE SMOOTH",
"720 506 OFFCURVE",
"733 496 OFFCURVE",
"739 484 CURVE"
);
},
{
closed = 1;
nodes = (
"401 433 OFFCURVE",
"400 434 OFFCURVE",
"399 435 CURVE",
"396 435 OFFCURVE",
"394 435 OFFCURVE",
"393 434 CURVE",
"390 431 OFFCURVE",
"386 429 OFFCURVE",
"383 429 CURVE",
"346 425 OFFCURVE",
"320 414 OFFCURVE",
"284 409 CURVE SMOOTH",
"276 408 OFFCURVE",
"270 405 OFFCURVE",
"264 401 CURVE SMOOTH",
"245 390 OFFCURVE",
"226 376 OFFCURVE",
"210 360 CURVE SMOOTH",
"204 354 OFFCURVE",
"199 346 OFFCURVE",
"196 338 CURVE SMOOTH",
"194 329 OFFCURVE",
"185 320 OFFCURVE",
"185 318 CURVE",
"166 268 OFFCURVE",
"150 165 OFFCURVE",
"153 118 CURVE",
"153 113 OFFCURVE",
"154 109 OFFCURVE",
"155 104 CURVE",
"161 91 OFFCURVE",
"174 83 OFFCURVE",
"188 83 CURVE",
"231 81 OFFCURVE",
"278 86 OFFCURVE",
"320 94 CURVE SMOOTH",
"333 96 OFFCURVE",
"341 108 OFFCURVE",
"340 120 CURVE SMOOTH",
"329 231 OFFCURVE",
"371 320 OFFCURVE",
"401 430 CURVE"
);
}
);
width = 801;
}
);
unicode = 0152;
},
{
glyphname = P;
lastChange = "2020-11-04 22:34:44 +0000";
layers = (
{
layerId = master01;
paths = (
{
closed = 1;
nodes = (
"531 396 OFFCURVE",
"531 394 OFFCURVE",
"531 393 CURVE",
"531 391 OFFCURVE",
"531 391 OFFCURVE",
"531 390 CURVE",
"529 385 OFFCURVE",
"528 379 OFFCURVE",
"528 373 CURVE",
"526 366 OFFCURVE",
"525 359 OFFCURVE",
"523 354 CURVE SMOOTH",
"519 348 OFFCURVE",
"516 341 OFFCURVE",
"515 334 CURVE SMOOTH",
"513 306 OFFCURVE",
"493 286 OFFCURVE",
"481 263 CURVE SMOOTH",
"479 259 OFFCURVE",
"476 255 OFFCURVE",
"473 253 CURVE SMOOTH",
"469 251 OFFCURVE",
"465 248 OFFCURVE",
"463 244 CURVE SMOOTH",
"433 203 OFFCURVE",
"378 174 OFFCURVE",
"320 168 CURVE SMOOTH",
"308 166 OFFCURVE",
"296 169 OFFCURVE",
"285 175 CURVE",
"279 180 OFFCURVE",
"273 186 OFFCURVE",
"269 193 CURVE SMOOTH",
"266 195 OFFCURVE",
"265 199 OFFCURVE",
"263 201 CURVE SMOOTH",
"254 210 OFFCURVE",
"256 226 OFFCURVE",
"268 231 CURVE SMOOTH",
"308 253 OFFCURVE",
"354 271 OFFCURVE",
"385 305 CURVE SMOOTH",
"416 340 OFFCURVE",
"443 371 OFFCURVE",
"421 421 CURVE SMOOTH",
"416 431 OFFCURVE",
"410 440 OFFCURVE",
"401 445 CURVE",
"371 468 OFFCURVE",
"334 473 OFFCURVE",
"308 480 CURVE",
"300 481 OFFCURVE",
"295 488 OFFCURVE",
"293 494 CURVE SMOOTH",
"290 501 OFFCURVE",
"294 510 OFFCURVE",
"301 513 CURVE SMOOTH",
"338 525 OFFCURVE",
"449 518 OFFCURVE",
"510 469 CURVE",
"510 468 OFFCURVE",
"510 468 OFFCURVE",
"511 468 CURVE",
"513 460 OFFCURVE",
"515 453 OFFCURVE",
"520 446 CURVE SMOOTH",
"530 431 OFFCURVE",
"534 421 OFFCURVE",
"531 398 CURVE"
);
},
{
closed = 1;
nodes = (
"260 371 OFFCURVE",
"248 353 OFFCURVE",
"239 330 CURVE SMOOTH",
"231 308 OFFCURVE",
"233 280 OFFCURVE",
"226 260 CURVE",
"218 238 OFFCURVE",
"208 216 OFFCURVE",
"199 183 CURVE SMOOTH",
"195 168 OFFCURVE",
"190 153 OFFCURVE",
"186 138 CURVE SMOOTH",
"178 110 OFFCURVE",
"171 86 OFFCURVE",
"161 65 CURVE SMOOTH",
"158 58 OFFCURVE",
"155 50 OFFCURVE",
"155 41 CURVE SMOOTH",
"155 24 OFFCURVE",
"145 4 OFFCURVE",
"133 -10 CURVE SMOOTH",
"124 -21 OFFCURVE",
"108 -25 OFFCURVE",
"94 -19 CURVE SMOOTH",
"85 -14 OFFCURVE",
"78 -6 OFFCURVE",
"71 1 CURVE SMOOTH",
"63 13 OFFCURVE",
"59 28 OFFCURVE",
"61 43 CURVE SMOOTH",
"73 116 OFFCURVE",
"89 179 OFFCURVE",
"110 244 CURVE SMOOTH",
"135 319 OFFCURVE",
"149 403 OFFCURVE",
"188 460 CURVE SMOOTH",
"195 471 OFFCURVE",
"210 475 OFFCURVE",
"221 468 CURVE SMOOTH",
"236 459 OFFCURVE",
"246 445 OFFCURVE",
"256 433 CURVE SMOOTH",
"266 420 OFFCURVE",
"269 405 OFFCURVE",
"265 391 CURVE SMOOTH"
);
}
);
width = 593;
}
);
unicode = 0050;
},
{
glyphname = Thorn;
lastChange = "2020-11-04 22:34:44 +0000";
layers = (
{
layerId = master01;
paths = (
{
closed = 1;
nodes = (
"364 195 OFFCURVE",
"340 151 OFFCURVE",
"300 134 CURVE SMOOTH",
"293 130 OFFCURVE",
"284 129 OFFCURVE",
"275 129 CURVE",
"253 130 OFFCURVE",
"230 126 OFFCURVE",
"220 139 CURVE SMOOTH",
"215 146 OFFCURVE",
"208 150 OFFCURVE",
"200 154 CURVE",
"188 158 OFFCURVE",
"188 174 OFFCURVE",
"199 180 CURVE SMOOTH",
"215 188 OFFCURVE",
"239 190 OFFCURVE",
"250 204 CURVE SMOOTH",
"251 206 OFFCURVE",
"254 208 OFFCURVE",
"256 208 CURVE",
"259 208 OFFCURVE",
"261 210 OFFCURVE",
"264 213 CURVE",
"275 235 OFFCURVE",
"289 273 OFFCURVE",
"291 300 CURVE SMOOTH",
"293 313 OFFCURVE",
"295 330 OFFCURVE",
"291 341 CURVE SMOOTH",
"288 354 OFFCURVE",
"275 359 OFFCURVE",
"266 365 CURVE SMOOTH",
"254 374 OFFCURVE",
"260 394 OFFCURVE",
"275 394 CURVE",
"285 395 OFFCURVE",
"294 391 OFFCURVE",
"308 390 CURVE",
"316 390 OFFCURVE",
"326 388 OFFCURVE",
"334 383 CURVE SMOOTH",
"379 358 OFFCURVE",
"393 310 OFFCURVE",
"376 244 CURVE SMOOTH"
);
},
{
closed = 1;
nodes = (
"224 375 OFFCURVE",
"195 278 OFFCURVE",
"189 204 CURVE SMOOTH",
"183 141 OFFCURVE",
"160 80 OFFCURVE",
"146 19 CURVE",
"143 6 OFFCURVE",
"131 -4 OFFCURVE",
"119 -6 CURVE SMOOTH",
"109 -8 OFFCURVE",
"96 -9 OFFCURVE",
"86 -8 CURVE",
"73 -8 OFFCURVE",
"61 5 OFFCURVE",
"60 19 CURVE SMOOTH",
"51 190 OFFCURVE",
"116 351 OFFCURVE",
"145 513 CURVE SMOOTH",
"148 525 OFFCURVE",
"161 534 OFFCURVE",
"175 531 CURVE",
"194 526 OFFCURVE",
"209 508 OFFCURVE",
"220 491 CURVE SMOOTH",
"228 480 OFFCURVE",
"230 468 OFFCURVE",
"230 455 CURVE"
);
}
);
width = 443;
}
);
unicode = 00DE;
},
{
glyphname = Q;
lastChange = "2020-11-04 22:34:44 +0000";
layers = (
{
layerId = master01;
paths = (
{
closed = 1;
nodes = (
"503 298 OFFCURVE",
"520 260 OFFCURVE",
"505 229 CURVE SMOOTH",
"503 223 OFFCURVE",
"500 218 OFFCURVE",
"500 211 CURVE",
"495 179 OFFCURVE",
"476 153 OFFCURVE",
"459 129 CURVE SMOOTH",
"450 119 OFFCURVE",
"450 104 OFFCURVE",
"459 94 CURVE SMOOTH",
"465 85 OFFCURVE",
"473 78 OFFCURVE",
"476 74 CURVE SMOOTH",
"483 69 OFFCURVE",
"486 61 OFFCURVE",
"489 54 CURVE",
"489 51 OFFCURVE",
"489 49 OFFCURVE",
"489 46 CURVE",
"490 33 OFFCURVE",
"479 21 OFFCURVE",
"465 23 CURVE SMOOTH",
"451 24 OFFCURVE",
"436 28 OFFCURVE",
"419 44 CURVE SMOOTH",
"409 54 OFFCURVE",
"394 53 OFFCURVE",
"385 44 CURVE",
"379 35 OFFCURVE",
"373 26 OFFCURVE",
"364 21 CURVE SMOOTH",
"358 16 OFFCURVE",
"346 16 OFFCURVE",
"340 10 CURVE SMOOTH",
"334 4 OFFCURVE",
"325 -1 OFFCURVE",
"316 -4 CURVE SMOOTH",
"288 -13 OFFCURVE",
"261 -28 OFFCURVE",
"229 -24 CURVE SMOOTH",
"160 -16 OFFCURVE",
"89 26 OFFCURVE",
"70 116 CURVE SMOOTH",
"39 263 OFFCURVE",
"66 439 OFFCURVE",
"206 504 CURVE SMOOTH",
"239 519 OFFCURVE",
"284 519 OFFCURVE",
"318 520 CURVE SMOOTH",
"335 521 OFFCURVE",
"359 515 OFFCURVE",
"376 510 CURVE SMOOTH",
"394 504 OFFCURVE",
"406 498 OFFCURVE",
"421 488 CURVE SMOOTH",
"429 483 OFFCURVE",
"436 480 OFFCURVE",
"443 475 CURVE SMOOTH",
"451 469 OFFCURVE",
"458 461 OFFCURVE",
"464 454 CURVE SMOOTH",
"486 428 OFFCURVE",
"509 390 OFFCURVE",
"505 354 CURVE",
"505 350 OFFCURVE",
"506 346 OFFCURVE",
"508 344 CURVE SMOOTH",
"510 340 OFFCURVE",
"511 336 OFFCURVE",
"510 333 CURVE SMOOTH"
);
},
{
closed = 1;
nodes = (
"438 309 OFFCURVE",
"435 379 OFFCURVE",
"408 415 CURVE SMOOTH",
"400 426 OFFCURVE",
"389 433 OFFCURVE",
"380 443 CURVE SMOOTH",
"374 450 OFFCURVE",
"374 453 OFFCURVE",
"364 453 CURVE SMOOTH",
"359 453 OFFCURVE",
"351 450 OFFCURVE",
"345 453 CURVE SMOOTH",
"339 454 OFFCURVE",
"339 456 OFFCURVE",
"333 456 CURVE",
"331 456 OFFCURVE",
"331 456 OFFCURVE",
"330 456 CURVE",
"328 456 OFFCURVE",
"325 456 OFFCURVE",
"324 456 CURVE",
"316 458 OFFCURVE",
"310 456 OFFCURVE",
"304 455 CURVE",
"300 455 OFFCURVE",
"296 454 OFFCURVE",
"293 453 CURVE SMOOTH",
"284 450 OFFCURVE",
"276 445 OFFCURVE",
"268 443 CURVE",
"256 441 OFFCURVE",
"254 440 OFFCURVE",
"245 434 CURVE SMOOTH",
"239 429 OFFCURVE",
"233 429 OFFCURVE",
"226 425 CURVE SMOOTH",
"209 415 OFFCURVE",
"190 404 OFFCURVE",
"180 385 CURVE SMOOTH",
"165 356 OFFCURVE",
"146 331 OFFCURVE",
"141 298 CURVE SMOOTH",
"139 280 OFFCURVE",
"134 263 OFFCURVE",
"134 245 CURVE SMOOTH",
"134 221 OFFCURVE",
"135 198 OFFCURVE",
"136 174 CURVE",
"139 156 OFFCURVE",
"134 136 OFFCURVE",
"141 121 CURVE SMOOTH",
"145 113 OFFCURVE",
"151 105 OFFCURVE",
"155 96 CURVE SMOOTH",
"161 79 OFFCURVE",
"181 64 OFFCURVE",
"200 64 CURVE SMOOTH",
"215 64 OFFCURVE",
"245 54 OFFCURVE",
"259 59 CURVE SMOOTH",
"311 80 OFFCURVE",
"340 108 OFFCURVE",
"340 108 CURVE",
"315 133 OFFCURVE",
"284 164 OFFCURVE",
"274 199 CURVE SMOOTH",
"261 244 OFFCURVE",
"308 214 OFFCURVE",
"325 203 CURVE SMOOTH",
"335 195 OFFCURVE",
"343 186 OFFCURVE",
"351 178 CURVE",
"361 170 OFFCURVE",
"370 165 OFFCURVE",
"380 159 CURVE SMOOTH",
"389 153 OFFCURVE",
"424 248 OFFCURVE",
"425 256 CURVE"
);
}
);
width = 570;
}
);
unicode = 0051;
},
{
glyphname = R;
lastChange = "2020-11-04 22:34:44 +0000";
layers = (
{
layerId = master01;
paths = (
{
closed = 1;
nodes = (
"488 315 OFFCURVE",
"484 306 OFFCURVE",
"479 299 CURVE SMOOTH",
"468 284 OFFCURVE",
"465 261 OFFCURVE",
"445 255 CURVE SMOOTH",
"438 253 OFFCURVE",
"431 249 OFFCURVE",
"426 244 CURVE SMOOTH",
"418 236 OFFCURVE",
"410 228 OFFCURVE",
"400 220 CURVE SMOOTH",
"390 213 OFFCURVE",
"386 199 OFFCURVE",
"389 185 CURVE",
"405 118 OFFCURVE",
"426 51 OFFCURVE",
"406 -5 CURVE SMOOTH",
"403 -16 OFFCURVE",
"389 -20 OFFCURVE",
"379 -14 CURVE SMOOTH",
"370 -8 OFFCURVE",
"363 -3 OFFCURVE",
"355 4 CURVE SMOOTH",
"344 14 OFFCURVE",
"336 28 OFFCURVE",
"335 41 CURVE SMOOTH",
"330 93 OFFCURVE",
"335 158 OFFCURVE",
"319 209 CURVE SMOOTH",
"309 239 OFFCURVE",
"303 284 OFFCURVE",
"330 304 CURVE SMOOTH",
"354 323 OFFCURVE",
"383 321 OFFCURVE",
"398 343 CURVE SMOOTH",
"406 354 OFFCURVE",
"408 369 OFFCURVE",
"403 384 CURVE SMOOTH",
"385 436 OFFCURVE",
"326 455 OFFCURVE",
"299 474 CURVE SMOOTH",
"288 483 OFFCURVE",
"289 498 OFFCURVE",
"301 503 CURVE SMOOTH",
"339 515 OFFCURVE",
"376 514 OFFCURVE",
"393 504 CURVE SMOOTH",
"395 501 OFFCURVE",
"396 495 OFFCURVE",
"400 491 CURVE SMOOTH",
"403 490 OFFCURVE",
"409 490 OFFCURVE",
"410 489 CURVE",
"414 485 OFFCURVE",
"416 476 OFFCURVE",
"419 474 CURVE SMOOTH",
"428 468 OFFCURVE",
"440 465 OFFCURVE",
"448 458 CURVE SMOOTH",
"451 453 OFFCURVE",
"458 438 OFFCURVE",
"465 428 CURVE SMOOTH",
"480 405 OFFCURVE",
"490 365 OFFCURVE",
"488 325 CURVE"
);
},
{
closed = 1;
nodes = (
"283 408 OFFCURVE",
"249 363 OFFCURVE",
"243 323 CURVE",
"243 319 OFFCURVE",
"241 314 OFFCURVE",
"239 310 CURVE",
"211 249 OFFCURVE",
"201 175 OFFCURVE",
"176 115 CURVE SMOOTH",
"174 109 OFFCURVE",
"173 103 OFFCURVE",
"173 96 CURVE",
"173 95 OFFCURVE",
"173 95 OFFCURVE",
"173 94 CURVE",
"171 88 OFFCURVE",
"169 83 OFFCURVE",
"166 78 CURVE SMOOTH",
"163 70 OFFCURVE",
"160 60 OFFCURVE",
"159 50 CURVE SMOOTH",
"158 45 OFFCURVE",
"155 40 OFFCURVE",
"154 35 CURVE SMOOTH",
"153 31 OFFCURVE",
"150 26 OFFCURVE",
"149 21 CURVE SMOOTH",
"148 13 OFFCURVE",
"143 5 OFFCURVE",
"138 -1 CURVE SMOOTH",
"134 -6 OFFCURVE",
"128 -9 OFFCURVE",
"120 -8 CURVE SMOOTH",
"115 -6 OFFCURVE",
"111 -3 OFFCURVE",
"109 1 CURVE SMOOTH",
"106 5 OFFCURVE",
"104 8 OFFCURVE",
"101 9 CURVE SMOOTH",
"99 10 OFFCURVE",
"96 14 OFFCURVE",
"95 14 CURVE",
"90 16 OFFCURVE",
"84 20 OFFCURVE",
"79 24 CURVE SMOOTH",
"73 30 OFFCURVE",
"69 39 OFFCURVE",
"66 48 CURVE",
"60 83 OFFCURVE",
"71 121 OFFCURVE",
"83 158 CURVE SMOOTH",
"94 195 OFFCURVE",
"109 233 OFFCURVE",
"120 268 CURVE",
"128 296 OFFCURVE",
"131 330 OFFCURVE",
"145 355 CURVE",
"149 360 OFFCURVE",
"150 366 OFFCURVE",
"151 373 CURVE SMOOTH",
"156 405 OFFCURVE",
"168 416 OFFCURVE",
"174 445 CURVE SMOOTH",
"175 451 OFFCURVE",
"178 458 OFFCURVE",
"180 463 CURVE SMOOTH",
"183 465 OFFCURVE",
"183 468 OFFCURVE",
"184 469 CURVE",
"186 470 OFFCURVE",
"186 474 OFFCURVE",
"185 476 CURVE SMOOTH",
"183 479 OFFCURVE",
"184 481 OFFCURVE",
"185 484 CURVE",
"193 489 OFFCURVE",
"195 498 OFFCURVE",
"199 506 CURVE SMOOTH",
"201 515 OFFCURVE",
"213 520 OFFCURVE",
"221 515 CURVE SMOOTH",
"229 511 OFFCURVE",
"236 506 OFFCURVE",
"241 499 CURVE SMOOTH",
"243 496 OFFCURVE",
"245 494 OFFCURVE",
"249 491 CURVE SMOOTH",
"260 483 OFFCURVE",
"269 470 OFFCURVE",
"273 456 CURVE"
);
}
);
width = 553;
}
);
unicode = 0052;
},
{
glyphname = S;
lastChange = "2020-11-04 22:34:44 +0000";
layers = (
{
layerId = master01;
paths = (
{
closed = 1;
nodes = (
"394 429 OFFCURVE",
"389 414 OFFCURVE",
"376 409 CURVE SMOOTH",
"360 403 OFFCURVE",
"339 405 OFFCURVE",
"314 404 CURVE",
"299 404 OFFCURVE",
"286 396 OFFCURVE",
"275 395 CURVE SMOOTH",
"250 393 OFFCURVE",
"239 408 OFFCURVE",
"218 399 CURVE",
"213 395 OFFCURVE",
"205 386 OFFCURVE",
"198 381 CURVE SMOOTH",
"190 376 OFFCURVE",
"184 369 OFFCURVE",
"181 360 CURVE SMOOTH",
"178 350 OFFCURVE",
"180 340 OFFCURVE",
"188 333 CURVE SMOOTH",
"198 321 OFFCURVE",
"211 311 OFFCURVE",
"220 299 CURVE SMOOTH",
"223 295 OFFCURVE",
"228 291 OFFCURVE",
"234 290 CURVE",
"238 290 OFFCURVE",
"241 288 OFFCURVE",
"245 285 CURVE SMOOTH",
"265 268 OFFCURVE",
"291 251 OFFCURVE",
"304 231 CURVE SMOOTH",
"306 228 OFFCURVE",
"310 223 OFFCURVE",
"314 220 CURVE SMOOTH",
"356 181 OFFCURVE",
"360 94 OFFCURVE",
"308 49 CURVE SMOOTH",
"294 36 OFFCURVE",
"281 20 OFFCURVE",
"260 13 CURVE SMOOTH",
"258 11 OFFCURVE",
"254 14 OFFCURVE",
"251 14 CURVE",
"224 9 OFFCURVE",
"201 -4 OFFCURVE",
"168 -3 CURVE",
"153 -3 OFFCURVE",
"139 0 OFFCURVE",
"123 3 CURVE SMOOTH",
"111 4 OFFCURVE",
"101 9 OFFCURVE",
"94 16 CURVE",
"93 18 OFFCURVE",
"91 18 OFFCURVE",
"90 19 CURVE",
"81 25 OFFCURVE",
"75 34 OFFCURVE",
"71 43 CURVE SMOOTH",
"68 53 OFFCURVE",
"61 63 OFFCURVE",
"60 75 CURVE SMOOTH",
"59 88 OFFCURVE",
"73 95 OFFCURVE",
"83 88 CURVE SMOOTH",
"89 83 OFFCURVE",
"98 79 OFFCURVE",
"106 79 CURVE",
"160 71 OFFCURVE",
"203 85 OFFCURVE",
"239 113 CURVE SMOOTH",
"245 118 OFFCURVE",
"250 125 OFFCURVE",
"254 133 CURVE SMOOTH",
"256 138 OFFCURVE",
"259 141 OFFCURVE",
"261 145 CURVE SMOOTH",
"266 151 OFFCURVE",
"269 158 OFFCURVE",
"270 164 CURVE SMOOTH",
"273 176 OFFCURVE",
"270 188 OFFCURVE",
"261 198 CURVE SMOOTH",
"235 225 OFFCURVE",
"201 241 OFFCURVE",
"166 261 CURVE SMOOTH",
"159 265 OFFCURVE",
"153 271 OFFCURVE",
"148 279 CURVE SMOOTH",
"140 290 OFFCURVE",
"133 301 OFFCURVE",
"124 313 CURVE SMOOTH",
"118 319 OFFCURVE",
"113 328 OFFCURVE",
"111 336 CURVE SMOOTH",
"103 374 OFFCURVE",
"96 409 OFFCURVE",
"113 440 CURVE SMOOTH",
"121 458 OFFCURVE",
"148 483 OFFCURVE",
"165 491 CURVE SMOOTH",
"191 506 OFFCURVE",
"281 516 OFFCURVE",
"323 499 CURVE SMOOTH",
"334 494 OFFCURVE",
"344 486 OFFCURVE",
"354 481 CURVE SMOOTH",
"365 476 OFFCURVE",
"374 466 OFFCURVE",
"380 455 CURVE",
"381 450 OFFCURVE",
"385 445 OFFCURVE",
"388 440 CURVE SMOOTH"
);
}
);
width = 450;
}
);
unicode = 0053;
},
{
glyphname = Scaron;
lastChange = "2020-11-04 22:34:44 +0000";
layers = (
{
layerId = master01;
paths = (
{
closed = 1;
nodes = (
"318 506 OFFCURVE",
"315 500 OFFCURVE",
"314 493 CURVE SMOOTH",
"311 480 OFFCURVE",
"304 468 OFFCURVE",
"293 461 CURVE",
"286 456 OFFCURVE",
"279 451 OFFCURVE",
"271 446 CURVE SMOOTH",
"268 444 OFFCURVE",
"264 443 OFFCURVE",
"260 440 CURVE",
"240 433 OFFCURVE",
"219 424 OFFCURVE",
"196 426 CURVE SMOOTH",
"181 428 OFFCURVE",
"169 435 OFFCURVE",
"160 448 CURVE SMOOTH",
"144 470 OFFCURVE",
"128 495 OFFCURVE",
"119 521 CURVE",
"119 525 OFFCURVE",
"119 529 OFFCURVE",
"121 531 CURVE SMOOTH",
"124 534 OFFCURVE",
"128 534 OFFCURVE",
"131 533 CURVE SMOOTH",
"149 528 OFFCURVE",
"168 519 OFFCURVE",
"180 505 CURVE SMOOTH",
"189 495 OFFCURVE",
"203 491 OFFCURVE",
"215 496 CURVE SMOOTH",
"239 504 OFFCURVE",
"261 519 OFFCURVE",
"281 528 CURVE SMOOTH",
"288 530 OFFCURVE",
"294 534 OFFCURVE",
"299 539 CURVE SMOOTH",
"305 545 OFFCURVE",
"315 540 OFFCURVE",
"316 531 CURVE",
"316 530 OFFCURVE",
"316 529 OFFCURVE",
"316 528 CURVE",
"315 523 OFFCURVE",
"315 518 OFFCURVE",
"316 514 CURVE SMOOTH"
);
},
{
closed = 1;
nodes = (
"355 108 OFFCURVE",
"355 100 OFFCURVE",
"354 93 CURVE SMOOTH",
"350 80 OFFCURVE",
"345 65 OFFCURVE",
"338 53 CURVE SMOOTH",
"331 41 OFFCURVE",
"321 33 OFFCURVE",
"309 29 CURVE SMOOTH",
"296 24 OFFCURVE",
"286 19 OFFCURVE",
"275 9 CURVE",
"274 8 OFFCURVE",
"273 6 OFFCURVE",
"270 6 CURVE",
"270 6 OFFCURVE",
"269 6 OFFCURVE",
"269 6 CURVE",
"263 8 OFFCURVE",
"256 6 OFFCURVE",
"251 3 CURVE SMOOTH",
"248 -1 OFFCURVE",
"244 -3 OFFCURVE",
"239 -4 CURVE SMOOTH",
"213 -9 OFFCURVE",
"180 -6 OFFCURVE",
"156 4 CURVE",
"153 6 OFFCURVE",
"148 8 OFFCURVE",
"143 8 CURVE",
"105 14 OFFCURVE",
"80 41 OFFCURVE",
"63 71 CURVE",
"56 80 OFFCURVE",
"68 90 OFFCURVE",
"76 84 CURVE SMOOTH",
"81 79 OFFCURVE",
"88 74 OFFCURVE",
"93 70 CURVE SMOOTH",
"95 69 OFFCURVE",
"98 70 OFFCURVE",
"98 71 CURVE",
"99 73 OFFCURVE",
"101 74 OFFCURVE",
"103 73 CURVE",
"164 30 OFFCURVE",
"268 73 OFFCURVE",
"286 141 CURVE SMOOTH",
"288 146 OFFCURVE",
"283 146 OFFCURVE",
"281 148 CURVE",
"278 151 OFFCURVE",
"273 155 OFFCURVE",
"268 156 CURVE",
"266 158 OFFCURVE",
"265 158 OFFCURVE",
"265 158 CURVE",
"260 161 OFFCURVE",
"254 164 OFFCURVE",
"249 165 CURVE SMOOTH",
"236 168 OFFCURVE",
"225 171 OFFCURVE",
"211 171 CURVE",
"179 174 OFFCURVE",
"154 179 OFFCURVE",
"128 196 CURVE",
"126 198 OFFCURVE",
"126 199 OFFCURVE",
"126 200 CURVE",
"126 203 OFFCURVE",
"125 204 OFFCURVE",
"124 205 CURVE",
"114 211 OFFCURVE",
"110 221 OFFCURVE",
"103 231 CURVE SMOOTH",
"99 238 OFFCURVE",
"95 245 OFFCURVE",
"94 253 CURVE SMOOTH",
"91 268 OFFCURVE",
"86 283 OFFCURVE",
"86 291 CURVE",
"89 318 OFFCURVE",
"101 338 OFFCURVE",
"115 356 CURVE SMOOTH",
"121 364 OFFCURVE",
"129 370 OFFCURVE",
"136 374 CURVE SMOOTH",
"179 394 OFFCURVE",
"235 414 OFFCURVE",
"280 396 CURVE SMOOTH",
"286 394 OFFCURVE",
"291 393 OFFCURVE",
"298 393 CURVE",
"300 393 OFFCURVE",
"301 391 OFFCURVE",
"303 391 CURVE",
"311 389 OFFCURVE",
"320 385 OFFCURVE",
"326 379 CURVE SMOOTH",
"335 371 OFFCURVE",
"343 363 OFFCURVE",
"348 353 CURVE SMOOTH",
"354 340 OFFCURVE",
"344 326 OFFCURVE",
"330 328 CURVE SMOOTH",
"320 329 OFFCURVE",
"309 331 OFFCURVE",
"296 333 CURVE SMOOTH",
"274 334 OFFCURVE",
"241 330 OFFCURVE",
"215 323 CURVE",
"193 318 OFFCURVE",
"194 314 OFFCURVE",
"178 295 CURVE SMOOTH",
"168 283 OFFCURVE",
"159 279 OFFCURVE",
"158 268 CURVE SMOOTH",
"156 255 OFFCURVE",
"165 243 OFFCURVE",
"178 243 CURVE SMOOTH",
"183 243 OFFCURVE",
"188 241 OFFCURVE",
"193 241 CURVE",
"214 236 OFFCURVE",
"229 233 OFFCURVE",
"249 228 CURVE SMOOTH",
"254 226 OFFCURVE",
"260 224 OFFCURVE",
"265 221 CURVE SMOOTH",
"284 209 OFFCURVE",
"301 196 OFFCURVE",
"319 183 CURVE SMOOTH",
"325 178 OFFCURVE",
"330 171 OFFCURVE",
"334 164 CURVE",
"335 163 OFFCURVE",
"335 163 OFFCURVE",
"335 161 CURVE",
"350 149 OFFCURVE",
"350 134 OFFCURVE",
"354 115 CURVE SMOOTH"
);
}
);
width = 415;
}
);
unicode = 0160;
},
{
glyphname = T;
lastChange = "2020-11-04 22:34:44 +0000";
layers = (
{
layerId = master01;
paths = (
{
closed = 1;
nodes = (
"463 449 OFFCURVE",
"461 445 OFFCURVE",
"459 443 CURVE SMOOTH",
"454 438 OFFCURVE",
"446 434 OFFCURVE",
"439 434 CURVE SMOOTH",
"335 434 OFFCURVE",
"228 413 OFFCURVE",
"109 429 CURVE",
"96 431 OFFCURVE",
"86 436 OFFCURVE",
"78 445 CURVE SMOOTH",
"73 450 OFFCURVE",
"68 455 OFFCURVE",
"64 461 CURVE SMOOTH",
"58 471 OFFCURVE",
"63 484 OFFCURVE",
"74 486 CURVE SMOOTH",
"148 501 OFFCURVE",
"216 500 OFFCURVE",
"286 509 CURVE SMOOTH",
"311 513 OFFCURVE",
"358 519 OFFCURVE",
"393 514 CURVE SMOOTH",
"404 513 OFFCURVE",
"465 475 OFFCURVE",
"463 450 CURVE"
);
},
{
closed = 1;
nodes = (
"274 234 OFFCURVE",
"266 191 OFFCURVE",
"261 168 CURVE",
"261 160 OFFCURVE",
"266 160 OFFCURVE",
"266 153 CURVE",
"254 104 OFFCURVE",
"256 39 OFFCURVE",
"230 -6 CURVE",
"224 -19 OFFCURVE",
"209 -23 OFFCURVE",
"196 -16 CURVE",
"195 -15 OFFCURVE",
"194 -15 OFFCURVE",
"193 -14 CURVE",
"185 -10 OFFCURVE",
"178 -5 OFFCURVE",
"171 3 CURVE SMOOTH",
"163 15 OFFCURVE",
"153 26 OFFCURVE",
"151 44 CURVE SMOOTH",
"150 65 OFFCURVE",
"163 90 OFFCURVE",
"168 111 CURVE SMOOTH",
"188 201 OFFCURVE",
"198 305 OFFCURVE",
"225 390 CURVE",
"226 396 OFFCURVE",
"231 400 OFFCURVE",
"236 403 CURVE SMOOTH",
"241 404 OFFCURVE",
"248 404 OFFCURVE",
"253 401 CURVE SMOOTH",
"291 381 OFFCURVE",
"279 308 OFFCURVE",
"278 284 CURVE SMOOTH"
);
}
);
width = 524;
}
);
unicode = 0054;
},
{
glyphname = U;
lastChange = "2020-11-04 22:34:44 +0000";
layers = (
{
layerId = master01;
paths = (
{
closed = 1;
nodes = (
"481 415 OFFCURVE",
"479 383 OFFCURVE",
"474 365 CURVE SMOOTH",
"466 338 OFFCURVE",
"455 310 OFFCURVE",
"449 288 CURVE SMOOTH",
"443 265 OFFCURVE",
"443 243 OFFCURVE",
"436 223 CURVE SMOOTH",
"428 196 OFFCURVE",
"410 176 OFFCURVE",
"404 153 CURVE",
"401 148 OFFCURVE",
"399 143 OFFCURVE",
"396 138 CURVE",
"395 136 OFFCURVE",
"395 136 OFFCURVE",
"394 135 CURVE",
"390 130 OFFCURVE",
"386 123 OFFCURVE",
"385 116 CURVE SMOOTH",
"379 91 OFFCURVE",
"366 73 OFFCURVE",
"350 58 CURVE SMOOTH",
"348 56 OFFCURVE",
"346 53 OFFCURVE",
"348 50 CURVE SMOOTH",
"349 46 OFFCURVE",
"348 44 OFFCURVE",
"345 41 CURVE SMOOTH",
"334 31 OFFCURVE",
"320 21 OFFCURVE",
"311 13 CURVE SMOOTH",
"305 5 OFFCURVE",
"298 0 OFFCURVE",
"289 -3 CURVE SMOOTH",
"255 -15 OFFCURVE",
"229 -11 OFFCURVE",
"198 -6 CURVE SMOOTH",
"190 -5 OFFCURVE",
"183 -1 OFFCURVE",
"176 3 CURVE SMOOTH",
"160 14 OFFCURVE",
"140 21 OFFCURVE",
"130 39 CURVE SMOOTH",
"128 43 OFFCURVE",
"124 46 OFFCURVE",
"121 49 CURVE SMOOTH",
"46 119 OFFCURVE",
"56 254 OFFCURVE",
"74 369 CURVE",
"86 414 OFFCURVE",
"95 456 OFFCURVE",
"113 510 CURVE",
"115 515 OFFCURVE",
"118 519 OFFCURVE",
"123 521 CURVE SMOOTH",
"128 524 OFFCURVE",
"134 524 OFFCURVE",
"139 521 CURVE SMOOTH",
"171 505 OFFCURVE",
"205 481 OFFCURVE",
"208 444 CURVE SMOOTH",
"210 405 OFFCURVE",
"188 369 OFFCURVE",
"188 330 CURVE SMOOTH",
"188 325 OFFCURVE",
"186 320 OFFCURVE",
"185 315 CURVE SMOOTH",
"164 240 OFFCURVE",
"144 149 OFFCURVE",
"171 84 CURVE SMOOTH",
"176 70 OFFCURVE",
"190 63 OFFCURVE",
"205 65 CURVE SMOOTH",
"213 66 OFFCURVE",
"220 69 OFFCURVE",
"228 73 CURVE",
"234 74 OFFCURVE",
"240 78 OFFCURVE",
"245 83 CURVE",
"246 83 OFFCURVE",
"248 84 OFFCURVE",
"248 85 CURVE",
"250 91 OFFCURVE",
"254 98 OFFCURVE",
"259 103 CURVE SMOOTH",
"290 138 OFFCURVE",
"308 196 OFFCURVE",
"336 239 CURVE SMOOTH",
"339 244 OFFCURVE",
"341 248 OFFCURVE",
"343 253 CURVE SMOOTH",
"369 333 OFFCURVE",
"380 415 OFFCURVE",
"414 485 CURVE SMOOTH",
"418 493 OFFCURVE",
"425 496 OFFCURVE",
"434 496 CURVE",
"440 495 OFFCURVE",
"448 491 OFFCURVE",
"453 486 CURVE SMOOTH",
"458 483 OFFCURVE",
"463 478 OFFCURVE",
"466 471 CURVE",
"468 470 OFFCURVE",
"469 470 OFFCURVE",
"470 469 CURVE",
"481 461 OFFCURVE",
"486 448 OFFCURVE",
"485 435 CURVE"
);
}
);
width = 546;
}
);
unicode = 0055;
},
{
glyphname = Uacute;
lastChange = "2020-11-04 22:34:44 +0000";
layers = (
{
layerId = master01;
paths = (
{
closed = 1;
nodes = (
"339 529 OFFCURVE",
"339 513 OFFCURVE",
"328 503 CURVE",
"314 488 OFFCURVE",
"296 474 OFFCURVE",
"281 468 CURVE",
"280 466 OFFCURVE",
"280 466 OFFCURVE",
"279 466 CURVE",
"273 469 OFFCURVE",
"265 469 OFFCURVE",
"259 468 CURVE",
"258 468 OFFCURVE",
"258 466 OFFCURVE",
"256 466 CURVE",
"243 465 OFFCURVE",
"233 478 OFFCURVE",
"236 491 CURVE",
"244 511 OFFCURVE",
"256 529 OFFCURVE",
"273 545 CURVE SMOOTH",
"283 555 OFFCURVE",
"296 559 OFFCURVE",
"310 554 CURVE SMOOTH",
"319 551 OFFCURVE",
"325 548 OFFCURVE",
"330 541 CURVE SMOOTH"
);
},
{
closed = 1;
nodes = (
"391 349 OFFCURVE",
"365 311 OFFCURVE",
"359 274 CURVE SMOOTH",
"355 253 OFFCURVE",
"356 230 OFFCURVE",
"351 210 CURVE",
"346 184 OFFCURVE",
"333 146 OFFCURVE",
"324 120 CURVE SMOOTH",
"319 108 OFFCURVE",
"319 93 OFFCURVE",
"314 83 CURVE SMOOTH",
"310 73 OFFCURVE",
"299 65 OFFCURVE",
"294 55 CURVE SMOOTH",
"290 46 OFFCURVE",
"286 40 OFFCURVE",
"284 34 CURVE SMOOTH",
"280 26 OFFCURVE",
"275 19 OFFCURVE",
"269 14 CURVE",
"268 13 OFFCURVE",
"266 11 OFFCURVE",
"265 10 CURVE",
"259 4 OFFCURVE",
"250 -1 OFFCURVE",
"241 -4 CURVE SMOOTH",
"230 -6 OFFCURVE",
"219 -10 OFFCURVE",
"206 -13 CURVE SMOOTH",
"199 -15 OFFCURVE",
"190 -15 OFFCURVE",
"181 -14 CURVE SMOOTH",
"168 -11 OFFCURVE",
"155 -9 OFFCURVE",
"140 -3 CURVE SMOOTH",
"133 0 OFFCURVE",
"126 4 OFFCURVE",
"121 10 CURVE",
"116 14 OFFCURVE",
"111 19 OFFCURVE",
"106 21 CURVE SMOOTH",
"99 25 OFFCURVE",
"93 30 OFFCURVE",
"88 38 CURVE SMOOTH",
"69 64 OFFCURVE",
"59 91 OFFCURVE",
"60 128 CURVE SMOOTH",
"63 169 OFFCURVE",
"75 206 OFFCURVE",
"76 245 CURVE",
"78 250 OFFCURVE",
"78 256 OFFCURVE",
"80 261 CURVE",
"96 310 OFFCURVE",
"100 365 OFFCURVE",
"115 418 CURVE",
"115 420 OFFCURVE",
"116 423 OFFCURVE",
"116 424 CURVE",
"116 425 OFFCURVE",
"116 425 OFFCURVE",
"116 426 CURVE",
"118 428 OFFCURVE",
"120 429 OFFCURVE",
"123 429 CURVE",
"141 425 OFFCURVE",
"154 411 OFFCURVE",
"164 396 CURVE SMOOTH",
"173 385 OFFCURVE",
"176 370 OFFCURVE",
"174 356 CURVE SMOOTH",
"170 329 OFFCURVE",
"160 295 OFFCURVE",
"155 270 CURVE",
"155 268 OFFCURVE",
"158 263 OFFCURVE",
"158 263 CURVE",
"156 258 OFFCURVE",
"151 254 OFFCURVE",
"150 249 CURVE SMOOTH",
"144 219 OFFCURVE",
"140 186 OFFCURVE",
"135 146 CURVE SMOOTH",
"134 141 OFFCURVE",
"130 138 OFFCURVE",
"129 134 CURVE",
"129 129 OFFCURVE",
"133 123 OFFCURVE",
"133 116 CURVE SMOOTH",
"133 99 OFFCURVE",
"128 81 OFFCURVE",
"131 68 CURVE SMOOTH",
"133 65 OFFCURVE",
"134 63 OFFCURVE",
"135 60 CURVE SMOOTH",
"144 51 OFFCURVE",
"156 46 OFFCURVE",
"170 48 CURVE",
"176 48 OFFCURVE",
"184 49 OFFCURVE",
"190 51 CURVE SMOOTH",
"200 54 OFFCURVE",
"208 59 OFFCURVE",
"215 65 CURVE",
"223 74 OFFCURVE",
"230 84 OFFCURVE",
"238 94 CURVE SMOOTH",
"243 99 OFFCURVE",
"245 104 OFFCURVE",
"248 110 CURVE SMOOTH",
"253 124 OFFCURVE",
"256 138 OFFCURVE",
"264 149 CURVE SMOOTH",
"268 154 OFFCURVE",
"270 160 OFFCURVE",
"271 166 CURVE SMOOTH",
"278 188 OFFCURVE",
"286 208 OFFCURVE",
"291 229 CURVE SMOOTH",
"295 241 OFFCURVE",
"296 254 OFFCURVE",
"299 266 CURVE",
"305 288 OFFCURVE",
"316 311 OFFCURVE",
"321 339 CURVE",
"326 359 OFFCURVE",
"325 381 OFFCURVE",
"330 403 CURVE SMOOTH",
"333 416 OFFCURVE",
"348 424 OFFCURVE",
"360 419 CURVE SMOOTH",
"363 418 OFFCURVE",
"365 418 OFFCURVE",
"368 416 CURVE SMOOTH",
"381 410 OFFCURVE",
"390 396 OFFCURVE",
"390 383 CURVE"
);
}
);
width = 450;
}
);
unicode = 00DA;
},
{
glyphname = Ucircumflex;
lastChange = "2020-11-04 22:34:44 +0000";
layers = (
{
layerId = master01;
paths = (
{
closed = 1;
nodes = (
"340 478 OFFCURVE",
"339 469 OFFCURVE",
"333 466 CURVE SMOOTH",
"326 463 OFFCURVE",
"319 463 OFFCURVE",
"311 464 CURVE",
"294 470 OFFCURVE",
"283 483 OFFCURVE",
"270 494 CURVE SMOOTH",
"261 503 OFFCURVE",
"246 503 OFFCURVE",
"238 493 CURVE SMOOTH",
"226 481 OFFCURVE",
"216 468 OFFCURVE",
"205 456 CURVE SMOOTH",
"195 446 OFFCURVE",
"179 445 OFFCURVE",
"168 454 CURVE SMOOTH",
"164 456 OFFCURVE",
"160 460 OFFCURVE",
"158 464 CURVE SMOOTH",
"150 473 OFFCURVE",
"150 486 OFFCURVE",
"159 495 CURVE SMOOTH",
"176 511 OFFCURVE",
"193 529 OFFCURVE",
"209 545 CURVE SMOOTH",
"219 556 OFFCURVE",
"234 561 OFFCURVE",
"248 558 CURVE",
"279 553 OFFCURVE",
"296 523 OFFCURVE",
"320 504 CURVE SMOOTH",
"326 499 OFFCURVE",
"331 493 OFFCURVE",
"334 486 CURVE",
"335 485 OFFCURVE",
"335 484 OFFCURVE",
"336 483 CURVE"
);
},
{
closed = 1;
nodes = (
"394 353 OFFCURVE",
"384 333 OFFCURVE",
"379 309 CURVE SMOOTH",
"378 306 OFFCURVE",
"381 303 OFFCURVE",
"380 300 CURVE SMOOTH",
"379 295 OFFCURVE",
"378 294 OFFCURVE",
"376 285 CURVE SMOOTH",
"375 268 OFFCURVE",
"365 249 OFFCURVE",
"365 230 CURVE SMOOTH",
"365 205 OFFCURVE",
"355 171 OFFCURVE",
"349 149 CURVE SMOOTH",
"344 134 OFFCURVE",
"339 105 OFFCURVE",
"323 68 CURVE",
"311 51 OFFCURVE",
"298 31 OFFCURVE",
"285 16 CURVE",
"281 10 OFFCURVE",
"275 6 OFFCURVE",
"270 3 CURVE",
"269 1 OFFCURVE",
"268 1 OFFCURVE",
"268 1 CURVE",
"260 -5 OFFCURVE",
"251 -9 OFFCURVE",
"243 -11 CURVE",
"240 -11 OFFCURVE",
"239 -11 OFFCURVE",
"238 -13 CURVE",
"233 -13 OFFCURVE",
"228 -14 OFFCURVE",
"223 -14 CURVE",
"205 -13 OFFCURVE",
"189 -19 OFFCURVE",
"173 -16 CURVE SMOOTH",
"109 -5 OFFCURVE",
"79 50 OFFCURVE",
"61 110 CURVE SMOOTH",
"60 115 OFFCURVE",
"59 121 OFFCURVE",
"59 126 CURVE SMOOTH",
"60 204 OFFCURVE",
"74 293 OFFCURVE",
"93 375 CURVE",
"96 388 OFFCURVE",
"109 394 OFFCURVE",
"121 390 CURVE",
"133 385 OFFCURVE",
"143 379 OFFCURVE",
"150 370 CURVE SMOOTH",
"160 360 OFFCURVE",
"165 345 OFFCURVE",
"164 331 CURVE SMOOTH",
"155 244 OFFCURVE",
"126 159 OFFCURVE",
"134 80 CURVE SMOOTH",
"135 74 OFFCURVE",
"136 68 OFFCURVE",
"140 61 CURVE SMOOTH",
"146 53 OFFCURVE",
"156 46 OFFCURVE",
"168 46 CURVE",
"181 45 OFFCURVE",
"195 45 OFFCURVE",
"210 51 CURVE SMOOTH",
"221 56 OFFCURVE",
"234 71 OFFCURVE",
"241 81 CURVE SMOOTH",
"255 98 OFFCURVE",
"266 126 OFFCURVE",
"278 154 CURVE SMOOTH",
"291 186 OFFCURVE",
"295 213 OFFCURVE",
"305 251 CURVE SMOOTH",
"313 280 OFFCURVE",
"328 310 OFFCURVE",
"331 340 CURVE SMOOTH",
"334 354 OFFCURVE",
"335 366 OFFCURVE",
"340 375 CURVE SMOOTH",
"343 379 OFFCURVE",
"344 384 OFFCURVE",
"344 388 CURVE SMOOTH",
"344 395 OFFCURVE",
"349 400 OFFCURVE",
"355 401 CURVE SMOOTH",
"360 403 OFFCURVE",
"366 401 OFFCURVE",
"371 401 CURVE",
"386 399 OFFCURVE",
"396 386 OFFCURVE",
"395 371 CURVE SMOOTH"
);
}
);
width = 454;
}
);
unicode = 00DB;
},
{
glyphname = Udieresis;
lastChange = "2020-11-04 22:34:44 +0000";
layers = (
{
layerId = master01;
paths = (
{
closed = 1;
nodes = (
"326 494 OFFCURVE",
"320 476 OFFCURVE",
"305 475 CURVE SMOOTH",
"298 474 OFFCURVE",
"288 475 OFFCURVE",
"279 479 CURVE SMOOTH",
"266 483 OFFCURVE",
"258 494 OFFCURVE",
"258 508 CURVE SMOOTH",
"258 515 OFFCURVE",
"258 523 OFFCURVE",
"259 526 CURVE SMOOTH",
"271 549 OFFCURVE",
"299 521 OFFCURVE",
"316 505 CURVE"
);
},
{
closed = 1;
nodes = (
"184 483 OFFCURVE",
"175 466 OFFCURVE",
"160 465 CURVE SMOOTH",
"155 464 OFFCURVE",
"150 465 OFFCURVE",
"144 466 CURVE SMOOTH",
"130 470 OFFCURVE",
"120 483 OFFCURVE",
"118 496 CURVE",
"116 499 OFFCURVE",
"116 503 OFFCURVE",
"116 505 CURVE",
"114 519 OFFCURVE",
"126 529 OFFCURVE",
"139 525 CURVE SMOOTH",
"156 520 OFFCURVE",
"170 510 OFFCURVE",
"178 496 CURVE SMOOTH"
);
},
{
closed = 1;
nodes = (
"379 356 OFFCURVE",
"374 340 OFFCURVE",
"369 324 CURVE SMOOTH",
"366 318 OFFCURVE",
"365 310 OFFCURVE",
"366 303 CURVE SMOOTH",
"368 294 OFFCURVE",
"359 281 OFFCURVE",
"358 269 CURVE",
"358 263 OFFCURVE",
"361 253 OFFCURVE",
"360 246 CURVE SMOOTH",
"358 230 OFFCURVE",
"349 221 OFFCURVE",
"346 204 CURVE",
"341 181 OFFCURVE",
"338 158 OFFCURVE",
"333 135 CURVE SMOOTH",
"330 128 OFFCURVE",
"328 121 OFFCURVE",
"323 115 CURVE",
"321 114 OFFCURVE",
"325 109 OFFCURVE",
"325 105 CURVE",
"324 101 OFFCURVE",
"320 99 OFFCURVE",
"319 94 CURVE SMOOTH",
"314 78 OFFCURVE",
"315 68 OFFCURVE",
"308 54 CURVE SMOOTH",
"301 44 OFFCURVE",
"294 40 OFFCURVE",
"289 33 CURVE",
"289 31 OFFCURVE",
"288 30 OFFCURVE",
"288 29 CURVE",
"286 21 OFFCURVE",
"283 16 OFFCURVE",
"278 11 CURVE SMOOTH",
"271 6 OFFCURVE",
"264 3 OFFCURVE",
"255 3 CURVE SMOOTH",
"251 3 OFFCURVE",
"249 3 OFFCURVE",
"245 1 CURVE SMOOTH",
"239 -1 OFFCURVE",
"231 -3 OFFCURVE",
"224 -3 CURVE",
"149 1 OFFCURVE",
"78 14 OFFCURVE",
"60 126 CURVE",
"58 219 OFFCURVE",
"69 305 OFFCURVE",
"80 384 CURVE SMOOTH",
"81 398 OFFCURVE",
"98 404 OFFCURVE",
"108 395 CURVE SMOOTH",
"121 384 OFFCURVE",
"136 364 OFFCURVE",
"134 351 CURVE SMOOTH",
"133 346 OFFCURVE",
"133 341 OFFCURVE",
"133 336 CURVE",
"134 324 OFFCURVE",
"129 311 OFFCURVE",
"130 300 CURVE SMOOTH",
"131 294 OFFCURVE",
"131 288 OFFCURVE",
"130 283 CURVE SMOOTH",
"125 251 OFFCURVE",
"125 226 OFFCURVE",
"126 200 CURVE",
"128 196 OFFCURVE",
"128 194 OFFCURVE",
"126 190 CURVE",
"123 150 OFFCURVE",
"124 115 OFFCURVE",
"141 86 CURVE SMOOTH",
"149 74 OFFCURVE",
"161 65 OFFCURVE",
"176 63 CURVE SMOOTH",
"218 54 OFFCURVE",
"234 75 OFFCURVE",
"238 83 CURVE SMOOTH",
"239 86 OFFCURVE",
"240 89 OFFCURVE",
"243 91 CURVE SMOOTH",
"276 141 OFFCURVE",
"284 220 OFFCURVE",
"298 286 CURVE",
"300 293 OFFCURVE",
"300 299 OFFCURVE",
"300 305 CURVE SMOOTH",
"300 313 OFFCURVE",
"301 320 OFFCURVE",
"304 328 CURVE SMOOTH",
"306 334 OFFCURVE",
"308 340 OFFCURVE",
"308 339 CURVE",
"315 355 OFFCURVE",
"304 398 OFFCURVE",
"331 403 CURVE SMOOTH",
"339 404 OFFCURVE",
"343 400 OFFCURVE",
"351 399 CURVE SMOOTH",
"365 398 OFFCURVE",
"376 386 OFFCURVE",
"378 371 CURVE SMOOTH"
);
}
);
width = 438;
}
);
unicode = 00DC;
},
{
glyphname = Ugrave;
lastChange = "2020-11-04 22:34:44 +0000";
layers = (
{
layerId = master01;
paths = (
{
closed = 1;
nodes = (
"263 459 OFFCURVE",
"251 446 OFFCURVE",
"238 449 CURVE SMOOTH",
"210 454 OFFCURVE",
"194 484 OFFCURVE",
"185 514 CURVE SMOOTH",
"183 524 OFFCURVE",
"193 534 OFFCURVE",
"203 530 CURVE SMOOTH",
"233 521 OFFCURVE",
"255 499 OFFCURVE",
"260 471 CURVE SMOOTH"
);
},
{
closed = 1;
nodes = (
"365 353 OFFCURVE",
"366 345 OFFCURVE",
"365 339 CURVE SMOOTH",
"361 321 OFFCURVE",
"355 314 OFFCURVE",
"354 300 CURVE SMOOTH",
"353 288 OFFCURVE",
"348 281 OFFCURVE",
"346 274 CURVE SMOOTH",
"344 261 OFFCURVE",
"344 251 OFFCURVE",
"339 243 CURVE SMOOTH",
"335 236 OFFCURVE",
"333 229 OFFCURVE",
"333 221 CURVE",
"330 198 OFFCURVE",
"321 168 OFFCURVE",
"321 168 CURVE",
"324 169 OFFCURVE",
"315 151 OFFCURVE",
"315 145 CURVE SMOOTH",
"315 140 OFFCURVE",
"314 135 OFFCURVE",
"311 130 CURVE SMOOTH",
"294 80 OFFCURVE",
"278 29 OFFCURVE",
"236 3 CURVE SMOOTH",
"226 -4 OFFCURVE",
"215 -8 OFFCURVE",
"204 -6 CURVE",
"155 -5 OFFCURVE",
"123 14 OFFCURVE",
"93 43 CURVE SMOOTH",
"88 48 OFFCURVE",
"83 55 OFFCURVE",
"80 63 CURVE SMOOTH",
"79 65 OFFCURVE",
"78 68 OFFCURVE",
"76 69 CURVE",
"73 74 OFFCURVE",
"70 80 OFFCURVE",
"69 88 CURVE SMOOTH",
"64 105 OFFCURVE",
"58 128 OFFCURVE",
"63 140 CURVE SMOOTH",
"65 146 OFFCURVE",
"65 151 OFFCURVE",
"66 158 CURVE",
"66 190 OFFCURVE",
"76 234 OFFCURVE",
"85 274 CURVE SMOOTH",
"93 313 OFFCURVE",
"100 353 OFFCURVE",
"114 385 CURVE",
"120 396 OFFCURVE",
"135 400 OFFCURVE",
"145 393 CURVE",
"146 391 OFFCURVE",
"146 391 OFFCURVE",
"148 390 CURVE",
"159 381 OFFCURVE",
"165 366 OFFCURVE",
"164 353 CURVE SMOOTH",
"161 303 OFFCURVE",
"159 255 OFFCURVE",
"150 210 CURVE",
"150 209 OFFCURVE",
"150 209 OFFCURVE",
"149 208 CURVE",
"148 203 OFFCURVE",
"146 198 OFFCURVE",
"145 191 CURVE SMOOTH",
"141 156 OFFCURVE",
"133 125 OFFCURVE",
"133 95 CURVE",
"134 84 OFFCURVE",
"138 73 OFFCURVE",
"144 64 CURVE SMOOTH",
"150 55 OFFCURVE",
"159 49 OFFCURVE",
"176 53 CURVE SMOOTH",
"181 54 OFFCURVE",
"193 63 OFFCURVE",
"199 68 CURVE SMOOTH",
"230 98 OFFCURVE",
"265 169 OFFCURVE",
"279 219 CURVE SMOOTH",
"288 250 OFFCURVE",
"294 268 OFFCURVE",
"298 296 CURVE SMOOTH",
"300 313 OFFCURVE",
"310 330 OFFCURVE",
"310 346 CURVE",
"311 360 OFFCURVE",
"311 380 OFFCURVE",
"316 395 CURVE SMOOTH",
"318 399 OFFCURVE",
"320 401 OFFCURVE",
"324 404 CURVE SMOOTH",
"328 405 OFFCURVE",
"333 405 OFFCURVE",
"335 404 CURVE SMOOTH",
"340 401 OFFCURVE",
"344 400 OFFCURVE",
"346 398 CURVE SMOOTH",
"359 390 OFFCURVE",
"366 376 OFFCURVE",
"365 361 CURVE"
);
}
);
width = 426;
}
);
unicode = 00D9;
},
{
glyphname = V;
lastChange = "2020-11-04 22:34:44 +0000";
layers = (
{
layerId = master01;
paths = (
{
closed = 1;
nodes = (
"573 428 OFFCURVE",
"573 424 OFFCURVE",
"571 421 CURVE",
"570 409 OFFCURVE",
"564 399 OFFCURVE",
"554 390 CURVE SMOOTH",
"544 380 OFFCURVE",
"539 366 OFFCURVE",
"536 353 CURVE",
"536 345 OFFCURVE",
"533 339 OFFCURVE",
"529 333 CURVE SMOOTH",
"514 309 OFFCURVE",
"503 279 OFFCURVE",
"484 255 CURVE SMOOTH",
"483 253 OFFCURVE",
"483 251 OFFCURVE",
"483 249 CURVE",
"484 241 OFFCURVE",
"483 234 OFFCURVE",
"479 228 CURVE SMOOTH",
"456 190 OFFCURVE",
"429 159 OFFCURVE",
"410 118 CURVE SMOOTH",
"408 113 OFFCURVE",
"405 108 OFFCURVE",
"401 104 CURVE SMOOTH",
"369 66 OFFCURVE",
"334 33 OFFCURVE",
"299 0 CURVE SMOOTH",
"291 -6 OFFCURVE",
"283 -11 OFFCURVE",
"273 -13 CURVE SMOOTH",
"261 -15 OFFCURVE",
"251 -16 OFFCURVE",
"243 -19 CURVE SMOOTH",
"229 -24 OFFCURVE",
"215 -23 OFFCURVE",
"203 -18 CURVE SMOOTH",
"193 -13 OFFCURVE",
"184 -8 OFFCURVE",
"174 -4 CURVE SMOOTH",
"165 0 OFFCURVE",
"159 5 OFFCURVE",
"153 11 CURVE SMOOTH",
"95 76 OFFCURVE",
"78 173 OFFCURVE",
"65 271 CURVE SMOOTH",
"64 286 OFFCURVE",
"68 303 OFFCURVE",
"65 318 CURVE SMOOTH",
"59 364 OFFCURVE",
"53 436 OFFCURVE",
"63 493 CURVE SMOOTH",
"64 504 OFFCURVE",
"73 511 OFFCURVE",
"84 511 CURVE",
"86 511 OFFCURVE",
"89 511 OFFCURVE",
"91 511 CURVE",
"130 519 OFFCURVE",
"170 479 OFFCURVE",
"179 446 CURVE SMOOTH",
"186 418 OFFCURVE",
"175 385 OFFCURVE",
"174 358 CURVE",
"174 350 OFFCURVE",
"176 341 OFFCURVE",
"176 334 CURVE SMOOTH",
"176 301 OFFCURVE",
"174 284 OFFCURVE",
"179 250 CURVE SMOOTH",
"181 233 OFFCURVE",
"179 214 OFFCURVE",
"181 196 CURVE SMOOTH",
"184 175 OFFCURVE",
"193 156 OFFCURVE",
"194 138 CURVE SMOOTH",
"195 121 OFFCURVE",
"195 104 OFFCURVE",
"199 86 CURVE SMOOTH",
"201 75 OFFCURVE",
"215 69 OFFCURVE",
"225 76 CURVE",
"341 151 OFFCURVE",
"398 300 OFFCURVE",
"476 423 CURVE SMOOTH",
"480 429 OFFCURVE",
"484 435 OFFCURVE",
"485 443 CURVE SMOOTH",
"491 478 OFFCURVE",
"531 479 OFFCURVE",
"558 464 CURVE SMOOTH",
"570 458 OFFCURVE",
"576 444 OFFCURVE",
"574 430 CURVE"
);
}
);
width = 631;
}
);
unicode = 0056;
},
{
glyphname = W;
lastChange = "2020-11-04 22:34:44 +0000";
layers = (
{
layerId = master01;
paths = (
{
closed = 1;
nodes = (
"765 403 OFFCURVE",
"763 398 OFFCURVE",
"761 390 CURVE SMOOTH",
"760 384 OFFCURVE",
"758 379 OFFCURVE",
"754 374 CURVE",
"754 373 OFFCURVE",
"753 371 OFFCURVE",
"751 370 CURVE",
"748 366 OFFCURVE",
"744 361 OFFCURVE",
"741 355 CURVE SMOOTH",
"693 259 OFFCURVE",
"636 161 OFFCURVE",
"564 64 CURVE SMOOTH",
"560 60 OFFCURVE",
"558 56 OFFCURVE",
"554 54 CURVE SMOOTH",
"544 45 OFFCURVE",
"539 23 OFFCURVE",
"533 19 CURVE SMOOTH",
"529 18 OFFCURVE",
"526 15 OFFCURVE",
"524 13 CURVE SMOOTH",
"519 8 OFFCURVE",
"511 5 OFFCURVE",
"504 4 CURVE SMOOTH",
"499 3 OFFCURVE",
"501 0 OFFCURVE",
"490 4 CURVE SMOOTH",
"475 9 OFFCURVE",
"448 34 OFFCURVE",
"439 48 CURVE SMOOTH",
"425 66 OFFCURVE",
"399 91 OFFCURVE",
"393 109 CURVE",
"379 140 OFFCURVE",
"378 178 OFFCURVE",
"379 211 CURVE",
"379 220 OFFCURVE",
"368 224 OFFCURVE",
"363 216 CURVE SMOOTH",
"349 198 OFFCURVE",
"335 174 OFFCURVE",
"319 155 CURVE SMOOTH",
"314 149 OFFCURVE",
"310 141 OFFCURVE",
"309 134 CURVE SMOOTH",
"304 114 OFFCURVE",
"289 94 OFFCURVE",
"273 81 CURVE",
"271 79 OFFCURVE",
"269 78 OFFCURVE",
"268 75 CURVE",
"261 70 OFFCURVE",
"245 55 OFFCURVE",
"238 38 CURVE",
"233 29 OFFCURVE",
"226 20 OFFCURVE",
"218 15 CURVE SMOOTH",
"208 9 OFFCURVE",
"199 3 OFFCURVE",
"190 -4 CURVE SMOOTH",
"181 -10 OFFCURVE",
"171 -13 OFFCURVE",
"163 -13 CURVE",
"153 -11 OFFCURVE",
"144 -5 OFFCURVE",
"140 4 CURVE",
"140 4 OFFCURVE",
"139 5 OFFCURVE",
"138 5 CURVE",
"130 9 OFFCURVE",
"124 13 OFFCURVE",
"119 19 CURVE SMOOTH",
"70 71 OFFCURVE",
"60 170 OFFCURVE",
"60 258 CURVE SMOOTH",
"60 275 OFFCURVE",
"59 291 OFFCURVE",
"63 306 CURVE SMOOTH",
"65 314 OFFCURVE",
"60 319 OFFCURVE",
"60 326 CURVE",
"65 385 OFFCURVE",
"78 440 OFFCURVE",
"91 501 CURVE",
"95 514 OFFCURVE",
"108 521 OFFCURVE",
"120 519 CURVE SMOOTH",
"164 508 OFFCURVE",
"181 473 OFFCURVE",
"180 426 CURVE",
"179 419 OFFCURVE",
"173 414 OFFCURVE",
"171 406 CURVE SMOOTH",
"170 399 OFFCURVE",
"175 390 OFFCURVE",
"174 383 CURVE",
"173 348 OFFCURVE",
"161 313 OFFCURVE",
"159 278 CURVE SMOOTH",
"155 230 OFFCURVE",
"159 183 OFFCURVE",
"159 133 CURVE SMOOTH",
"159 125 OFFCURVE",
"169 120 OFFCURVE",
"175 126 CURVE SMOOTH",
"265 213 OFFCURVE",
"328 330 OFFCURVE",
"398 440 CURVE SMOOTH",
"405 451 OFFCURVE",
"420 456 OFFCURVE",
"434 451 CURVE SMOOTH",
"441 449 OFFCURVE",
"446 445 OFFCURVE",
"451 440 CURVE",
"463 433 OFFCURVE",
"469 419 OFFCURVE",
"468 405 CURVE",
"464 301 OFFCURVE",
"471 219 OFFCURVE",
"484 146 CURVE SMOOTH",
"485 138 OFFCURVE",
"495 136 OFFCURVE",
"499 143 CURVE SMOOTH",
"579 264 OFFCURVE",
"636 349 OFFCURVE",
"693 455 CURVE SMOOTH",
"699 466 OFFCURVE",
"709 473 OFFCURVE",
"721 474 CURVE SMOOTH",
"730 475 OFFCURVE",
"726 471 OFFCURVE",
"731 470 CURVE SMOOTH",
"741 466 OFFCURVE",
"750 460 OFFCURVE",
"756 453 CURVE",
"758 451 OFFCURVE",
"759 450 OFFCURVE",
"760 449 CURVE",
"769 438 OFFCURVE",
"773 423 OFFCURVE",
"768 410 CURVE SMOOTH"
);
}
);
width = 830;
}
);
unicode = 0057;
},
{
glyphname = X;
lastChange = "2020-11-04 22:34:44 +0000";
layers = (
{
layerId = master01;
paths = (
{
closed = 1;
nodes = (
"475 400 OFFCURVE",
"455 378 OFFCURVE",
"430 361 CURVE",
"425 356 OFFCURVE",
"420 351 OFFCURVE",
"415 345 CURVE SMOOTH",
"413 340 OFFCURVE",
"405 335 OFFCURVE",
"400 331 CURVE SMOOTH",
"395 329 OFFCURVE",
"391 325 OFFCURVE",
"388 321 CURVE SMOOTH",
"366 298 OFFCURVE",
"355 279 OFFCURVE",
"338 255 CURVE SMOOTH",
"329 244 OFFCURVE",
"328 229 OFFCURVE",
"333 216 CURVE SMOOTH",
"358 161 OFFCURVE",
"394 106 OFFCURVE",
"420 54 CURVE",
"428 41 OFFCURVE",
"428 26 OFFCURVE",
"421 13 CURVE SMOOTH",
"419 8 OFFCURVE",
"415 1 OFFCURVE",
"413 -5 CURVE SMOOTH",
"410 -9 OFFCURVE",
"406 -11 OFFCURVE",
"403 -14 CURVE SMOOTH",
"399 -15 OFFCURVE",
"394 -15 OFFCURVE",
"390 -14 CURVE SMOOTH",
"385 -11 OFFCURVE",
"379 -10 OFFCURVE",
"374 -9 CURVE SMOOTH",
"360 -5 OFFCURVE",
"349 5 OFFCURVE",
"343 18 CURVE SMOOTH",
"321 59 OFFCURVE",
"296 103 OFFCURVE",
"275 143 CURVE SMOOTH",
"270 154 OFFCURVE",
"256 156 OFFCURVE",
"246 150 CURVE",
"246 149 OFFCURVE",
"245 149 OFFCURVE",
"244 149 CURVE",
"241 146 OFFCURVE",
"239 144 OFFCURVE",
"239 140 CURVE",
"238 138 OFFCURVE",
"236 134 OFFCURVE",
"234 131 CURVE SMOOTH",
"198 96 OFFCURVE",
"165 40 OFFCURVE",
"124 3 CURVE SMOOTH",
"115 -5 OFFCURVE",
"104 -9 OFFCURVE",
"93 -6 CURVE SMOOTH",
"83 -4 OFFCURVE",
"73 4 OFFCURVE",
"69 14 CURVE SMOOTH",
"65 23 OFFCURVE",
"63 33 OFFCURVE",
"61 43 CURVE SMOOTH",
"60 58 OFFCURVE",
"64 71 OFFCURVE",
"73 83 CURVE SMOOTH",
"93 106 OFFCURVE",
"110 135 OFFCURVE",
"133 161 CURVE SMOOTH",
"145 176 OFFCURVE",
"164 189 OFFCURVE",
"174 203 CURVE SMOOTH",
"176 206 OFFCURVE",
"175 213 OFFCURVE",
"178 216 CURVE SMOOTH",
"190 233 OFFCURVE",
"219 248 OFFCURVE",
"218 268 CURVE",
"218 276 OFFCURVE",
"198 298 OFFCURVE",
"194 306 CURVE",
"183 341 OFFCURVE",
"135 403 OFFCURVE",
"124 445 CURVE SMOOTH",
"121 454 OFFCURVE",
"121 470 OFFCURVE",
"124 485 CURVE SMOOTH",
"126 501 OFFCURVE",
"143 510 OFFCURVE",
"156 504 CURVE SMOOTH",
"184 493 OFFCURVE",
"215 436 OFFCURVE",
"263 355 CURVE SMOOTH",
"269 345 OFFCURVE",
"281 344 OFFCURVE",
"289 353 CURVE SMOOTH",
"331 399 OFFCURVE",
"369 453 OFFCURVE",
"415 494 CURVE SMOOTH",
"425 503 OFFCURVE",
"441 504 OFFCURVE",
"451 495 CURVE",
"453 494 OFFCURVE",
"454 494 OFFCURVE",
"454 493 CURVE",
"461 488 OFFCURVE",
"468 481 OFFCURVE",
"473 474 CURVE",
"474 470 OFFCURVE",
"475 468 OFFCURVE",
"478 465 CURVE SMOOTH",
"485 454 OFFCURVE",
"488 440 OFFCURVE",
"484 426 CURVE SMOOTH"
);
}
);
width = 546;
}
);
unicode = 0058;
},
{
glyphname = Y;
lastChange = "2020-11-04 22:34:44 +0000";
layers = (
{
layerId = master01;
paths = (
{
closed = 1;
nodes = (
"464 430 OFFCURVE",
"454 426 OFFCURVE",
"448 420 CURVE SMOOTH",
"439 411 OFFCURVE",
"429 396 OFFCURVE",
"423 393 CURVE SMOOTH",
"420 390 OFFCURVE",
"411 391 OFFCURVE",
"410 390 CURVE",
"405 385 OFFCURVE",
"403 376 OFFCURVE",
"396 371 CURVE SMOOTH",
"394 369 OFFCURVE",
"388 369 OFFCURVE",
"385 366 CURVE SMOOTH",
"380 361 OFFCURVE",
"379 351 OFFCURVE",
"373 348 CURVE SMOOTH",
"369 344 OFFCURVE",
"361 345 OFFCURVE",
"356 340 CURVE SMOOTH",
"353 338 OFFCURVE",
"353 329 OFFCURVE",
"350 326 CURVE SMOOTH",
"344 320 OFFCURVE",
"340 319 OFFCURVE",
"335 314 CURVE SMOOTH",
"328 306 OFFCURVE",
"326 298 OFFCURVE",
"323 291 CURVE SMOOTH",
"319 285 OFFCURVE",
"318 279 OFFCURVE",
"316 274 CURVE SMOOTH",
"313 250 OFFCURVE",
"311 229 OFFCURVE",
"306 198 CURVE SMOOTH",
"296 135 OFFCURVE",
"278 83 OFFCURVE",
"269 13 CURVE",
"266 1 OFFCURVE",
"259 -8 OFFCURVE",
"249 -11 CURVE SMOOTH",
"223 -21 OFFCURVE",
"204 9 OFFCURVE",
"196 45 CURVE SMOOTH",
"195 51 OFFCURVE",
"195 59 OFFCURVE",
"196 65 CURVE SMOOTH",
"201 94 OFFCURVE",
"210 134 OFFCURVE",
"214 166 CURVE SMOOTH",
"215 171 OFFCURVE",
"216 176 OFFCURVE",
"219 181 CURVE",
"219 183 OFFCURVE",
"220 184 OFFCURVE",
"220 186 CURVE",
"223 191 OFFCURVE",
"225 198 OFFCURVE",
"225 204 CURVE",
"229 230 OFFCURVE",
"238 253 OFFCURVE",
"246 278 CURVE SMOOTH",
"254 298 OFFCURVE",
"250 323 OFFCURVE",
"258 340 CURVE SMOOTH",
"263 353 OFFCURVE",
"278 373 OFFCURVE",
"286 385 CURVE SMOOTH",
"308 415 OFFCURVE",
"333 435 OFFCURVE",
"354 461 CURVE SMOOTH",
"358 466 OFFCURVE",
"363 471 OFFCURVE",
"368 474 CURVE SMOOTH",
"370 476 OFFCURVE",
"373 478 OFFCURVE",
"374 481 CURVE SMOOTH",
"378 488 OFFCURVE",
"383 493 OFFCURVE",
"389 496 CURVE SMOOTH",
"393 500 OFFCURVE",
"396 504 OFFCURVE",
"400 508 CURVE SMOOTH",
"409 519 OFFCURVE",
"424 523 OFFCURVE",
"438 516 CURVE SMOOTH",
"466 501 OFFCURVE",
"488 463 OFFCURVE",
"466 434 CURVE SMOOTH"
);
},
{
closed = 1;
nodes = (
"226 320 OFFCURVE",
"230 309 OFFCURVE",
"220 294 CURVE",
"195 263 OFFCURVE",
"164 306 OFFCURVE",
"143 336 CURVE SMOOTH",
"120 370 OFFCURVE",
"93 418 OFFCURVE",
"75 450 CURVE SMOOTH",
"71 456 OFFCURVE",
"69 463 OFFCURVE",
"68 470 CURVE",
"68 475 OFFCURVE",
"65 480 OFFCURVE",
"63 485 CURVE SMOOTH",
"58 499 OFFCURVE",
"64 514 OFFCURVE",
"78 519 CURVE SMOOTH",
"121 534 OFFCURVE",
"143 473 OFFCURVE",
"218 359 CURVE SMOOTH",
"224 350 OFFCURVE",
"226 339 OFFCURVE",
"226 329 CURVE SMOOTH"
);
}
);
width = 536;
}
);
unicode = 0059;
},
{
glyphname = Yacute;
lastChange = "2020-11-04 22:34:44 +0000";
layers = (
{
layerId = master01;
paths = (
{
closed = 1;
nodes = (
"265 475 OFFCURVE",
"233 448 OFFCURVE",
"200 448 CURVE SMOOTH",
"186 448 OFFCURVE",
"178 460 OFFCURVE",
"180 474 CURVE",
"185 490 OFFCURVE",
"193 508 OFFCURVE",
"199 523 CURVE SMOOTH",
"204 535 OFFCURVE",
"218 541 OFFCURVE",
"230 538 CURVE SMOOTH",
"244 533 OFFCURVE",
"255 526 OFFCURVE",
"260 515 CURVE SMOOTH",
"261 513 OFFCURVE",
"264 511 OFFCURVE",
"265 511 CURVE",
"268 511 OFFCURVE",
"269 510 OFFCURVE",
"269 508 CURVE"
);
},
{
closed = 1;
nodes = (
"394 399 OFFCURVE",
"393 395 OFFCURVE",
"390 394 CURVE",
"388 389 OFFCURVE",
"385 385 OFFCURVE",
"383 380 CURVE SMOOTH",
"380 374 OFFCURVE",
"376 369 OFFCURVE",
"371 364 CURVE SMOOTH",
"366 359 OFFCURVE",
"361 353 OFFCURVE",
"358 345 CURVE SMOOTH",
"349 326 OFFCURVE",
"330 315 OFFCURVE",
"323 296 CURVE",
"320 293 OFFCURVE",
"318 288 OFFCURVE",
"313 285 CURVE SMOOTH",
"309 283 OFFCURVE",
"305 279 OFFCURVE",
"303 275 CURVE SMOOTH",
"294 261 OFFCURVE",
"279 250 OFFCURVE",
"268 239 CURVE SMOOTH",
"258 229 OFFCURVE",
"253 215 OFFCURVE",
"255 201 CURVE SMOOTH",
"256 193 OFFCURVE",
"254 183 OFFCURVE",
"249 175 CURVE",
"246 169 OFFCURVE",
"244 161 OFFCURVE",
"244 155 CURVE",
"241 125 OFFCURVE",
"229 99 OFFCURVE",
"226 73 CURVE",
"226 66 OFFCURVE",
"224 60 OFFCURVE",
"221 54 CURVE SMOOTH",
"211 33 OFFCURVE",
"210 9 OFFCURVE",
"190 -1 CURVE",
"180 -8 OFFCURVE",
"168 -5 OFFCURVE",
"159 3 CURVE SMOOTH",
"151 10 OFFCURVE",
"148 21 OFFCURVE",
"148 33 CURVE",
"150 63 OFFCURVE",
"155 99 OFFCURVE",
"158 125 CURVE",
"158 130 OFFCURVE",
"158 134 OFFCURVE",
"159 138 CURVE SMOOTH",
"163 148 OFFCURVE",
"168 174 OFFCURVE",
"171 200 CURVE SMOOTH",
"173 214 OFFCURVE",
"168 229 OFFCURVE",
"158 239 CURVE SMOOTH",
"156 241 OFFCURVE",
"154 244 OFFCURVE",
"151 246 CURVE SMOOTH",
"145 251 OFFCURVE",
"141 256 OFFCURVE",
"139 264 CURVE",
"135 270 OFFCURVE",
"131 276 OFFCURVE",
"126 281 CURVE SMOOTH",
"123 286 OFFCURVE",
"119 291 OFFCURVE",
"118 296 CURVE",
"108 318 OFFCURVE",
"96 336 OFFCURVE",
"85 354 CURVE SMOOTH",
"81 360 OFFCURVE",
"79 366 OFFCURVE",
"78 374 CURVE SMOOTH",
"75 388 OFFCURVE",
"65 396 OFFCURVE",
"61 410 CURVE SMOOTH",
"58 423 OFFCURVE",
"70 434 OFFCURVE",
"81 428 CURVE SMOOTH",
"86 425 OFFCURVE",
"91 423 OFFCURVE",
"98 421 CURVE SMOOTH",
"106 419 OFFCURVE",
"114 414 OFFCURVE",
"121 408 CURVE SMOOTH",
"151 380 OFFCURVE",
"166 335 OFFCURVE",
"186 300 CURVE SMOOTH",
"193 289 OFFCURVE",
"206 286 OFFCURVE",
"215 295 CURVE SMOOTH",
"248 324 OFFCURVE",
"279 364 OFFCURVE",
"311 395 CURVE SMOOTH",
"321 405 OFFCURVE",
"329 423 OFFCURVE",
"341 430 CURVE",
"349 436 OFFCURVE",
"358 433 OFFCURVE",
"366 430 CURVE SMOOTH",
"376 426 OFFCURVE",
"385 420 OFFCURVE",
"390 411 CURVE SMOOTH",
"393 408 OFFCURVE",
"394 405 OFFCURVE",
"394 400 CURVE"
);
}
);
width = 454;
}
);
unicode = 00DD;
},
{
glyphname = Ydieresis;
lastChange = "2020-11-04 22:34:44 +0000";
layers = (
{
layerId = master01;
paths = (
{
closed = 1;
nodes = (
"329 433 OFFCURVE",
"306 438 OFFCURVE",
"288 440 CURVE",
"281 440 OFFCURVE",
"274 444 OFFCURVE",
"269 448 CURVE SMOOTH",
"263 454 OFFCURVE",
"260 463 OFFCURVE",
"263 471 CURVE",
"265 475 OFFCURVE",
"266 480 OFFCURVE",
"269 484 CURVE SMOOTH",
"274 495 OFFCURVE",
"289 499 OFFCURVE",
"299 493 CURVE",
"300 491 OFFCURVE",
"301 491 OFFCURVE",
"303 490 CURVE",
"310 488 OFFCURVE",
"316 483 OFFCURVE",
"323 476 CURVE SMOOTH",
"331 468 OFFCURVE",
"339 458 OFFCURVE",
"335 449 CURVE SMOOTH"
);
},
{
closed = 1;
nodes = (
"190 429 OFFCURVE",
"179 425 OFFCURVE",
"169 428 CURVE SMOOTH",
"158 430 OFFCURVE",
"148 439 OFFCURVE",
"143 449 CURVE SMOOTH",
"140 455 OFFCURVE",
"138 461 OFFCURVE",
"138 469 CURVE SMOOTH",
"138 483 OFFCURVE",
"150 493 OFFCURVE",
"163 489 CURVE SMOOTH",
"175 485 OFFCURVE",
"186 481 OFFCURVE",
"195 474 CURVE SMOOTH",
"205 464 OFFCURVE",
"206 448 OFFCURVE",
"196 436 CURVE SMOOTH"
);
},
{
closed = 1;
nodes = (
"431 376 OFFCURVE",
"431 375 OFFCURVE",
"431 375 CURVE",
"429 366 OFFCURVE",
"425 359 OFFCURVE",
"420 353 CURVE SMOOTH",
"390 316 OFFCURVE",
"361 280 OFFCURVE",
"323 253 CURVE SMOOTH",
"316 249 OFFCURVE",
"311 244 OFFCURVE",
"308 238 CURVE SMOOTH",
"303 229 OFFCURVE",
"296 223 OFFCURVE",
"289 216 CURVE SMOOTH",
"279 208 OFFCURVE",
"273 194 OFFCURVE",
"271 180 CURVE",
"271 175 OFFCURVE",
"270 170 OFFCURVE",
"268 165 CURVE SMOOTH",
"264 159 OFFCURVE",
"261 151 OFFCURVE",
"260 144 CURVE SMOOTH",
"259 130 OFFCURVE",
"254 119 OFFCURVE",
"253 106 CURVE",
"253 104 OFFCURVE",
"248 101 OFFCURVE",
"248 100 CURVE",
"241 75 OFFCURVE",
"240 49 OFFCURVE",
"231 30 CURVE",
"226 16 OFFCURVE",
"213 8 OFFCURVE",
"198 5 CURVE",
"194 5 OFFCURVE",
"189 5 OFFCURVE",
"184 6 CURVE SMOOTH",
"179 9 OFFCURVE",
"175 14 OFFCURVE",
"176 20 CURVE",
"178 63 OFFCURVE",
"179 120 OFFCURVE",
"186 163 CURVE SMOOTH",
"188 173 OFFCURVE",
"193 181 OFFCURVE",
"191 188 CURVE SMOOTH",
"189 196 OFFCURVE",
"164 211 OFFCURVE",
"158 220 CURVE SMOOTH",
"153 226 OFFCURVE",
"150 235 OFFCURVE",
"145 243 CURVE SMOOTH",
"135 258 OFFCURVE",
"113 290 OFFCURVE",
"103 303 CURVE SMOOTH",
"99 306 OFFCURVE",
"96 310 OFFCURVE",
"95 315 CURVE SMOOTH",
"85 340 OFFCURVE",
"66 356 OFFCURVE",
"60 383 CURVE SMOOTH",
"58 394 OFFCURVE",
"69 404 OFFCURVE",
"80 399 CURVE",
"138 379 OFFCURVE",
"159 313 OFFCURVE",
"195 264 CURVE SMOOTH",
"203 254 OFFCURVE",
"218 253 OFFCURVE",
"226 260 CURVE SMOOTH",
"259 289 OFFCURVE",
"291 316 OFFCURVE",
"325 343 CURVE",
"341 359 OFFCURVE",
"369 404 OFFCURVE",
"394 408 CURVE SMOOTH",
"406 410 OFFCURVE",
"408 401 OFFCURVE",
"419 399 CURVE SMOOTH",
"421 398 OFFCURVE",
"423 396 OFFCURVE",
"423 394 CURVE",
"423 393 OFFCURVE",
"424 391 OFFCURVE",
"425 391 CURVE",
"426 391 OFFCURVE",
"426 391 OFFCURVE",
"428 391 CURVE",
"431 388 OFFCURVE",
"434 381 OFFCURVE",
"431 376 CURVE"
);
}
);
width = 493;
}
);
unicode = 0178;
},
{
glyphname = Z;
lastChange = "2020-11-04 22:34:44 +0000";
layers = (
{
layerId = master01;
paths = (
{
closed = 1;
nodes = (
"470 35 OFFCURVE",
"469 29 OFFCURVE",
"466 21 CURVE SMOOTH",
"463 9 OFFCURVE",
"450 0 OFFCURVE",
"436 1 CURVE SMOOTH",
"353 8 OFFCURVE",
"198 18 OFFCURVE",
"128 6 CURVE SMOOTH",
"116 4 OFFCURVE",
"106 1 OFFCURVE",
"98 0 CURVE SMOOTH",
"83 -1 OFFCURVE",
"69 8 OFFCURVE",
"65 23 CURVE SMOOTH",
"61 38 OFFCURVE",
"60 46 OFFCURVE",
"60 61 CURVE",
"59 76 OFFCURVE",
"65 90 OFFCURVE",
"74 100 CURVE SMOOTH",
"168 199 OFFCURVE",
"256 303 OFFCURVE",
"345 406 CURVE SMOOTH",
"351 414 OFFCURVE",
"346 426 OFFCURVE",
"336 428 CURVE SMOOTH",
"285 434 OFFCURVE",
"191 431 OFFCURVE",
"153 413 CURVE SMOOTH",
"141 406 OFFCURVE",
"120 416 OFFCURVE",
"110 421 CURVE",
"98 430 OFFCURVE",
"89 441 OFFCURVE",
"83 455 CURVE SMOOTH",
"79 465 OFFCURVE",
"70 491 OFFCURVE",
"76 500 CURVE SMOOTH",
"83 508 OFFCURVE",
"100 504 OFFCURVE",
"108 504 CURVE SMOOTH",
"115 504 OFFCURVE",
"123 504 OFFCURVE",
"129 505 CURVE SMOOTH",
"136 506 OFFCURVE",
"143 509 OFFCURVE",
"150 510 CURVE SMOOTH",
"164 513 OFFCURVE",
"179 509 OFFCURVE",
"193 509 CURVE SMOOTH",
"209 509 OFFCURVE",
"224 514 OFFCURVE",
"240 514 CURVE SMOOTH",
"244 514 OFFCURVE",
"246 514 OFFCURVE",
"250 514 CURVE SMOOTH",
"288 514 OFFCURVE",
"326 510 OFFCURVE",
"363 505 CURVE",
"381 501 OFFCURVE",
"399 498 OFFCURVE",
"416 489 CURVE",
"424 484 OFFCURVE",
"431 479 OFFCURVE",
"439 473 CURVE SMOOTH",
"443 469 OFFCURVE",
"458 456 OFFCURVE",
"458 449 CURVE",
"454 371 OFFCURVE",
"403 333 OFFCURVE",
"359 289 CURVE SMOOTH",
"353 284 OFFCURVE",
"349 278 OFFCURVE",
"346 270 CURVE SMOOTH",
"338 250 OFFCURVE",
"328 234 OFFCURVE",
"311 223 CURVE SMOOTH",
"306 219 OFFCURVE",
"301 214 OFFCURVE",
"298 208 CURVE SMOOTH",
"285 189 OFFCURVE",
"270 171 OFFCURVE",
"253 158 CURVE SMOOTH",
"245 153 OFFCURVE",
"239 145 OFFCURVE",
"235 138 CURVE SMOOTH",
"229 124 OFFCURVE",
"218 116 OFFCURVE",
"208 108 CURVE SMOOTH",
"200 103 OFFCURVE",
"204 93 OFFCURVE",
"213 93 CURVE",
"260 91 OFFCURVE",
"355 86 OFFCURVE",
"388 85 CURVE",
"395 85 OFFCURVE",
"400 90 OFFCURVE",
"408 89 CURVE",
"428 83 OFFCURVE",
"464 59 OFFCURVE",
"469 39 CURVE SMOOTH"
);
}
);
width = 529;
}
);
unicode = 005A;
},
{
glyphname = Zcaron;
lastChange = "2020-11-04 22:34:44 +0000";
layers = (
{
layerId = master01;
paths = (
{
closed = 1;
nodes = (
"297 477 OFFCURVE",
"291 473 OFFCURVE",
"287 466 CURVE SMOOTH",
"281 454 OFFCURVE",
"279 441 OFFCURVE",
"270 434 CURVE SMOOTH",
"256 424 OFFCURVE",
"240 418 OFFCURVE",
"219 417 CURVE SMOOTH",
"205 416 OFFCURVE",
"191 422 OFFCURVE",
"180 432 CURVE SMOOTH",
"177 435 OFFCURVE",
"174 438 OFFCURVE",
"172 440 CURVE SMOOTH",
"167 445 OFFCURVE",
"162 451 OFFCURVE",
"159 457 CURVE SMOOTH",
"153 471 OFFCURVE",
"144 483 OFFCURVE",
"137 497 CURVE SMOOTH",
"136 498 OFFCURVE",
"136 499 OFFCURVE",
"136 500 CURVE SMOOTH",
"131 510 OFFCURVE",
"138 521 OFFCURVE",
"149 520 CURVE SMOOTH",
"166 519 OFFCURVE",
"184 511 OFFCURVE",
"194 498 CURVE SMOOTH",
"202 489 OFFCURVE",
"215 487 OFFCURVE",
"225 493 CURVE SMOOTH",
"237 500 OFFCURVE",
"247 508 OFFCURVE",
"260 513 CURVE SMOOTH",
"273 518 OFFCURVE",
"288 513 OFFCURVE",
"294 500 CURVE SMOOTH",
"297 493 OFFCURVE",
"299 486 OFFCURVE",
"298 480 CURVE SMOOTH",
"298 480 LINE SMOOTH"
);
},
{
closed = 1;
nodes = (
"376 27 OFFCURVE",
"376 26 OFFCURVE",
"376 25 CURVE SMOOTH",
"375 13 OFFCURVE",
"367 2 OFFCURVE",
"356 -2 CURVE SMOOTH",
"314 -19 OFFCURVE",
"260 -16 OFFCURVE",
"217 -7 CURVE SMOOTH",
"211 -5 OFFCURVE",
"202 -10 OFFCURVE",
"193 -10 CURVE SMOOTH",
"187 -9 OFFCURVE",
"182 -5 OFFCURVE",
"177 -4 CURVE SMOOTH",
"158 -3 OFFCURVE",
"135 0 OFFCURVE",
"114 5 CURVE SMOOTH",
"103 8 OFFCURVE",
"93 15 OFFCURVE",
"85 24 CURVE SMOOTH",
"84 26 OFFCURVE",
"82 28 OFFCURVE",
"80 29 CURVE SMOOTH",
"74 35 OFFCURVE",
"69 41 OFFCURVE",
"65 49 CURVE SMOOTH",
"65 50 OFFCURVE",
"64 51 OFFCURVE",
"64 53 CURVE SMOOTH",
"56 65 OFFCURVE",
"55 80 OFFCURVE",
"61 92 CURVE SMOOTH",
"74 117 OFFCURVE",
"101 136 OFFCURVE",
"118 155 CURVE SMOOTH",
"127 165 OFFCURVE",
"134 179 OFFCURVE",
"145 189 CURVE SMOOTH",
"162 204 OFFCURVE",
"182 218 OFFCURVE",
"197 233 CURVE SMOOTH",
"216 252 OFFCURVE",
"231 271 OFFCURVE",
"250 288 CURVE SMOOTH",
"255 292 OFFCURVE",
"259 297 OFFCURVE",
"262 303 CURVE SMOOTH",
"266 311 OFFCURVE",
"261 320 OFFCURVE",
"252 321 CURVE SMOOTH",
"251 321 OFFCURVE",
"249 322 OFFCURVE",
"248 322 CURVE SMOOTH",
"240 323 OFFCURVE",
"232 322 OFFCURVE",
"224 320 CURVE SMOOTH",
"182 308 OFFCURVE",
"107 319 OFFCURVE",
"86 357 CURVE SMOOTH",
"80 368 OFFCURVE",
"90 381 OFFCURVE",
"102 379 CURVE SMOOTH",
"108 378 OFFCURVE",
"113 377 OFFCURVE",
"119 379 CURVE SMOOTH",
"123 379 OFFCURVE",
"128 380 OFFCURVE",
"132 380 CURVE SMOOTH",
"133 380 OFFCURVE",
"134 380 OFFCURVE",
"135 380 CURVE SMOOTH",
"139 380 OFFCURVE",
"143 380 OFFCURVE",
"148 381 CURVE SMOOTH",
"194 389 OFFCURVE",
"254 380 OFFCURVE",
"306 378 CURVE SMOOTH",
"313 378 OFFCURVE",
"321 376 OFFCURVE",
"327 373 CURVE SMOOTH",
"343 366 OFFCURVE",
"361 359 OFFCURVE",
"369 344 CURVE SMOOTH",
"376 331 OFFCURVE",
"373 315 OFFCURVE",
"362 306 CURVE SMOOTH",
"343 289 OFFCURVE",
"330 261 OFFCURVE",
"309 244 CURVE SMOOTH",
"305 241 OFFCURVE",
"302 237 OFFCURVE",
"299 233 CURVE SMOOTH",
"297 229 OFFCURVE",
"293 225 OFFCURVE",
"289 221 CURVE SMOOTH",
"259 199 OFFCURVE",
"241 165 OFFCURVE",
"212 145 CURVE SMOOTH",
"207 142 OFFCURVE",
"204 138 OFFCURVE",
"201 133 CURVE SMOOTH",
"200 130 OFFCURVE",
"197 128 OFFCURVE",
"195 126 CURVE SMOOTH",
"187 122 OFFCURVE",
"183 114 OFFCURVE",
"177 109 CURVE SMOOTH",
"174 105 OFFCURVE",
"171 100 OFFCURVE",
"168 95 CURVE SMOOTH",
"165 90 OFFCURVE",
"158 83 OFFCURVE",
"152 76 CURVE SMOOTH",
"144 69 OFFCURVE",
"149 55 OFFCURVE",
"160 54 CURVE SMOOTH",
"170 54 OFFCURVE",
"181 55 OFFCURVE",
"190 55 CURVE SMOOTH",
"245 54 OFFCURVE",
"301 65 OFFCURVE",
"353 60 CURVE SMOOTH",
"362 59 OFFCURVE",
"369 54 OFFCURVE",
"373 47 CURVE SMOOTH",
"376 41 OFFCURVE",
"377 34 OFFCURVE",
"376 27 CURVE SMOOTH",
"376 27 LINE SMOOTH"
);
}
);
width = 434;
}
);
unicode = 017D;
},
{
glyphname = a;
lastChange = "2020-11-04 22:34:44 +0000";
layers = (
{
layerId = master01;
paths = (
{
closed = 1;
nodes = (
"424 30 OFFCURVE",
"413 20 OFFCURVE",
"399 21 CURVE SMOOTH",
"369 24 OFFCURVE",
"340 40 OFFCURVE",
"323 58 CURVE SMOOTH",
"318 64 OFFCURVE",
"309 63 OFFCURVE",
"305 55 CURVE SMOOTH",
"304 51 OFFCURVE",
"300 48 OFFCURVE",
"295 45 CURVE SMOOTH",
"290 41 OFFCURVE",
"285 36 OFFCURVE",
"280 31 CURVE SMOOTH",
"271 20 OFFCURVE",
"258 14 OFFCURVE",
"249 1 CURVE SMOOTH",
"241 -10 OFFCURVE",
"228 -18 OFFCURVE",
"214 -19 CURVE",
"191 -23 OFFCURVE",
"166 -21 OFFCURVE",
"145 -16 CURVE SMOOTH",
"135 -14 OFFCURVE",
"126 -9 OFFCURVE",
"119 -3 CURVE SMOOTH",
"116 0 OFFCURVE",
"114 3 OFFCURVE",
"110 4 CURVE SMOOTH",
"101 9 OFFCURVE",
"94 16 OFFCURVE",
"89 25 CURVE SMOOTH",
"71 55 OFFCURVE",
"54 91 OFFCURVE",
"63 131 CURVE SMOOTH",
"70 161 OFFCURVE",
"89 201 OFFCURVE",
"104 225 CURVE SMOOTH",
"135 273 OFFCURVE",
"188 305 OFFCURVE",
"248 294 CURVE SMOOTH",
"299 285 OFFCURVE",
"336 259 OFFCURVE",
"364 218 CURVE SMOOTH",
"370 209 OFFCURVE",
"366 198 OFFCURVE",
"356 195 CURVE SMOOTH",
"346 193 OFFCURVE",
"336 195 OFFCURVE",
"329 201 CURVE SMOOTH",
"295 231 OFFCURVE",
"243 229 OFFCURVE",
"205 208 CURVE SMOOTH",
"200 205 OFFCURVE",
"196 203 OFFCURVE",
"194 199 CURVE",
"178 184 OFFCURVE",
"159 164 OFFCURVE",
"149 130 CURVE",
"143 113 OFFCURVE",
"134 90 OFFCURVE",
"135 71 CURVE",
"135 58 OFFCURVE",
"148 48 OFFCURVE",
"161 49 CURVE",
"229 59 OFFCURVE",
"253 114 OFFCURVE",
"298 148 CURVE SMOOTH",
"310 156 OFFCURVE",
"326 155 OFFCURVE",
"336 144 CURVE",
"349 133 OFFCURVE",
"355 111 OFFCURVE",
"360 90 CURVE SMOOTH",
"364 76 OFFCURVE",
"376 66 OFFCURVE",
"391 68 CURVE",
"394 68 OFFCURVE",
"398 68 OFFCURVE",
"401 68 CURVE",
"415 69 OFFCURVE",
"426 58 OFFCURVE",
"425 44 CURVE SMOOTH"
);
}
);
width = 485;
}
);
unicode = 0061;
},
{
glyphname = aacute;
lastChange = "2020-11-04 22:34:44 +0000";
layers = (
{
layerId = master01;
paths = (
{
closed = 1;
nodes = (
"266 319 OFFCURVE",
"216 288 OFFCURVE",
"179 300 CURVE SMOOTH",
"166 304 OFFCURVE",
"160 319 OFFCURVE",
"166 330 CURVE SMOOTH",
"179 354 OFFCURVE",
"193 375 OFFCURVE",
"210 395 CURVE SMOOTH",
"219 405 OFFCURVE",
"234 408 OFFCURVE",
"246 401 CURVE SMOOTH",
"251 399 OFFCURVE",
"255 396 OFFCURVE",
"259 394 CURVE SMOOTH",
"271 385 OFFCURVE",
"278 370 OFFCURVE",
"275 356 CURVE SMOOTH"
);
},
{
closed = 1;
nodes = (
"383 13 OFFCURVE",
"376 6 OFFCURVE",
"369 5 CURVE SMOOTH",
"328 -3 OFFCURVE",
"298 28 OFFCURVE",
"281 63 CURVE SMOOTH",
"276 71 OFFCURVE",
"265 73 OFFCURVE",
"259 65 CURVE SMOOTH",
"236 38 OFFCURVE",
"211 10 OFFCURVE",
"171 8 CURVE",
"168 6 OFFCURVE",
"164 6 OFFCURVE",
"161 4 CURVE",
"155 1 OFFCURVE",
"150 1 OFFCURVE",
"144 3 CURVE SMOOTH",
"113 9 OFFCURVE",
"95 28 OFFCURVE",
"76 48 CURVE SMOOTH",
"70 54 OFFCURVE",
"66 63 OFFCURVE",
"64 73 CURVE SMOOTH",
"50 138 OFFCURVE",
"83 213 OFFCURVE",
"134 248 CURVE SMOOTH",
"140 251 OFFCURVE",
"148 255 OFFCURVE",
"155 256 CURVE SMOOTH",
"198 264 OFFCURVE",
"256 258 OFFCURVE",
"284 226 CURVE SMOOTH",
"289 221 OFFCURVE",
"290 214 OFFCURVE",
"288 206 CURVE SMOOTH",
"285 200 OFFCURVE",
"280 196 OFFCURVE",
"274 195 CURVE SMOOTH",
"245 191 OFFCURVE",
"210 198 OFFCURVE",
"190 183 CURVE",
"164 166 OFFCURVE",
"128 113 OFFCURVE",
"126 76 CURVE",
"126 76 OFFCURVE",
"126 75 OFFCURVE",
"126 74 CURVE",
"126 60 OFFCURVE",
"140 51 OFFCURVE",
"153 56 CURVE SMOOTH",
"206 81 OFFCURVE",
"231 134 OFFCURVE",
"270 174 CURVE SMOOTH",
"279 183 OFFCURVE",
"293 185 OFFCURVE",
"304 180 CURVE SMOOTH",
"316 175 OFFCURVE",
"324 163 OFFCURVE",
"324 150 CURVE SMOOTH",
"324 126 OFFCURVE",
"323 103 OFFCURVE",
"328 83 CURVE SMOOTH",
"331 69 OFFCURVE",
"341 60 OFFCURVE",
"355 58 CURVE SMOOTH",
"366 56 OFFCURVE",
"374 49 OFFCURVE",
"383 39 CURVE SMOOTH",
"386 34 OFFCURVE",
"388 26 OFFCURVE",
"385 19 CURVE SMOOTH"
);
}
);
width = 448;
}
);
unicode = 00E1;
},
{
glyphname = acircumflex;
lastChange = "2020-11-04 22:34:44 +0000";
layers = (
{
layerId = master01;
paths = (
{
closed = 1;
nodes = (
"299 326 OFFCURVE",
"295 323 OFFCURVE",
"290 323 CURVE",
"261 320 OFFCURVE",
"241 343 OFFCURVE",
"224 363 CURVE SMOOTH",
"215 373 OFFCURVE",
"199 374 OFFCURVE",
"189 365 CURVE SMOOTH",
"180 358 OFFCURVE",
"173 348 OFFCURVE",
"165 338 CURVE SMOOTH",
"158 328 OFFCURVE",
"146 321 OFFCURVE",
"134 323 CURVE",
"128 323 OFFCURVE",
"121 326 OFFCURVE",
"118 333 CURVE SMOOTH",
"115 338 OFFCURVE",
"116 344 OFFCURVE",
"119 349 CURVE",
"135 371 OFFCURVE",
"145 405 OFFCURVE",
"166 419 CURVE SMOOTH",
"180 428 OFFCURVE",
"205 429 OFFCURVE",
"223 424 CURVE SMOOTH",
"233 420 OFFCURVE",
"249 406 OFFCURVE",
"258 398 CURVE SMOOTH",
"273 384 OFFCURVE",
"284 360 OFFCURVE",
"296 344 CURVE SMOOTH",
"300 340 OFFCURVE",
"300 335 OFFCURVE",
"300 330 CURVE"
);
},
{
closed = 1;
nodes = (
"381 16 OFFCURVE",
"378 10 OFFCURVE",
"371 8 CURVE SMOOTH",
"343 -5 OFFCURVE",
"300 24 OFFCURVE",
"280 50 CURVE SMOOTH",
"274 59 OFFCURVE",
"261 59 OFFCURVE",
"255 51 CURVE SMOOTH",
"234 25 OFFCURVE",
"210 -3 OFFCURVE",
"175 1 CURVE",
"171 1 OFFCURVE",
"166 1 OFFCURVE",
"163 0 CURVE SMOOTH",
"151 -4 OFFCURVE",
"140 -5 OFFCURVE",
"130 -1 CURVE SMOOTH",
"125 0 OFFCURVE",
"119 1 OFFCURVE",
"114 4 CURVE",
"101 8 OFFCURVE",
"91 15 OFFCURVE",
"84 25 CURVE SMOOTH",
"66 51 OFFCURVE",
"56 85 OFFCURVE",
"65 119 CURVE SMOOTH",
"69 136 OFFCURVE",
"69 161 OFFCURVE",
"79 176 CURVE SMOOTH",
"89 191 OFFCURVE",
"95 221 OFFCURVE",
"106 239 CURVE SMOOTH",
"119 256 OFFCURVE",
"135 261 OFFCURVE",
"155 268 CURVE SMOOTH",
"163 270 OFFCURVE",
"171 271 OFFCURVE",
"179 270 CURVE SMOOTH",
"199 266 OFFCURVE",
"221 271 OFFCURVE",
"246 266 CURVE SMOOTH",
"273 260 OFFCURVE",
"306 231 OFFCURVE",
"305 216 CURVE SMOOTH",
"304 191 OFFCURVE",
"278 198 OFFCURVE",
"260 209 CURVE SMOOTH",
"249 215 OFFCURVE",
"238 218 OFFCURVE",
"225 216 CURVE",
"225 215 OFFCURVE",
"224 215 OFFCURVE",
"224 215 CURVE",
"214 216 OFFCURVE",
"203 214 OFFCURVE",
"194 209 CURVE SMOOTH",
"179 200 OFFCURVE",
"166 189 OFFCURVE",
"155 175 CURVE SMOOTH",
"151 169 OFFCURVE",
"148 163 OFFCURVE",
"146 156 CURVE SMOOTH",
"138 126 OFFCURVE",
"119 91 OFFCURVE",
"121 61 CURVE SMOOTH",
"123 48 OFFCURVE",
"136 38 OFFCURVE",
"150 40 CURVE SMOOTH",
"179 45 OFFCURVE",
"189 70 OFFCURVE",
"210 98 CURVE SMOOTH",
"221 111 OFFCURVE",
"236 120 OFFCURVE",
"241 131 CURVE SMOOTH",
"246 140 OFFCURVE",
"250 146 OFFCURVE",
"254 154 CURVE SMOOTH",
"259 166 OFFCURVE",
"273 173 OFFCURVE",
"285 170 CURVE SMOOTH",
"299 168 OFFCURVE",
"309 158 OFFCURVE",
"313 144 CURVE",
"313 141 OFFCURVE",
"314 138 OFFCURVE",
"316 135 CURVE",
"318 134 OFFCURVE",
"318 133 OFFCURVE",
"316 131 CURVE",
"314 130 OFFCURVE",
"314 129 OFFCURVE",
"314 128 CURVE",
"316 111 OFFCURVE",
"318 95 OFFCURVE",
"321 81 CURVE SMOOTH",
"325 68 OFFCURVE",
"335 56 OFFCURVE",
"349 50 CURVE SMOOTH",
"355 46 OFFCURVE",
"363 41 OFFCURVE",
"368 39 CURVE SMOOTH",
"373 35 OFFCURVE",
"378 30 OFFCURVE",
"379 24 CURVE SMOOTH"
);
}
);
width = 441;
}
);
unicode = 00E2;
},
{
glyphname = adieresis;
lastChange = "2020-11-04 22:34:44 +0000";
layers = (
{
layerId = master01;
paths = (
{
closed = 1;
nodes = (
"306 333 OFFCURVE",
"296 320 OFFCURVE",
"283 323 CURVE SMOOTH",
"268 325 OFFCURVE",
"254 336 OFFCURVE",
"248 349 CURVE SMOOTH",
"241 361 OFFCURVE",
"251 374 OFFCURVE",
"265 371 CURVE SMOOTH",
"279 369 OFFCURVE",
"294 360 OFFCURVE",
"301 345 CURVE SMOOTH"
);
},
{
closed = 1;
nodes = (
"224 335 OFFCURVE",
"214 323 OFFCURVE",
"201 325 CURVE SMOOTH",
"185 329 OFFCURVE",
"171 336 OFFCURVE",
"166 355 CURVE",
"164 369 OFFCURVE",
"176 381 OFFCURVE",
"190 376 CURVE SMOOTH",
"203 373 OFFCURVE",
"215 361 OFFCURVE",
"220 348 CURVE SMOOTH"
);
},
{
closed = 1;
nodes = (
"393 15 OFFCURVE",
"391 15 OFFCURVE",
"390 14 CURVE",
"379 10 OFFCURVE",
"366 10 OFFCURVE",
"355 14 CURVE SMOOTH",
"328 24 OFFCURVE",
"313 45 OFFCURVE",
"301 69 CURVE SMOOTH",
"296 78 OFFCURVE",
"284 79 OFFCURVE",
"278 70 CURVE SMOOTH",
"268 55 OFFCURVE",
"258 39 OFFCURVE",
"245 25 CURVE SMOOTH",
"241 21 OFFCURVE",
"238 15 OFFCURVE",
"236 9 CURVE",
"234 4 OFFCURVE",
"216 -4 OFFCURVE",
"209 -5 CURVE SMOOTH",
"196 -8 OFFCURVE",
"179 -4 OFFCURVE",
"168 0 CURVE SMOOTH",
"164 1 OFFCURVE",
"160 3 OFFCURVE",
"156 3 CURVE SMOOTH",
"149 3 OFFCURVE",
"133 9 OFFCURVE",
"124 13 CURVE SMOOTH",
"96 26 OFFCURVE",
"83 55 OFFCURVE",
"68 85 CURVE SMOOTH",
"65 91 OFFCURVE",
"63 98 OFFCURVE",
"63 104 CURVE",
"54 176 OFFCURVE",
"104 259 OFFCURVE",
"170 285 CURVE SMOOTH",
"194 295 OFFCURVE",
"256 288 OFFCURVE",
"281 274 CURVE SMOOTH",
"285 271 OFFCURVE",
"290 263 OFFCURVE",
"296 260 CURVE SMOOTH",
"303 256 OFFCURVE",
"308 250 OFFCURVE",
"309 243 CURVE",
"309 234 OFFCURVE",
"303 228 OFFCURVE",
"295 228 CURVE SMOOTH",
"284 228 OFFCURVE",
"276 228 OFFCURVE",
"268 229 CURVE SMOOTH",
"259 231 OFFCURVE",
"249 230 OFFCURVE",
"240 228 CURVE SMOOTH",
"175 206 OFFCURVE",
"111 135 OFFCURVE",
"138 69 CURVE SMOOTH",
"143 55 OFFCURVE",
"159 50 OFFCURVE",
"171 58 CURVE SMOOTH",
"211 85 OFFCURVE",
"233 130 OFFCURVE",
"268 164 CURVE SMOOTH",
"273 169 OFFCURVE",
"276 175 OFFCURVE",
"280 181 CURVE SMOOTH",
"281 185 OFFCURVE",
"284 186 OFFCURVE",
"286 188 CURVE SMOOTH",
"298 196 OFFCURVE",
"314 195 OFFCURVE",
"324 184 CURVE SMOOTH",
"351 155 OFFCURVE",
"338 79 OFFCURVE",
"371 54 CURVE SMOOTH",
"379 48 OFFCURVE",
"385 40 OFFCURVE",
"389 30 CURVE SMOOTH",
"390 26 OFFCURVE",
"393 24 OFFCURVE",
"393 19 CURVE SMOOTH"
);
}
);
width = 454;
}
);
unicode = 00E4;
},
{
glyphname = agrave;
lastChange = "2020-11-04 22:34:44 +0000";
layers = (
{
layerId = master01;
paths = (
{
closed = 1;
nodes = (
"233 301 OFFCURVE",
"228 294 OFFCURVE",
"219 293 CURVE SMOOTH",
"210 290 OFFCURVE",
"200 293 OFFCURVE",
"193 298 CURVE SMOOTH",
"180 305 OFFCURVE",
"168 314 OFFCURVE",
"159 326 CURVE SMOOTH",
"148 343 OFFCURVE",
"140 353 OFFCURVE",
"135 366 CURVE SMOOTH",
"130 378 OFFCURVE",
"139 389 OFFCURVE",
"151 386 CURVE",
"190 381 OFFCURVE",
"224 354 OFFCURVE",
"231 310 CURVE SMOOTH"
);
},
{
closed = 1;
nodes = (
"373 4 OFFCURVE",
"366 -4 OFFCURVE",
"358 -6 CURVE SMOOTH",
"320 -14 OFFCURVE",
"286 11 OFFCURVE",
"268 46 CURVE SMOOTH",
"263 55 OFFCURVE",
"250 56 OFFCURVE",
"244 49 CURVE SMOOTH",
"223 25 OFFCURVE",
"198 4 OFFCURVE",
"165 -4 CURVE SMOOTH",
"158 -6 OFFCURVE",
"149 -6 OFFCURVE",
"141 -5 CURVE SMOOTH",
"116 0 OFFCURVE",
"93 16 OFFCURVE",
"76 36 CURVE SMOOTH",
"70 43 OFFCURVE",
"66 51 OFFCURVE",
"65 60 CURVE SMOOTH",
"48 144 OFFCURVE",
"90 244 OFFCURVE",
"178 259 CURVE SMOOTH",
"224 266 OFFCURVE",
"238 243 OFFCURVE",
"269 228 CURVE SMOOTH",
"278 224 OFFCURVE",
"284 219 OFFCURVE",
"290 213 CURVE",
"291 209 LINE",
"296 204 OFFCURVE",
"298 196 OFFCURVE",
"295 190 CURVE SMOOTH",
"288 170 OFFCURVE",
"254 188 OFFCURVE",
"226 185 CURVE SMOOTH",
"191 181 OFFCURVE",
"166 171 OFFCURVE",
"153 143 CURVE",
"149 138 OFFCURVE",
"145 133 OFFCURVE",
"141 128 CURVE",
"135 123 OFFCURVE",
"134 111 OFFCURVE",
"129 104 CURVE SMOOTH",
"125 98 OFFCURVE",
"123 90 OFFCURVE",
"121 84 CURVE",
"121 79 OFFCURVE",
"120 74 OFFCURVE",
"120 69 CURVE",
"119 55 OFFCURVE",
"131 44 OFFCURVE",
"145 48 CURVE SMOOTH",
"165 53 OFFCURVE",
"180 74 OFFCURVE",
"193 90 CURVE",
"201 99 OFFCURVE",
"213 105 OFFCURVE",
"216 111 CURVE SMOOTH",
"225 124 OFFCURVE",
"235 136 OFFCURVE",
"243 148 CURVE SMOOTH",
"250 160 OFFCURVE",
"265 165 OFFCURVE",
"278 160 CURVE SMOOTH",
"305 150 OFFCURVE",
"316 113 OFFCURVE",
"321 80 CURVE SMOOTH",
"324 66 OFFCURVE",
"331 55 OFFCURVE",
"343 48 CURVE SMOOTH",
"350 44 OFFCURVE",
"356 39 OFFCURVE",
"364 34 CURVE SMOOTH",
"370 29 OFFCURVE",
"374 20 OFFCURVE",
"373 11 CURVE"
);
}
);
width = 434;
}
);
unicode = 00E0;
},
{
glyphname = aring;
lastChange = "2020-11-04 22:34:44 +0000";
layers = (
{
layerId = master01;
paths = (
{
closed = 1;
nodes = (
"281 351 OFFCURVE",
"264 334 OFFCURVE",
"245 324 CURVE SMOOTH",
"231 318 OFFCURVE",
"216 318 OFFCURVE",
"203 324 CURVE SMOOTH",
"171 339 OFFCURVE",
"156 376 OFFCURVE",
"169 408 CURVE SMOOTH",
"174 420 OFFCURVE",
"188 429 OFFCURVE",
"203 429 CURVE SMOOTH",
"211 429 OFFCURVE",
"219 426 OFFCURVE",
"225 421 CURVE SMOOTH",
"231 416 OFFCURVE",
"239 413 OFFCURVE",
"246 410 CURVE SMOOTH",
"260 406 OFFCURVE",
"270 398 OFFCURVE",
"276 385 CURVE",
"278 380 OFFCURVE",
"281 376 OFFCURVE",
"281 371 CURVE SMOOTH"
);
},
{
closed = 1;
nodes = (
"390 34 OFFCURVE",
"389 21 OFFCURVE",
"379 15 CURVE SMOOTH",
"368 8 OFFCURVE",
"354 6 OFFCURVE",
"340 11 CURVE SMOOTH",
"318 20 OFFCURVE",
"296 36 OFFCURVE",
"284 60 CURVE SMOOTH",
"280 69 OFFCURVE",
"269 70 OFFCURVE",
"263 63 CURVE SMOOTH",
"254 53 OFFCURVE",
"244 41 OFFCURVE",
"233 31 CURVE SMOOTH",
"226 26 OFFCURVE",
"220 23 OFFCURVE",
"213 20 CURVE SMOOTH",
"193 14 OFFCURVE",
"176 4 OFFCURVE",
"160 3 CURVE",
"149 3 OFFCURVE",
"139 10 OFFCURVE",
"128 14 CURVE SMOOTH",
"121 16 OFFCURVE",
"116 20 OFFCURVE",
"111 24 CURVE SMOOTH",
"109 25 OFFCURVE",
"106 26 OFFCURVE",
"105 28 CURVE",
"96 33 OFFCURVE",
"89 39 OFFCURVE",
"84 46 CURVE SMOOTH",
"59 85 OFFCURVE",
"53 129 OFFCURVE",
"70 174 CURVE SMOOTH",
"71 178 OFFCURVE",
"76 179 OFFCURVE",
"78 183 CURVE SMOOTH",
"95 230 OFFCURVE",
"154 325 OFFCURVE",
"228 293 CURVE",
"231 290 OFFCURVE",
"236 289 OFFCURVE",
"241 288 CURVE SMOOTH",
"266 284 OFFCURVE",
"290 280 OFFCURVE",
"304 266 CURVE SMOOTH",
"313 256 OFFCURVE",
"306 240 OFFCURVE",
"294 238 CURVE",
"289 238 OFFCURVE",
"285 236 OFFCURVE",
"280 238 CURVE",
"274 238 OFFCURVE",
"266 236 OFFCURVE",
"260 235 CURVE",
"255 233 OFFCURVE",
"250 233 OFFCURVE",
"246 233 CURVE SMOOTH",
"238 233 OFFCURVE",
"229 231 OFFCURVE",
"221 228 CURVE SMOOTH",
"173 206 OFFCURVE",
"136 155 OFFCURVE",
"126 104 CURVE SMOOTH",
"123 88 OFFCURVE",
"121 59 OFFCURVE",
"145 56 CURVE SMOOTH",
"163 55 OFFCURVE",
"193 76 OFFCURVE",
"204 86 CURVE SMOOTH",
"233 114 OFFCURVE",
"258 159 OFFCURVE",
"271 194 CURVE SMOOTH",
"275 205 OFFCURVE",
"286 211 OFFCURVE",
"298 210 CURVE SMOOTH",
"310 209 OFFCURVE",
"320 201 OFFCURVE",
"325 191 CURVE SMOOTH",
"341 163 OFFCURVE",
"340 125 OFFCURVE",
"344 91 CURVE",
"346 78 OFFCURVE",
"354 65 OFFCURVE",
"365 58 CURVE SMOOTH",
"373 54 OFFCURVE",
"379 49 OFFCURVE",
"384 43 CURVE SMOOTH"
);
},
{
closed = 1;
nodes = (
"236 386 OFFCURVE",
"230 395 OFFCURVE",
"224 395 CURVE SMOOTH",
"220 395 OFFCURVE",
"214 385 OFFCURVE",
"209 376 CURVE SMOOTH",
"204 365 OFFCURVE",
"216 355 OFFCURVE",
"226 363 CURVE SMOOTH",
"233 368 OFFCURVE",
"239 376 OFFCURVE",
"238 383 CURVE SMOOTH"
);
}
);
width = 448;
}
);
unicode = 00E5;
},
{
glyphname = atilde;
lastChange = "2020-11-04 22:34:44 +0000";
layers = (
{
layerId = master01;
paths = (
{
closed = 1;
nodes = (
"320 371 OFFCURVE",
"320 363 OFFCURVE",
"316 356 CURVE",
"316 356 OFFCURVE",
"316 355 OFFCURVE",
"316 354 CURVE",
"314 344 OFFCURVE",
"310 335 OFFCURVE",
"304 328 CURVE SMOOTH",
"290 313 OFFCURVE",
"274 299 OFFCURVE",
"254 299 CURVE",
"235 300 OFFCURVE",
"221 314 OFFCURVE",
"208 325 CURVE SMOOTH",
"198 335 OFFCURVE",
"180 333 OFFCURVE",
"171 320 CURVE SMOOTH",
"164 309 OFFCURVE",
"150 301 OFFCURVE",
"135 304 CURVE SMOOTH",
"120 308 OFFCURVE",
"106 316 OFFCURVE",
"91 323 CURVE SMOOTH",
"86 324 OFFCURVE",
"84 329 OFFCURVE",
"84 334 CURVE SMOOTH",
"84 339 OFFCURVE",
"86 343 OFFCURVE",
"90 346 CURVE SMOOTH",
"111 364 OFFCURVE",
"131 385 OFFCURVE",
"161 389 CURVE SMOOTH",
"176 391 OFFCURVE",
"190 388 OFFCURVE",
"203 379 CURVE SMOOTH",
"209 374 OFFCURVE",
"216 370 OFFCURVE",
"224 364 CURVE SMOOTH",
"234 356 OFFCURVE",
"249 355 OFFCURVE",
"260 361 CURVE SMOOTH",
"274 369 OFFCURVE",
"288 378 OFFCURVE",
"300 384 CURVE SMOOTH",
"304 386 OFFCURVE",
"308 386 OFFCURVE",
"311 385 CURVE SMOOTH",
"314 384 OFFCURVE",
"316 381 OFFCURVE",
"318 378 CURVE SMOOTH"
);
},
{
closed = 1;
nodes = (
"388 13 OFFCURVE",
"371 10 OFFCURVE",
"365 11 CURVE SMOOTH",
"335 14 OFFCURVE",
"305 40 OFFCURVE",
"290 63 CURVE SMOOTH",
"284 73 OFFCURVE",
"270 73 OFFCURVE",
"264 64 CURVE SMOOTH",
"261 60 OFFCURVE",
"260 58 OFFCURVE",
"258 54 CURVE SMOOTH",
"253 48 OFFCURVE",
"246 41 OFFCURVE",
"239 38 CURVE SMOOTH",
"208 19 OFFCURVE",
"171 -1 OFFCURVE",
"131 5 CURVE",
"128 5 OFFCURVE",
"121 10 OFFCURVE",
"116 11 CURVE SMOOTH",
"104 15 OFFCURVE",
"94 23 OFFCURVE",
"86 33 CURVE SMOOTH",
"76 48 OFFCURVE",
"69 65 OFFCURVE",
"66 84 CURVE",
"66 88 OFFCURVE",
"65 91 OFFCURVE",
"64 95 CURVE SMOOTH",
"55 126 OFFCURVE",
"74 163 OFFCURVE",
"85 199 CURVE",
"89 208 OFFCURVE",
"94 216 OFFCURVE",
"101 223 CURVE SMOOTH",
"109 230 OFFCURVE",
"116 238 OFFCURVE",
"124 245 CURVE SMOOTH",
"135 255 OFFCURVE",
"149 260 OFFCURVE",
"163 260 CURVE",
"191 259 OFFCURVE",
"215 256 OFFCURVE",
"241 251 CURVE SMOOTH",
"248 250 OFFCURVE",
"253 249 OFFCURVE",
"258 246 CURVE SMOOTH",
"276 235 OFFCURVE",
"306 229 OFFCURVE",
"318 211 CURVE SMOOTH",
"325 199 OFFCURVE",
"316 184 OFFCURVE",
"303 184 CURVE",
"276 185 OFFCURVE",
"248 196 OFFCURVE",
"221 194 CURVE SMOOTH",
"205 193 OFFCURVE",
"196 184 OFFCURVE",
"184 176 CURVE SMOOTH",
"178 173 OFFCURVE",
"171 169 OFFCURVE",
"168 163 CURVE SMOOTH",
"159 151 OFFCURVE",
"146 141 OFFCURVE",
"144 128 CURVE SMOOTH",
"143 121 OFFCURVE",
"140 115 OFFCURVE",
"138 110 CURVE SMOOTH",
"131 99 OFFCURVE",
"129 88 OFFCURVE",
"129 75 CURVE SMOOTH",
"129 63 OFFCURVE",
"140 54 OFFCURVE",
"151 56 CURVE SMOOTH",
"180 64 OFFCURVE",
"206 81 OFFCURVE",
"224 106 CURVE SMOOTH",
"231 118 OFFCURVE",
"234 133 OFFCURVE",
"241 140 CURVE SMOOTH",
"244 143 OFFCURVE",
"249 141 OFFCURVE",
"251 144 CURVE SMOOTH",
"256 151 OFFCURVE",
"256 161 OFFCURVE",
"264 166 CURVE SMOOTH",
"273 171 OFFCURVE",
"281 170 OFFCURVE",
"290 169 CURVE SMOOTH",
"300 166 OFFCURVE",
"309 161 OFFCURVE",
"315 154 CURVE SMOOTH",
"321 148 OFFCURVE",
"325 139 OFFCURVE",
"328 130 CURVE",
"331 108 OFFCURVE",
"339 95 OFFCURVE",
"346 74 CURVE SMOOTH",
"350 65 OFFCURVE",
"359 60 OFFCURVE",
"368 61 CURVE SMOOTH",
"376 63 OFFCURVE",
"385 59 OFFCURVE",
"390 51 CURVE",
"400 40 OFFCURVE",
"410 24 OFFCURVE",
"393 15 CURVE SMOOTH"
);
}
);
width = 464;
}
);
unicode = 00E3;
},
{
glyphname = ae;
lastChange = "2020-11-04 22:34:44 +0000";
layers = (
{
layerId = master01;
paths = (
{
closed = 1;
nodes = (
"460 221 OFFCURVE",
"455 213 OFFCURVE",
"449 205 CURVE SMOOTH",
"440 196 OFFCURVE",
"433 186 OFFCURVE",
"424 176 CURVE SMOOTH",
"418 169 OFFCURVE",
"409 164 OFFCURVE",
"400 161 CURVE SMOOTH",
"379 154 OFFCURVE",
"354 149 OFFCURVE",
"333 146 CURVE SMOOTH",
"319 145 OFFCURVE",
"308 135 OFFCURVE",
"305 123 CURVE SMOOTH",
"301 110 OFFCURVE",
"299 99 OFFCURVE",
"298 86 CURVE SMOOTH",
"296 74 OFFCURVE",
"308 64 OFFCURVE",
"319 65 CURVE SMOOTH",
"345 69 OFFCURVE",
"374 75 OFFCURVE",
"400 81 CURVE SMOOTH",
"414 85 OFFCURVE",
"429 80 OFFCURVE",
"436 68 CURVE SMOOTH",
"439 64 OFFCURVE",
"441 59 OFFCURVE",
"443 53 CURVE SMOOTH",
"446 39 OFFCURVE",
"439 24 OFFCURVE",
"424 20 CURVE",
"408 14 OFFCURVE",
"381 11 OFFCURVE",
"360 5 CURVE SMOOTH",
"354 4 OFFCURVE",
"349 4 OFFCURVE",
"343 4 CURVE SMOOTH",
"309 4 OFFCURVE",
"293 -8 OFFCURVE",
"253 -10 CURVE SMOOTH",
"170 -15 OFFCURVE",
"61 -8 OFFCURVE",
"60 108 CURVE SMOOTH",
"60 126 OFFCURVE",
"64 159 OFFCURVE",
"84 176 CURVE SMOOTH",
"115 201 OFFCURVE",
"163 186 OFFCURVE",
"208 185 CURVE",
"220 185 OFFCURVE",
"233 194 OFFCURVE",
"234 208 CURVE SMOOTH",
"236 221 OFFCURVE",
"239 235 OFFCURVE",
"240 249 CURVE",
"240 260 OFFCURVE",
"231 270 OFFCURVE",
"220 270 CURVE",
"186 269 OFFCURVE",
"158 273 OFFCURVE",
"128 285 CURVE SMOOTH",
"121 288 OFFCURVE",
"115 293 OFFCURVE",
"111 299 CURVE SMOOTH",
"108 305 OFFCURVE",
"110 313 OFFCURVE",
"116 315 CURVE SMOOTH",
"149 331 OFFCURVE",
"195 333 OFFCURVE",
"234 331 CURVE",
"316 331 OFFCURVE",
"414 325 OFFCURVE",
"455 258 CURVE SMOOTH",
"460 250 OFFCURVE",
"461 240 OFFCURVE",
"461 231 CURVE"
);
},
{
closed = 1;
nodes = (
"381 249 OFFCURVE",
"373 264 OFFCURVE",
"359 266 CURVE SMOOTH",
"354 268 OFFCURVE",
"346 269 OFFCURVE",
"340 269 CURVE",
"329 270 OFFCURVE",
"318 261 OFFCURVE",
"315 249 CURVE SMOOTH",
"314 241 OFFCURVE",
"313 231 OFFCURVE",
"313 223 CURVE SMOOTH",
"313 210 OFFCURVE",
"324 200 OFFCURVE",
"336 201 CURVE",
"338 203 LINE",
"353 204 OFFCURVE",
"364 213 OFFCURVE",
"371 225 CURVE SMOOTH",
"373 229 OFFCURVE",
"374 233 OFFCURVE",
"376 236 CURVE"
);
},
{
closed = 1;
nodes = (
"220 129 OFFCURVE",
"211 138 OFFCURVE",
"200 138 CURVE SMOOTH",
"178 138 OFFCURVE",
"158 138 OFFCURVE",
"145 124 CURVE SMOOTH",
"135 114 OFFCURVE",
"133 86 OFFCURVE",
"140 74 CURVE SMOOTH",
"150 59 OFFCURVE",
"174 60 OFFCURVE",
"195 61 CURVE",
"209 61 OFFCURVE",
"219 73 OFFCURVE",
"220 85 CURVE",
"220 95 OFFCURVE",
"220 106 OFFCURVE",
"220 118 CURVE SMOOTH"
);
}
);
width = 521;
}
);
unicode = 00E6;
},
{
glyphname = b;
lastChange = "2020-11-04 22:34:44 +0000";
layers = (
{
layerId = master01;
paths = (
{
closed = 1;
nodes = (
"448 103 OFFCURVE",
"434 79 OFFCURVE",
"415 50 CURVE SMOOTH",
"409 40 OFFCURVE",
"400 31 OFFCURVE",
"389 28 CURVE SMOOTH",
"350 13 OFFCURVE",
"319 -8 OFFCURVE",
"271 -14 CURVE SMOOTH",
"258 -15 OFFCURVE",
"244 -11 OFFCURVE",
"233 -4 CURVE SMOOTH",
"226 1 OFFCURVE",
"218 6 OFFCURVE",
"210 11 CURVE SMOOTH",
"198 19 OFFCURVE",
"200 38 OFFCURVE",
"213 43 CURVE SMOOTH",
"238 54 OFFCURVE",
"278 58 OFFCURVE",
"299 75 CURVE SMOOTH",
"303 78 OFFCURVE",
"305 84 OFFCURVE",
"310 88 CURVE SMOOTH",
"314 90 OFFCURVE",
"324 91 OFFCURVE",
"325 93 CURVE",
"333 100 OFFCURVE",
"374 171 OFFCURVE",
"354 189 CURVE SMOOTH",
"351 190 OFFCURVE",
"344 194 OFFCURVE",
"336 198 CURVE SMOOTH",
"326 203 OFFCURVE",
"314 204 OFFCURVE",
"303 201 CURVE SMOOTH",
"290 199 OFFCURVE",
"275 196 OFFCURVE",
"266 196 CURVE",
"260 198 OFFCURVE",
"259 203 OFFCURVE",
"253 205 CURVE SMOOTH",
"248 206 OFFCURVE",
"243 205 OFFCURVE",
"239 205 CURVE",
"225 204 OFFCURVE",
"215 219 OFFCURVE",
"221 231 CURVE",
"224 234 OFFCURVE",
"225 236 OFFCURVE",
"226 239 CURVE SMOOTH",
"234 249 OFFCURVE",
"244 256 OFFCURVE",
"256 260 CURVE SMOOTH",
"295 271 OFFCURVE",
"334 260 OFFCURVE",
"366 248 CURVE SMOOTH",
"374 245 OFFCURVE",
"380 241 OFFCURVE",
"386 235 CURVE",
"386 235 OFFCURVE",
"388 234 OFFCURVE",
"389 233 CURVE",
"393 229 OFFCURVE",
"396 225 OFFCURVE",
"401 223 CURVE SMOOTH",
"419 211 OFFCURVE",
"430 188 OFFCURVE",
"441 165 CURVE SMOOTH",
"445 158 OFFCURVE",
"448 149 OFFCURVE",
"448 139 CURVE SMOOTH"
);
},
{
closed = 1;
nodes = (
"226 434 OFFCURVE",
"216 418 OFFCURVE",
"214 401 CURVE SMOOTH",
"198 290 OFFCURVE",
"163 123 OFFCURVE",
"140 28 CURVE SMOOTH",
"139 24 OFFCURVE",
"135 21 OFFCURVE",
"131 21 CURVE SMOOTH",
"128 21 OFFCURVE",
"125 19 OFFCURVE",
"125 15 CURVE SMOOTH",
"125 6 OFFCURVE",
"120 -1 OFFCURVE",
"111 -6 CURVE SMOOTH",
"95 -15 OFFCURVE",
"88 -10 OFFCURVE",
"75 1 CURVE SMOOTH",
"65 10 OFFCURVE",
"59 24 OFFCURVE",
"60 38 CURVE SMOOTH",
"65 154 OFFCURVE",
"115 308 OFFCURVE",
"130 413 CURVE",
"134 431 OFFCURVE",
"155 484 OFFCURVE",
"158 504 CURVE SMOOTH",
"159 513 OFFCURVE",
"166 520 OFFCURVE",
"176 520 CURVE SMOOTH",
"186 520 OFFCURVE",
"195 516 OFFCURVE",
"203 509 CURVE SMOOTH",
"216 494 OFFCURVE",
"220 481 OFFCURVE",
"224 450 CURVE SMOOTH"
);
}
);
width = 508;
}
);
unicode = 0062;
},
{
glyphname = c;
lastChange = "2020-11-04 22:34:44 +0000";
layers = (
{
layerId = master01;
paths = (
{
closed = 1;
nodes = (
"335 224 OFFCURVE",
"326 210 OFFCURVE",
"313 208 CURVE SMOOTH",
"285 204 OFFCURVE",
"246 218 OFFCURVE",
"214 210 CURVE SMOOTH",
"154 198 OFFCURVE",
"118 134 OFFCURVE",
"135 84 CURVE SMOOTH",
"140 70 OFFCURVE",
"153 61 OFFCURVE",
"166 60 CURVE SMOOTH",
"193 59 OFFCURVE",
"221 59 OFFCURVE",
"244 64 CURVE SMOOTH",
"248 65 OFFCURVE",
"259 70 OFFCURVE",
"269 74 CURVE SMOOTH",
"281 79 OFFCURVE",
"295 74 OFFCURVE",
"301 61 CURVE SMOOTH",
"303 59 OFFCURVE",
"304 55 OFFCURVE",
"305 51 CURVE SMOOTH",
"310 38 OFFCURVE",
"305 23 OFFCURVE",
"294 14 CURVE SMOOTH",
"266 -6 OFFCURVE",
"226 -10 OFFCURVE",
"188 -11 CURVE",
"184 -11 OFFCURVE",
"179 -10 OFFCURVE",
"174 -9 CURVE",
"171 -9 OFFCURVE",
"169 -9 OFFCURVE",
"168 -8 CURVE",
"163 -6 OFFCURVE",
"156 -4 OFFCURVE",
"150 -4 CURVE",
"116 0 OFFCURVE",
"91 34 OFFCURVE",
"74 64 CURVE SMOOTH",
"70 70 OFFCURVE",
"68 78 OFFCURVE",
"66 86 CURVE SMOOTH",
"63 120 OFFCURVE",
"56 151 OFFCURVE",
"63 181 CURVE SMOOTH",
"69 211 OFFCURVE",
"93 226 OFFCURVE",
"113 248 CURVE SMOOTH",
"118 254 OFFCURVE",
"123 258 OFFCURVE",
"129 261 CURVE SMOOTH",
"155 275 OFFCURVE",
"189 280 OFFCURVE",
"219 286 CURVE SMOOTH",
"229 289 OFFCURVE",
"239 289 OFFCURVE",
"249 285 CURVE SMOOTH",
"283 274 OFFCURVE",
"316 265 OFFCURVE",
"329 238 CURVE SMOOTH"
);
}
);
width = 391;
}
);
unicode = 0063;
},
{
glyphname = ccedilla;
lastChange = "2020-11-04 22:34:44 +0000";
layers = (
{
layerId = master01;
paths = (
{
closed = 1;
nodes = (
"343 -83 OFFCURVE",
"330 -103 OFFCURVE",
"316 -119 CURVE SMOOTH",
"310 -126 OFFCURVE",
"301 -133 OFFCURVE",
"291 -136 CURVE SMOOTH",
"253 -149 OFFCURVE",
"211 -130 OFFCURVE",
"183 -108 CURVE",
"176 -101 OFFCURVE",
"180 -89 OFFCURVE",
"189 -89 CURVE",
"215 -88 OFFCURVE",
"245 -90 OFFCURVE",
"255 -66 CURVE SMOOTH",
"260 -54 OFFCURVE",
"253 -39 OFFCURVE",
"239 -38 CURVE",
"236 -36 OFFCURVE",
"234 -36 OFFCURVE",
"231 -36 CURVE",
"221 -36 OFFCURVE",
"213 -35 OFFCURVE",
"204 -30 CURVE SMOOTH",
"201 -29 OFFCURVE",
"200 -28 OFFCURVE",
"198 -26 CURVE SMOOTH",
"191 -24 OFFCURVE",
"188 -19 OFFCURVE",
"189 -13 CURVE SMOOTH",
"190 -6 OFFCURVE",
"186 0 OFFCURVE",
"180 1 CURVE SMOOTH",
"108 24 OFFCURVE",
"60 71 OFFCURVE",
"60 145 CURVE SMOOTH",
"60 184 OFFCURVE",
"80 210 OFFCURVE",
"101 244 CURVE",
"105 248 OFFCURVE",
"109 253 OFFCURVE",
"114 256 CURVE SMOOTH",
"124 264 OFFCURVE",
"134 275 OFFCURVE",
"149 275 CURVE",
"155 274 OFFCURVE",
"161 275 OFFCURVE",
"168 276 CURVE SMOOTH",
"213 290 OFFCURVE",
"260 290 OFFCURVE",
"299 274 CURVE",
"310 270 OFFCURVE",
"319 260 OFFCURVE",
"323 248 CURVE SMOOTH",
"324 241 OFFCURVE",
"324 233 OFFCURVE",
"321 226 CURVE SMOOTH",
"318 218 OFFCURVE",
"310 213 OFFCURVE",
"301 211 CURVE",
"270 210 OFFCURVE",
"279 241 OFFCURVE",
"249 240 CURVE",
"240 240 OFFCURVE",
"233 238 OFFCURVE",
"226 233 CURVE SMOOTH",
"218 226 OFFCURVE",
"208 228 OFFCURVE",
"198 225 CURVE SMOOTH",
"144 209 OFFCURVE",
"111 131 OFFCURVE",
"140 81 CURVE SMOOTH",
"148 69 OFFCURVE",
"161 60 OFFCURVE",
"175 59 CURVE SMOOTH",
"214 56 OFFCURVE",
"265 73 OFFCURVE",
"299 88 CURVE SMOOTH",
"311 93 OFFCURVE",
"325 88 OFFCURVE",
"331 75 CURVE SMOOTH",
"335 65 OFFCURVE",
"334 54 OFFCURVE",
"326 46 CURVE SMOOTH",
"316 35 OFFCURVE",
"305 23 OFFCURVE",
"290 15 CURVE SMOOTH",
"283 11 OFFCURVE",
"284 3 OFFCURVE",
"290 -1 CURVE",
"316 -13 OFFCURVE",
"338 -30 OFFCURVE",
"340 -60 CURVE SMOOTH"
);
}
);
width = 400;
}
);
unicode = 00E7;
},
{
glyphname = d;
lastChange = "2020-11-04 22:34:44 +0000";
layers = (
{
layerId = master01;
paths = (
{
closed = 1;
nodes = (
"483 435 OFFCURVE",
"476 428 OFFCURVE",
"474 419 CURVE SMOOTH",
"453 335 OFFCURVE",
"455 220 OFFCURVE",
"418 120 CURVE SMOOTH",
"415 115 OFFCURVE",
"415 109 OFFCURVE",
"414 104 CURVE",
"413 71 OFFCURVE",
"394 46 OFFCURVE",
"381 16 CURVE SMOOTH",
"379 10 OFFCURVE",
"375 4 OFFCURVE",
"370 -1 CURVE",
"369 -3 OFFCURVE",
"369 -5 OFFCURVE",
"365 -5 CURVE",
"346 -8 OFFCURVE",
"336 -5 OFFCURVE",
"328 0 CURVE SMOOTH",
"315 9 OFFCURVE",
"310 23 OFFCURVE",
"313 36 CURVE SMOOTH",
"348 196 OFFCURVE",
"374 368 OFFCURVE",
"405 504 CURVE SMOOTH",
"408 513 OFFCURVE",
"416 520 OFFCURVE",
"426 520 CURVE SMOOTH",
"435 520 OFFCURVE",
"443 516 OFFCURVE",
"449 511 CURVE SMOOTH",
"475 493 OFFCURVE",
"494 489 OFFCURVE",
"485 443 CURVE"
);
},
{
closed = 1;
nodes = (
"303 171 OFFCURVE",
"293 163 OFFCURVE",
"280 165 CURVE SMOOTH",
"258 170 OFFCURVE",
"226 181 OFFCURVE",
"209 175 CURVE SMOOTH",
"195 170 OFFCURVE",
"183 170 OFFCURVE",
"169 165 CURVE SMOOTH",
"155 161 OFFCURVE",
"144 150 OFFCURVE",
"140 136 CURVE SMOOTH",
"136 123 OFFCURVE",
"134 108 OFFCURVE",
"133 89 CURVE",
"133 81 OFFCURVE",
"149 63 OFFCURVE",
"153 60 CURVE SMOOTH",
"170 48 OFFCURVE",
"196 51 OFFCURVE",
"223 58 CURVE SMOOTH",
"235 60 OFFCURVE",
"249 54 OFFCURVE",
"255 43 CURVE SMOOTH",
"256 39 OFFCURVE",
"259 35 OFFCURVE",
"260 30 CURVE SMOOTH",
"265 18 OFFCURVE",
"260 3 OFFCURVE",
"248 -4 CURVE SMOOTH",
"225 -15 OFFCURVE",
"204 -9 OFFCURVE",
"179 -11 CURVE SMOOTH",
"171 -13 OFFCURVE",
"165 -13 OFFCURVE",
"158 -10 CURVE SMOOTH",
"110 3 OFFCURVE",
"86 40 OFFCURVE",
"66 81 CURVE SMOOTH",
"63 89 OFFCURVE",
"61 98 OFFCURVE",
"61 106 CURVE SMOOTH",
"61 118 OFFCURVE",
"59 130 OFFCURVE",
"59 143 CURVE SMOOTH",
"59 151 OFFCURVE",
"61 159 OFFCURVE",
"64 168 CURVE",
"81 204 OFFCURVE",
"116 224 OFFCURVE",
"156 240 CURVE SMOOTH",
"166 244 OFFCURVE",
"175 245 OFFCURVE",
"185 244 CURVE SMOOTH",
"219 240 OFFCURVE",
"259 235 OFFCURVE",
"283 220 CURVE SMOOTH",
"295 213 OFFCURVE",
"303 199 OFFCURVE",
"303 184 CURVE SMOOTH"
);
}
);
width = 546;
}
);
unicode = 0064;
},
{
glyphname = eth;
lastChange = "2020-11-04 22:34:44 +0000";
layers = (
{
layerId = master01;
paths = (
{
closed = 1;
nodes = (
"406 388 OFFCURVE",
"403 385 OFFCURVE",
"398 385 CURVE",
"395 385 OFFCURVE",
"393 384 OFFCURVE",
"393 381 CURVE",
"391 379 OFFCURVE",
"384 383 OFFCURVE",
"379 380 CURVE SMOOTH",
"371 378 OFFCURVE",
"366 371 OFFCURVE",
"358 369 CURVE SMOOTH",
"345 365 OFFCURVE",
"338 355 OFFCURVE",
"335 343 CURVE",
"335 339 OFFCURVE",
"335 334 OFFCURVE",
"335 330 CURVE SMOOTH",
"335 323 OFFCURVE",
"334 316 OFFCURVE",
"331 310 CURVE SMOOTH",
"328 299 OFFCURVE",
"331 285 OFFCURVE",
"328 275 CURVE SMOOTH",
"325 268 OFFCURVE",
"324 260 OFFCURVE",
"324 253 CURVE SMOOTH",
"325 196 OFFCURVE",
"308 121 OFFCURVE",
"294 99 CURVE SMOOTH",
"290 91 OFFCURVE",
"289 85 OFFCURVE",
"288 78 CURVE SMOOTH",
"284 48 OFFCURVE",
"258 25 OFFCURVE",
"231 5 CURVE SMOOTH",
"220 -4 OFFCURVE",
"206 -8 OFFCURVE",
"193 -6 CURVE SMOOTH",
"176 -4 OFFCURVE",
"160 -1 OFFCURVE",
"139 4 CURVE SMOOTH",
"129 6 OFFCURVE",
"120 11 OFFCURVE",
"113 18 CURVE SMOOTH",
"70 56 OFFCURVE",
"45 124 OFFCURVE",
"69 198 CURVE SMOOTH",
"74 213 OFFCURVE",
"88 221 OFFCURVE",
"95 235 CURVE SMOOTH",
"123 286 OFFCURVE",
"168 325 OFFCURVE",
"229 329 CURVE",
"235 329 OFFCURVE",
"240 334 OFFCURVE",
"241 340 CURVE SMOOTH",
"243 346 OFFCURVE",
"238 353 OFFCURVE",
"231 353 CURVE",
"205 355 OFFCURVE",
"173 363 OFFCURVE",
"151 379 CURVE SMOOTH",
"148 381 OFFCURVE",
"144 385 OFFCURVE",
"140 390 CURVE SMOOTH",
"138 394 OFFCURVE",
"131 399 OFFCURVE",
"128 406 CURVE SMOOTH",
"121 418 OFFCURVE",
"129 430 OFFCURVE",
"141 430 CURVE SMOOTH",
"158 430 OFFCURVE",
"176 431 OFFCURVE",
"194 433 CURVE SMOOTH",
"203 434 OFFCURVE",
"205 445 OFFCURVE",
"198 449 CURVE",
"173 466 OFFCURVE",
"150 485 OFFCURVE",
"138 514 CURVE SMOOTH",
"136 518 OFFCURVE",
"136 521 OFFCURVE",
"139 524 CURVE SMOOTH",
"140 526 OFFCURVE",
"144 528 OFFCURVE",
"146 528 CURVE",
"194 524 OFFCURVE",
"231 504 OFFCURVE",
"260 475 CURVE SMOOTH",
"263 473 OFFCURVE",
"266 471 OFFCURVE",
"269 471 CURVE",
"273 471 OFFCURVE",
"275 470 OFFCURVE",
"276 468 CURVE SMOOTH",
"278 463 OFFCURVE",
"285 459 OFFCURVE",
"291 454 CURVE SMOOTH",
"301 446 OFFCURVE",
"314 441 OFFCURVE",
"326 441 CURVE",
"338 443 OFFCURVE",
"349 443 OFFCURVE",
"360 441 CURVE",
"369 441 OFFCURVE",
"379 439 OFFCURVE",
"386 434 CURVE SMOOTH",
"394 429 OFFCURVE",
"399 421 OFFCURVE",
"404 414 CURVE SMOOTH",
"408 406 OFFCURVE",
"409 399 OFFCURVE",
"406 391 CURVE"
);
},
{
closed = 1;
nodes = (
"229 255 OFFCURVE",
"219 263 OFFCURVE",
"210 256 CURVE SMOOTH",
"191 244 OFFCURVE",
"175 231 OFFCURVE",
"158 211 CURVE SMOOTH",
"129 176 OFFCURVE",
"120 121 OFFCURVE",
"128 75 CURVE",
"128 69 OFFCURVE",
"133 64 OFFCURVE",
"138 63 CURVE SMOOTH",
"144 60 OFFCURVE",
"151 60 OFFCURVE",
"158 64 CURVE SMOOTH",
"209 96 OFFCURVE",
"218 183 OFFCURVE",
"228 246 CURVE SMOOTH"
);
}
);
width = 468;
}
);
unicode = 00F0;
},
{
glyphname = e;
lastChange = "2020-11-04 22:34:44 +0000";
layers = (
{
layerId = master01;
paths = (
{
closed = 1;
nodes = (
"364 206 OFFCURVE",
"363 191 OFFCURVE",
"353 180 CURVE",
"351 180 OFFCURVE",
"351 179 OFFCURVE",
"350 179 CURVE",
"345 174 OFFCURVE",
"341 168 OFFCURVE",
"339 161 CURVE SMOOTH",
"323 128 OFFCURVE",
"278 131 OFFCURVE",
"244 125 CURVE",
"229 121 OFFCURVE",
"218 115 OFFCURVE",
"205 113 CURVE SMOOTH",
"190 109 OFFCURVE",
"175 113 OFFCURVE",
"165 123 CURVE SMOOTH",
"159 128 OFFCURVE",
"154 133 OFFCURVE",
"149 138 CURVE SMOOTH",
"141 145 OFFCURVE",
"129 140 OFFCURVE",
"129 130 CURVE",
"126 105 OFFCURVE",
"143 74 OFFCURVE",
"161 64 CURVE",
"199 46 OFFCURVE",
"260 64 OFFCURVE",
"303 73 CURVE SMOOTH",
"314 75 OFFCURVE",
"328 71 OFFCURVE",
"335 61 CURVE SMOOTH",
"336 59 OFFCURVE",
"339 56 OFFCURVE",
"339 54 CURVE",
"345 41 OFFCURVE",
"340 25 OFFCURVE",
"328 19 CURVE",
"328 18 OFFCURVE",
"326 18 OFFCURVE",
"325 16 CURVE",
"319 11 OFFCURVE",
"311 8 OFFCURVE",
"304 5 CURVE SMOOTH",
"281 0 OFFCURVE",
"263 -4 OFFCURVE",
"236 -6 CURVE",
"231 -8 OFFCURVE",
"225 -8 OFFCURVE",
"220 -6 CURVE SMOOTH",
"169 1 OFFCURVE",
"108 -1 OFFCURVE",
"83 51 CURVE SMOOTH",
"81 54 OFFCURVE",
"79 56 OFFCURVE",
"78 60 CURVE",
"46 103 OFFCURVE",
"64 195 OFFCURVE",
"95 234 CURVE SMOOTH",
"109 251 OFFCURVE",
"129 255 OFFCURVE",
"150 268 CURVE SMOOTH",
"215 306 OFFCURVE",
"315 279 OFFCURVE",
"355 219 CURVE SMOOTH"
);
},
{
closed = 1;
nodes = (
"288 225 OFFCURVE",
"284 226 OFFCURVE",
"280 228 CURVE",
"260 228 OFFCURVE",
"225 225 OFFCURVE",
"221 223 CURVE SMOOTH",
"219 221 OFFCURVE",
"216 220 OFFCURVE",
"213 219 CURVE SMOOTH",
"196 211 OFFCURVE",
"176 208 OFFCURVE",
"163 199 CURVE SMOOTH",
"154 193 OFFCURVE",
"158 179 OFFCURVE",
"169 178 CURVE SMOOTH",
"204 173 OFFCURVE",
"243 181 OFFCURVE",
"273 195 CURVE SMOOTH",
"279 199 OFFCURVE",
"285 204 OFFCURVE",
"290 209 CURVE SMOOTH",
"293 213 OFFCURVE",
"293 218 OFFCURVE",
"290 221 CURVE SMOOTH"
);
}
);
width = 421;
}
);
unicode = 0065;
},
{
glyphname = eacute;
lastChange = "2020-11-04 22:34:44 +0000";
layers = (
{
layerId = master01;
paths = (
{
closed = 1;
nodes = (
"273 421 OFFCURVE",
"268 411 OFFCURVE",
"260 403 CURVE SMOOTH",
"245 386 OFFCURVE",
"228 376 OFFCURVE",
"203 384 CURVE",
"199 386 OFFCURVE",
"194 385 OFFCURVE",
"190 384 CURVE",
"185 380 OFFCURVE",
"179 380 OFFCURVE",
"173 381 CURVE SMOOTH",
"168 383 OFFCURVE",
"165 389 OFFCURVE",
"169 394 CURVE SMOOTH",
"185 416 OFFCURVE",
"201 439 OFFCURVE",
"219 460 CURVE SMOOTH",
"226 470 OFFCURVE",
"240 473 OFFCURVE",
"251 469 CURVE SMOOTH",
"256 466 OFFCURVE",
"261 464 OFFCURVE",
"265 459 CURVE",
"273 453 OFFCURVE",
"275 443 OFFCURVE",
"274 433 CURVE SMOOTH"
);
},
{
closed = 1;
nodes = (
"338 240 OFFCURVE",
"338 224 OFFCURVE",
"330 210 CURVE",
"326 200 OFFCURVE",
"319 193 OFFCURVE",
"313 180 CURVE SMOOTH",
"300 159 OFFCURVE",
"269 146 OFFCURVE",
"240 140 CURVE SMOOTH",
"216 135 OFFCURVE",
"185 126 OFFCURVE",
"161 139 CURVE SMOOTH",
"151 144 OFFCURVE",
"140 138 OFFCURVE",
"138 128 CURVE SMOOTH",
"135 116 OFFCURVE",
"134 104 OFFCURVE",
"136 93 CURVE SMOOTH",
"139 78 OFFCURVE",
"150 68 OFFCURVE",
"165 66 CURVE SMOOTH",
"214 61 OFFCURVE",
"255 86 OFFCURVE",
"288 113 CURVE SMOOTH",
"295 119 OFFCURVE",
"308 114 OFFCURVE",
"309 105 CURVE",
"309 103 OFFCURVE",
"309 100 OFFCURVE",
"310 99 CURVE",
"313 89 OFFCURVE",
"313 79 OFFCURVE",
"311 68 CURVE SMOOTH",
"309 54 OFFCURVE",
"301 40 OFFCURVE",
"289 33 CURVE SMOOTH",
"276 24 OFFCURVE",
"260 19 OFFCURVE",
"245 11 CURVE SMOOTH",
"238 8 OFFCURVE",
"230 6 OFFCURVE",
"223 5 CURVE",
"129 1 OFFCURVE",
"43 69 OFFCURVE",
"64 165 CURVE SMOOTH",
"65 170 OFFCURVE",
"70 174 OFFCURVE",
"73 179 CURVE",
"76 193 OFFCURVE",
"76 209 OFFCURVE",
"83 221 CURVE SMOOTH",
"84 225 OFFCURVE",
"90 226 OFFCURVE",
"93 231 CURVE SMOOTH",
"104 253 OFFCURVE",
"114 273 OFFCURVE",
"130 291 CURVE SMOOTH",
"133 295 OFFCURVE",
"135 298 OFFCURVE",
"139 300 CURVE SMOOTH",
"150 309 OFFCURVE",
"164 319 OFFCURVE",
"180 321 CURVE SMOOTH",
"216 325 OFFCURVE",
"279 326 OFFCURVE",
"304 301 CURVE",
"305 300 OFFCURVE",
"304 296 OFFCURVE",
"304 295 CURVE",
"319 283 OFFCURVE",
"324 273 OFFCURVE",
"331 254 CURVE SMOOTH"
);
},
{
closed = 1;
nodes = (
"258 261 OFFCURVE",
"246 271 OFFCURVE",
"234 269 CURVE SMOOTH",
"206 261 OFFCURVE",
"185 241 OFFCURVE",
"171 215 CURVE SMOOTH",
"166 206 OFFCURVE",
"174 195 OFFCURVE",
"184 196 CURVE SMOOTH",
"223 200 OFFCURVE",
"253 219 OFFCURVE",
"256 248 CURVE SMOOTH"
);
}
);
width = 396;
}
);
unicode = 00E9;
},
